<?xml version="1.0" encoding="utf-8" standalone="no"?>
<!DOCTYPE svg PUBLIC "-//W3C//DTD SVG 1.1//EN"
  "http://www.w3.org/Graphics/SVG/1.1/DTD/svg11.dtd">
<svg xmlns:xlink="http://www.w3.org/1999/xlink" width="360pt" height="288pt" viewBox="0 0 360 288" xmlns="http://www.w3.org/2000/svg" version="1.1">
 <metadata>
  <rdf:RDF xmlns:dc="http://purl.org/dc/elements/1.1/" xmlns:cc="http://creativecommons.org/ns#" xmlns:rdf="http://www.w3.org/1999/02/22-rdf-syntax-ns#">
   <cc:Work>
    <dc:type rdf:resource="http://purl.org/dc/dcmitype/StillImage"/>
    <dc:date>2026-02-05T23:20:56.328506</dc:date>
    <dc:format>image/svg+xml</dc:format>
    <dc:creator>
     <cc:Agent>
      <dc:title>Matplotlib v3.10.8, https://matplotlib.org/</dc:title>
     </cc:Agent>
    </dc:creator>
   </cc:Work>
  </rdf:RDF>
 </metadata>
 <defs>
  <style type="text/css">*{stroke-linejoin: round; stroke-linecap: butt}</style>
 </defs>
 <g id="figure_1">
  <g id="patch_1">
   <path d="M 0 288 
L 360 288 
L 360 0 
L 0 0 
z
" style="fill: #ffffff"/>
  </g>
  <g id="axes_1">
   <g id="patch_2">
    <path d="M 62.3 246.04 
L 349.2 246.04 
L 349.2 36.384 
L 62.3 36.384 
z
" style="fill: #ffffff"/>
   </g>
   <g id="PathCollection_1">
    <defs>
     <path id="mbd326213df" d="M 0 3 
C 0.795609 3 1.55874 2.683901 2.12132 2.12132 
C 2.683901 1.55874 3 0.795609 3 0 
C 3 -0.795609 2.683901 -1.55874 2.12132 -2.12132 
C 1.55874 -2.683901 0.795609 -3 0 -3 
C -0.795609 -3 -1.55874 -2.683901 -2.12132 -2.12132 
C -2.683901 -1.55874 -3 -0.795609 -3 0 
C -3 0.795609 -2.683901 1.55874 -2.12132 2.12132 
C -1.55874 2.683901 -0.795609 3 0 3 
z
" style="stroke: #1f77b4"/>
    </defs>
    <g clip-path="url(#p1eb99b4dd4)">
     <use xlink:href="#mbd326213df" x="205.75" y="141.212" style="fill: #1f77b4; stroke: #1f77b4"/>
     <use xlink:href="#mbd326213df" x="205.75" y="141.212" style="fill: #1f77b4; stroke: #1f77b4"/>
     <use xlink:href="#mbd326213df" x="205.75" y="141.212" style="fill: #1f77b4; stroke: #1f77b4"/>
     <use xlink:href="#mbd326213df" x="205.75" y="141.212" style="fill: #1f77b4; stroke: #1f77b4"/>
    </g>
   </g>
   <g id="matplotlib.axis_1">
    <g id="xtick_1">
     <g id="line2d_1">
      <defs>
       <path id="m9305be9daa" d="M 0 0 
L 0 3.5 
" style="stroke: #000000; stroke-width: 0.8"/>
      </defs>
      <g>
       <use xlink:href="#m9305be9daa" x="101.422727" y="246.04" style="stroke: #000000; stroke-width: 0.8"/>
      </g>
     </g>
     <g id="text_1">
      <!-- −0.04 -->
      <g transform="translate(86.100071 260.638438) scale(0.1 -0.1)">
       <defs>
        <path id="DejaVuSans-2212" d="M 678 2272 
L 4684 2272 
L 4684 1741 
L 678 1741 
L 678 2272 
z
" transform="scale(0.015625)"/>
        <path id="DejaVuSans-30" d="M 2034 4250 
Q 1547 4250 1301 3770 
Q 1056 3291 1056 2328 
Q 1056 1369 1301 889 
Q 1547 409 2034 409 
Q 2525 409 2770 889 
Q 3016 1369 3016 2328 
Q 3016 3291 2770 3770 
Q 2525 4250 2034 4250 
z
M 2034 4750 
Q 2819 4750 3233 4129 
Q 3647 3509 3647 2328 
Q 3647 1150 3233 529 
Q 2819 -91 2034 -91 
Q 1250 -91 836 529 
Q 422 1150 422 2328 
Q 422 3509 836 4129 
Q 1250 4750 2034 4750 
z
" transform="scale(0.015625)"/>
        <path id="DejaVuSans-2e" d="M 684 794 
L 1344 794 
L 1344 0 
L 684 0 
L 684 794 
z
" transform="scale(0.015625)"/>
        <path id="DejaVuSans-34" d="M 2419 4116 
L 825 1625 
L 2419 1625 
L 2419 4116 
z
M 2253 4666 
L 3047 4666 
L 3047 1625 
L 3713 1625 
L 3713 1100 
L 3047 1100 
L 3047 0 
L 2419 0 
L 2419 1100 
L 313 1100 
L 313 1709 
L 2253 4666 
z
" transform="scale(0.015625)"/>
       </defs>
       <use xlink:href="#DejaVuSans-2212"/>
       <use xlink:href="#DejaVuSans-30" transform="translate(83.789062 0)"/>
       <use xlink:href="#DejaVuSans-2e" transform="translate(147.412109 0)"/>
       <use xlink:href="#DejaVuSans-30" transform="translate(179.199219 0)"/>
       <use xlink:href="#DejaVuSans-34" transform="translate(242.822266 0)"/>
      </g>
     </g>
    </g>
    <g id="xtick_2">
     <g id="line2d_2">
      <g>
       <use xlink:href="#m9305be9daa" x="153.586364" y="246.04" style="stroke: #000000; stroke-width: 0.8"/>
      </g>
     </g>
     <g id="text_2">
      <!-- −0.02 -->
      <g transform="translate(138.263707 260.638438) scale(0.1 -0.1)">
       <defs>
        <path id="DejaVuSans-32" d="M 1228 531 
L 3431 531 
L 3431 0 
L 469 0 
L 469 531 
Q 828 903 1448 1529 
Q 2069 2156 2228 2338 
Q 2531 2678 2651 2914 
Q 2772 3150 2772 3378 
Q 2772 3750 2511 3984 
Q 2250 4219 1831 4219 
Q 1534 4219 1204 4116 
Q 875 4013 500 3803 
L 500 4441 
Q 881 4594 1212 4672 
Q 1544 4750 1819 4750 
Q 2544 4750 2975 4387 
Q 3406 4025 3406 3419 
Q 3406 3131 3298 2873 
Q 3191 2616 2906 2266 
Q 2828 2175 2409 1742 
Q 1991 1309 1228 531 
z
" transform="scale(0.015625)"/>
       </defs>
       <use xlink:href="#DejaVuSans-2212"/>
       <use xlink:href="#DejaVuSans-30" transform="translate(83.789062 0)"/>
       <use xlink:href="#DejaVuSans-2e" transform="translate(147.412109 0)"/>
       <use xlink:href="#DejaVuSans-30" transform="translate(179.199219 0)"/>
       <use xlink:href="#DejaVuSans-32" transform="translate(242.822266 0)"/>
      </g>
     </g>
    </g>
    <g id="xtick_3">
     <g id="line2d_3">
      <g>
       <use xlink:href="#m9305be9daa" x="205.75" y="246.04" style="stroke: #000000; stroke-width: 0.8"/>
      </g>
     </g>
     <g id="text_3">
      <!-- 0.00 -->
      <g transform="translate(194.617188 260.638438) scale(0.1 -0.1)">
       <use xlink:href="#DejaVuSans-30"/>
       <use xlink:href="#DejaVuSans-2e" transform="translate(63.623047 0)"/>
       <use xlink:href="#DejaVuSans-30" transform="translate(95.410156 0)"/>
       <use xlink:href="#DejaVuSans-30" transform="translate(159.033203 0)"/>
      </g>
     </g>
    </g>
    <g id="xtick_4">
     <g id="line2d_4">
      <g>
       <use xlink:href="#m9305be9daa" x="257.913636" y="246.04" style="stroke: #000000; stroke-width: 0.8"/>
      </g>
     </g>
     <g id="text_4">
      <!-- 0.02 -->
      <g transform="translate(246.780824 260.638438) scale(0.1 -0.1)">
       <use xlink:href="#DejaVuSans-30"/>
       <use xlink:href="#DejaVuSans-2e" transform="translate(63.623047 0)"/>
       <use xlink:href="#DejaVuSans-30" transform="translate(95.410156 0)"/>
       <use xlink:href="#DejaVuSans-32" transform="translate(159.033203 0)"/>
      </g>
     </g>
    </g>
    <g id="xtick_5">
     <g id="line2d_5">
      <g>
       <use xlink:href="#m9305be9daa" x="310.077273" y="246.04" style="stroke: #000000; stroke-width: 0.8"/>
      </g>
     </g>
     <g id="text_5">
      <!-- 0.04 -->
      <g transform="translate(298.94446 260.638438) scale(0.1 -0.1)">
       <use xlink:href="#DejaVuSans-30"/>
       <use xlink:href="#DejaVuSans-2e" transform="translate(63.623047 0)"/>
       <use xlink:href="#DejaVuSans-30" transform="translate(95.410156 0)"/>
       <use xlink:href="#DejaVuSans-34" transform="translate(159.033203 0)"/>
      </g>
     </g>
    </g>
    <g id="text_6">
     <!-- Violations (total) -->
     <g transform="translate(164.435156 274.316562) scale(0.1 -0.1)">
      <defs>
       <path id="DejaVuSans-56" d="M 1831 0 
L 50 4666 
L 709 4666 
L 2188 738 
L 3669 4666 
L 4325 4666 
L 2547 0 
L 1831 0 
z
" transform="scale(0.015625)"/>
       <path id="DejaVuSans-69" d="M 603 3500 
L 1178 3500 
L 1178 0 
L 603 0 
L 603 3500 
z
M 603 4863 
L 1178 4863 
L 1178 4134 
L 603 4134 
L 603 4863 
z
" transform="scale(0.015625)"/>
       <path id="DejaVuSans-6f" d="M 1959 3097 
Q 1497 3097 1228 2736 
Q 959 2375 959 1747 
Q 959 1119 1226 758 
Q 1494 397 1959 397 
Q 2419 397 2687 759 
Q 2956 1122 2956 1747 
Q 2956 2369 2687 2733 
Q 2419 3097 1959 3097 
z
M 1959 3584 
Q 2709 3584 3137 3096 
Q 3566 2609 3566 1747 
Q 3566 888 3137 398 
Q 2709 -91 1959 -91 
Q 1206 -91 779 398 
Q 353 888 353 1747 
Q 353 2609 779 3096 
Q 1206 3584 1959 3584 
z
" transform="scale(0.015625)"/>
       <path id="DejaVuSans-6c" d="M 603 4863 
L 1178 4863 
L 1178 0 
L 603 0 
L 603 4863 
z
" transform="scale(0.015625)"/>
       <path id="DejaVuSans-61" d="M 2194 1759 
Q 1497 1759 1228 1600 
Q 959 1441 959 1056 
Q 959 750 1161 570 
Q 1363 391 1709 391 
Q 2188 391 2477 730 
Q 2766 1069 2766 1631 
L 2766 1759 
L 2194 1759 
z
M 3341 1997 
L 3341 0 
L 2766 0 
L 2766 531 
Q 2569 213 2275 61 
Q 1981 -91 1556 -91 
Q 1019 -91 701 211 
Q 384 513 384 1019 
Q 384 1609 779 1909 
Q 1175 2209 1959 2209 
L 2766 2209 
L 2766 2266 
Q 2766 2663 2505 2880 
Q 2244 3097 1772 3097 
Q 1472 3097 1187 3025 
Q 903 2953 641 2809 
L 641 3341 
Q 956 3463 1253 3523 
Q 1550 3584 1831 3584 
Q 2591 3584 2966 3190 
Q 3341 2797 3341 1997 
z
" transform="scale(0.015625)"/>
       <path id="DejaVuSans-74" d="M 1172 4494 
L 1172 3500 
L 2356 3500 
L 2356 3053 
L 1172 3053 
L 1172 1153 
Q 1172 725 1289 603 
Q 1406 481 1766 481 
L 2356 481 
L 2356 0 
L 1766 0 
Q 1100 0 847 248 
Q 594 497 594 1153 
L 594 3053 
L 172 3053 
L 172 3500 
L 594 3500 
L 594 4494 
L 1172 4494 
z
" transform="scale(0.015625)"/>
       <path id="DejaVuSans-6e" d="M 3513 2113 
L 3513 0 
L 2938 0 
L 2938 2094 
Q 2938 2591 2744 2837 
Q 2550 3084 2163 3084 
Q 1697 3084 1428 2787 
Q 1159 2491 1159 1978 
L 1159 0 
L 581 0 
L 581 3500 
L 1159 3500 
L 1159 2956 
Q 1366 3272 1645 3428 
Q 1925 3584 2291 3584 
Q 2894 3584 3203 3211 
Q 3513 2838 3513 2113 
z
" transform="scale(0.015625)"/>
       <path id="DejaVuSans-73" d="M 2834 3397 
L 2834 2853 
Q 2591 2978 2328 3040 
Q 2066 3103 1784 3103 
Q 1356 3103 1142 2972 
Q 928 2841 928 2578 
Q 928 2378 1081 2264 
Q 1234 2150 1697 2047 
L 1894 2003 
Q 2506 1872 2764 1633 
Q 3022 1394 3022 966 
Q 3022 478 2636 193 
Q 2250 -91 1575 -91 
Q 1294 -91 989 -36 
Q 684 19 347 128 
L 347 722 
Q 666 556 975 473 
Q 1284 391 1588 391 
Q 1994 391 2212 530 
Q 2431 669 2431 922 
Q 2431 1156 2273 1281 
Q 2116 1406 1581 1522 
L 1381 1569 
Q 847 1681 609 1914 
Q 372 2147 372 2553 
Q 372 3047 722 3315 
Q 1072 3584 1716 3584 
Q 2034 3584 2315 3537 
Q 2597 3491 2834 3397 
z
" transform="scale(0.015625)"/>
       <path id="DejaVuSans-20" transform="scale(0.015625)"/>
       <path id="DejaVuSans-28" d="M 1984 4856 
Q 1566 4138 1362 3434 
Q 1159 2731 1159 2009 
Q 1159 1288 1364 580 
Q 1569 -128 1984 -844 
L 1484 -844 
Q 1016 -109 783 600 
Q 550 1309 550 2009 
Q 550 2706 781 3412 
Q 1013 4119 1484 4856 
L 1984 4856 
z
" transform="scale(0.015625)"/>
       <path id="DejaVuSans-29" d="M 513 4856 
L 1013 4856 
Q 1481 4119 1714 3412 
Q 1947 2706 1947 2009 
Q 1947 1309 1714 600 
Q 1481 -109 1013 -844 
L 513 -844 
Q 928 -128 1133 580 
Q 1338 1288 1338 2009 
Q 1338 2731 1133 3434 
Q 928 4138 513 4856 
z
" transform="scale(0.015625)"/>
      </defs>
      <use xlink:href="#DejaVuSans-56"/>
      <use xlink:href="#DejaVuSans-69" transform="translate(66.158203 0)"/>
      <use xlink:href="#DejaVuSans-6f" transform="translate(93.941406 0)"/>
      <use xlink:href="#DejaVuSans-6c" transform="translate(155.123047 0)"/>
      <use xlink:href="#DejaVuSans-61" transform="translate(182.90625 0)"/>
      <use xlink:href="#DejaVuSans-74" transform="translate(244.185547 0)"/>
      <use xlink:href="#DejaVuSans-69" transform="translate(283.394531 0)"/>
      <use xlink:href="#DejaVuSans-6f" transform="translate(311.177734 0)"/>
      <use xlink:href="#DejaVuSans-6e" transform="translate(372.359375 0)"/>
      <use xlink:href="#DejaVuSans-73" transform="translate(435.738281 0)"/>
      <use xlink:href="#DejaVuSans-20" transform="translate(487.837891 0)"/>
      <use xlink:href="#DejaVuSans-28" transform="translate(519.625 0)"/>
      <use xlink:href="#DejaVuSans-74" transform="translate(558.638672 0)"/>
      <use xlink:href="#DejaVuSans-6f" transform="translate(597.847656 0)"/>
      <use xlink:href="#DejaVuSans-74" transform="translate(659.029297 0)"/>
      <use xlink:href="#DejaVuSans-61" transform="translate(698.238281 0)"/>
      <use xlink:href="#DejaVuSans-6c" transform="translate(759.517578 0)"/>
      <use xlink:href="#DejaVuSans-29" transform="translate(787.300781 0)"/>
     </g>
    </g>
   </g>
   <g id="matplotlib.axis_2">
    <g id="ytick_1">
     <g id="line2d_6">
      <defs>
       <path id="m52c1546843" d="M 0 0 
L -3.5 0 
" style="stroke: #000000; stroke-width: 0.8"/>
      </defs>
      <g>
       <use xlink:href="#m52c1546843" x="62.3" y="217.450545" style="stroke: #000000; stroke-width: 0.8"/>
      </g>
     </g>
     <g id="text_7">
      <!-- −0.04 -->
      <g transform="translate(24.654687 221.249764) scale(0.1 -0.1)">
       <use xlink:href="#DejaVuSans-2212"/>
       <use xlink:href="#DejaVuSans-30" transform="translate(83.789062 0)"/>
       <use xlink:href="#DejaVuSans-2e" transform="translate(147.412109 0)"/>
       <use xlink:href="#DejaVuSans-30" transform="translate(179.199219 0)"/>
       <use xlink:href="#DejaVuSans-34" transform="translate(242.822266 0)"/>
      </g>
     </g>
    </g>
    <g id="ytick_2">
     <g id="line2d_7">
      <g>
       <use xlink:href="#m52c1546843" x="62.3" y="179.331273" style="stroke: #000000; stroke-width: 0.8"/>
      </g>
     </g>
     <g id="text_8">
      <!-- −0.02 -->
      <g transform="translate(24.654687 183.130491) scale(0.1 -0.1)">
       <use xlink:href="#DejaVuSans-2212"/>
       <use xlink:href="#DejaVuSans-30" transform="translate(83.789062 0)"/>
       <use xlink:href="#DejaVuSans-2e" transform="translate(147.412109 0)"/>
       <use xlink:href="#DejaVuSans-30" transform="translate(179.199219 0)"/>
       <use xlink:href="#DejaVuSans-32" transform="translate(242.822266 0)"/>
      </g>
     </g>
    </g>
    <g id="ytick_3">
     <g id="line2d_8">
      <g>
       <use xlink:href="#m52c1546843" x="62.3" y="141.212" style="stroke: #000000; stroke-width: 0.8"/>
      </g>
     </g>
     <g id="text_9">
      <!-- 0.00 -->
      <g transform="translate(33.034375 145.011219) scale(0.1 -0.1)">
       <use xlink:href="#DejaVuSans-30"/>
       <use xlink:href="#DejaVuSans-2e" transform="translate(63.623047 0)"/>
       <use xlink:href="#DejaVuSans-30" transform="translate(95.410156 0)"/>
       <use xlink:href="#DejaVuSans-30" transform="translate(159.033203 0)"/>
      </g>
     </g>
    </g>
    <g id="ytick_4">
     <g id="line2d_9">
      <g>
       <use xlink:href="#m52c1546843" x="62.3" y="103.092727" style="stroke: #000000; stroke-width: 0.8"/>
      </g>
     </g>
     <g id="text_10">
      <!-- 0.02 -->
      <g transform="translate(33.034375 106.891946) scale(0.1 -0.1)">
       <use xlink:href="#DejaVuSans-30"/>
       <use xlink:href="#DejaVuSans-2e" transform="translate(63.623047 0)"/>
       <use xlink:href="#DejaVuSans-30" transform="translate(95.410156 0)"/>
       <use xlink:href="#DejaVuSans-32" transform="translate(159.033203 0)"/>
      </g>
     </g>
    </g>
    <g id="ytick_5">
     <g id="line2d_10">
      <g>
       <use xlink:href="#m52c1546843" x="62.3" y="64.973455" style="stroke: #000000; stroke-width: 0.8"/>
      </g>
     </g>
     <g id="text_11">
      <!-- 0.04 -->
      <g transform="translate(33.034375 68.772673) scale(0.1 -0.1)">
       <use xlink:href="#DejaVuSans-30"/>
       <use xlink:href="#DejaVuSans-2e" transform="translate(63.623047 0)"/>
       <use xlink:href="#DejaVuSans-30" transform="translate(95.410156 0)"/>
       <use xlink:href="#DejaVuSans-34" transform="translate(159.033203 0)"/>
      </g>
     </g>
    </g>
    <g id="text_12">
     <!-- Throughput (mean) -->
     <g transform="translate(18.575 189.922156) rotate(-90) scale(0.1 -0.1)">
      <defs>
       <path id="DejaVuSans-54" d="M -19 4666 
L 3928 4666 
L 3928 4134 
L 2272 4134 
L 2272 0 
L 1638 0 
L 1638 4134 
L -19 4134 
L -19 4666 
z
" transform="scale(0.015625)"/>
       <path id="DejaVuSans-68" d="M 3513 2113 
L 3513 0 
L 2938 0 
L 2938 2094 
Q 2938 2591 2744 2837 
Q 2550 3084 2163 3084 
Q 1697 3084 1428 2787 
Q 1159 2491 1159 1978 
L 1159 0 
L 581 0 
L 581 4863 
L 1159 4863 
L 1159 2956 
Q 1366 3272 1645 3428 
Q 1925 3584 2291 3584 
Q 2894 3584 3203 3211 
Q 3513 2838 3513 2113 
z
" transform="scale(0.015625)"/>
       <path id="DejaVuSans-72" d="M 2631 2963 
Q 2534 3019 2420 3045 
Q 2306 3072 2169 3072 
Q 1681 3072 1420 2755 
Q 1159 2438 1159 1844 
L 1159 0 
L 581 0 
L 581 3500 
L 1159 3500 
L 1159 2956 
Q 1341 3275 1631 3429 
Q 1922 3584 2338 3584 
Q 2397 3584 2469 3576 
Q 2541 3569 2628 3553 
L 2631 2963 
z
" transform="scale(0.015625)"/>
       <path id="DejaVuSans-75" d="M 544 1381 
L 544 3500 
L 1119 3500 
L 1119 1403 
Q 1119 906 1312 657 
Q 1506 409 1894 409 
Q 2359 409 2629 706 
Q 2900 1003 2900 1516 
L 2900 3500 
L 3475 3500 
L 3475 0 
L 2900 0 
L 2900 538 
Q 2691 219 2414 64 
Q 2138 -91 1772 -91 
Q 1169 -91 856 284 
Q 544 659 544 1381 
z
M 1991 3584 
L 1991 3584 
z
" transform="scale(0.015625)"/>
       <path id="DejaVuSans-67" d="M 2906 1791 
Q 2906 2416 2648 2759 
Q 2391 3103 1925 3103 
Q 1463 3103 1205 2759 
Q 947 2416 947 1791 
Q 947 1169 1205 825 
Q 1463 481 1925 481 
Q 2391 481 2648 825 
Q 2906 1169 2906 1791 
z
M 3481 434 
Q 3481 -459 3084 -895 
Q 2688 -1331 1869 -1331 
Q 1566 -1331 1297 -1286 
Q 1028 -1241 775 -1147 
L 775 -588 
Q 1028 -725 1275 -790 
Q 1522 -856 1778 -856 
Q 2344 -856 2625 -561 
Q 2906 -266 2906 331 
L 2906 616 
Q 2728 306 2450 153 
Q 2172 0 1784 0 
Q 1141 0 747 490 
Q 353 981 353 1791 
Q 353 2603 747 3093 
Q 1141 3584 1784 3584 
Q 2172 3584 2450 3431 
Q 2728 3278 2906 2969 
L 2906 3500 
L 3481 3500 
L 3481 434 
z
" transform="scale(0.015625)"/>
       <path id="DejaVuSans-70" d="M 1159 525 
L 1159 -1331 
L 581 -1331 
L 581 3500 
L 1159 3500 
L 1159 2969 
Q 1341 3281 1617 3432 
Q 1894 3584 2278 3584 
Q 2916 3584 3314 3078 
Q 3713 2572 3713 1747 
Q 3713 922 3314 415 
Q 2916 -91 2278 -91 
Q 1894 -91 1617 61 
Q 1341 213 1159 525 
z
M 3116 1747 
Q 3116 2381 2855 2742 
Q 2594 3103 2138 3103 
Q 1681 3103 1420 2742 
Q 1159 2381 1159 1747 
Q 1159 1113 1420 752 
Q 1681 391 2138 391 
Q 2594 391 2855 752 
Q 3116 1113 3116 1747 
z
" transform="scale(0.015625)"/>
       <path id="DejaVuSans-6d" d="M 3328 2828 
Q 3544 3216 3844 3400 
Q 4144 3584 4550 3584 
Q 5097 3584 5394 3201 
Q 5691 2819 5691 2113 
L 5691 0 
L 5113 0 
L 5113 2094 
Q 5113 2597 4934 2840 
Q 4756 3084 4391 3084 
Q 3944 3084 3684 2787 
Q 3425 2491 3425 1978 
L 3425 0 
L 2847 0 
L 2847 2094 
Q 2847 2600 2669 2842 
Q 2491 3084 2119 3084 
Q 1678 3084 1418 2786 
Q 1159 2488 1159 1978 
L 1159 0 
L 581 0 
L 581 3500 
L 1159 3500 
L 1159 2956 
Q 1356 3278 1631 3431 
Q 1906 3584 2284 3584 
Q 2666 3584 2933 3390 
Q 3200 3197 3328 2828 
z
" transform="scale(0.015625)"/>
       <path id="DejaVuSans-65" d="M 3597 1894 
L 3597 1613 
L 953 1613 
Q 991 1019 1311 708 
Q 1631 397 2203 397 
Q 2534 397 2845 478 
Q 3156 559 3463 722 
L 3463 178 
Q 3153 47 2828 -22 
Q 2503 -91 2169 -91 
Q 1331 -91 842 396 
Q 353 884 353 1716 
Q 353 2575 817 3079 
Q 1281 3584 2069 3584 
Q 2775 3584 3186 3129 
Q 3597 2675 3597 1894 
z
M 3022 2063 
Q 3016 2534 2758 2815 
Q 2500 3097 2075 3097 
Q 1594 3097 1305 2825 
Q 1016 2553 972 2059 
L 3022 2063 
z
" transform="scale(0.015625)"/>
      </defs>
      <use xlink:href="#DejaVuSans-54"/>
      <use xlink:href="#DejaVuSans-68" transform="translate(61.083984 0)"/>
      <use xlink:href="#DejaVuSans-72" transform="translate(124.462891 0)"/>
      <use xlink:href="#DejaVuSans-6f" transform="translate(163.326172 0)"/>
      <use xlink:href="#DejaVuSans-75" transform="translate(224.507812 0)"/>
      <use xlink:href="#DejaVuSans-67" transform="translate(287.886719 0)"/>
      <use xlink:href="#DejaVuSans-68" transform="translate(351.363281 0)"/>
      <use xlink:href="#DejaVuSans-70" transform="translate(414.742188 0)"/>
      <use xlink:href="#DejaVuSans-75" transform="translate(478.21875 0)"/>
      <use xlink:href="#DejaVuSans-74" transform="translate(541.597656 0)"/>
      <use xlink:href="#DejaVuSans-20" transform="translate(580.806641 0)"/>
      <use xlink:href="#DejaVuSans-28" transform="translate(612.59375 0)"/>
      <use xlink:href="#DejaVuSans-6d" transform="translate(651.607422 0)"/>
      <use xlink:href="#DejaVuSans-65" transform="translate(749.019531 0)"/>
      <use xlink:href="#DejaVuSans-61" transform="translate(810.542969 0)"/>
      <use xlink:href="#DejaVuSans-6e" transform="translate(871.822266 0)"/>
      <use xlink:href="#DejaVuSans-29" transform="translate(935.201172 0)"/>
     </g>
    </g>
   </g>
   <g id="patch_3">
    <path d="M 62.3 246.04 
L 62.3 36.384 
" style="fill: none; stroke: #000000; stroke-width: 0.8; stroke-linejoin: miter; stroke-linecap: square"/>
   </g>
   <g id="patch_4">
    <path d="M 349.2 246.04 
L 349.2 36.384 
" style="fill: none; stroke: #000000; stroke-width: 0.8; stroke-linejoin: miter; stroke-linecap: square"/>
   </g>
   <g id="patch_5">
    <path d="M 62.3 246.04 
L 349.2 246.04 
" style="fill: none; stroke: #000000; stroke-width: 0.8; stroke-linejoin: miter; stroke-linecap: square"/>
   </g>
   <g id="patch_6">
    <path d="M 62.3 36.384 
L 349.2 36.384 
" style="fill: none; stroke: #000000; stroke-width: 0.8; stroke-linejoin: miter; stroke-linecap: square"/>
   </g>
   <g id="text_13">
    <!-- dual_on_trust_on -->
    <g style="opacity: 0.8" transform="translate(205.75 141.212) scale(0.08 -0.08)">
     <defs>
      <path id="DejaVuSans-64" d="M 2906 2969 
L 2906 4863 
L 3481 4863 
L 3481 0 
L 2906 0 
L 2906 525 
Q 2725 213 2448 61 
Q 2172 -91 1784 -91 
Q 1150 -91 751 415 
Q 353 922 353 1747 
Q 353 2572 751 3078 
Q 1150 3584 1784 3584 
Q 2172 3584 2448 3432 
Q 2725 3281 2906 2969 
z
M 947 1747 
Q 947 1113 1208 752 
Q 1469 391 1925 391 
Q 2381 391 2643 752 
Q 2906 1113 2906 1747 
Q 2906 2381 2643 2742 
Q 2381 3103 1925 3103 
Q 1469 3103 1208 2742 
Q 947 2381 947 1747 
z
" transform="scale(0.015625)"/>
      <path id="DejaVuSans-5f" d="M 3263 -1063 
L 3263 -1509 
L -63 -1509 
L -63 -1063 
L 3263 -1063 
z
" transform="scale(0.015625)"/>
     </defs>
     <use xlink:href="#DejaVuSans-64"/>
     <use xlink:href="#DejaVuSans-75" transform="translate(63.476562 0)"/>
     <use xlink:href="#DejaVuSans-61" transform="translate(126.855469 0)"/>
     <use xlink:href="#DejaVuSans-6c" transform="translate(188.134766 0)"/>
     <use xlink:href="#DejaVuSans-5f" transform="translate(215.917969 0)"/>
     <use xlink:href="#DejaVuSans-6f" transform="translate(265.917969 0)"/>
     <use xlink:href="#DejaVuSans-6e" transform="translate(327.099609 0)"/>
     <use xlink:href="#DejaVuSans-5f" transform="translate(390.478516 0)"/>
     <use xlink:href="#DejaVuSans-74" transform="translate(440.478516 0)"/>
     <use xlink:href="#DejaVuSans-72" transform="translate(479.6875 0)"/>
     <use xlink:href="#DejaVuSans-75" transform="translate(520.800781 0)"/>
     <use xlink:href="#DejaVuSans-73" transform="translate(584.179688 0)"/>
     <use xlink:href="#DejaVuSans-74" transform="translate(636.279297 0)"/>
     <use xlink:href="#DejaVuSans-5f" transform="translate(675.488281 0)"/>
     <use xlink:href="#DejaVuSans-6f" transform="translate(725.488281 0)"/>
     <use xlink:href="#DejaVuSans-6e" transform="translate(786.669922 0)"/>
    </g>
   </g>
   <g id="text_14">
    <!-- dual_on_trust_off -->
    <g style="opacity: 0.8" transform="translate(205.75 141.212) scale(0.08 -0.08)">
     <defs>
      <path id="DejaVuSans-66" d="M 2375 4863 
L 2375 4384 
L 1825 4384 
Q 1516 4384 1395 4259 
Q 1275 4134 1275 3809 
L 1275 3500 
L 2222 3500 
L 2222 3053 
L 1275 3053 
L 1275 0 
L 697 0 
L 697 3053 
L 147 3053 
L 147 3500 
L 697 3500 
L 697 3744 
Q 697 4328 969 4595 
Q 1241 4863 1831 4863 
L 2375 4863 
z
" transform="scale(0.015625)"/>
     </defs>
     <use xlink:href="#DejaVuSans-64"/>
     <use xlink:href="#DejaVuSans-75" transform="translate(63.476562 0)"/>
     <use xlink:href="#DejaVuSans-61" transform="translate(126.855469 0)"/>
     <use xlink:href="#DejaVuSans-6c" transform="translate(188.134766 0)"/>
     <use xlink:href="#DejaVuSans-5f" transform="translate(215.917969 0)"/>
     <use xlink:href="#DejaVuSans-6f" transform="translate(265.917969 0)"/>
     <use xlink:href="#DejaVuSans-6e" transform="translate(327.099609 0)"/>
     <use xlink:href="#DejaVuSans-5f" transform="translate(390.478516 0)"/>
     <use xlink:href="#DejaVuSans-74" transform="translate(440.478516 0)"/>
     <use xlink:href="#DejaVuSans-72" transform="translate(479.6875 0)"/>
     <use xlink:href="#DejaVuSans-75" transform="translate(520.800781 0)"/>
     <use xlink:href="#DejaVuSans-73" transform="translate(584.179688 0)"/>
     <use xlink:href="#DejaVuSans-74" transform="translate(636.279297 0)"/>
     <use xlink:href="#DejaVuSans-5f" transform="translate(675.488281 0)"/>
     <use xlink:href="#DejaVuSans-6f" transform="translate(725.488281 0)"/>
     <use xlink:href="#DejaVuSans-66" transform="translate(786.669922 0)"/>
     <use xlink:href="#DejaVuSans-66" transform="translate(821.875 0)"/>
    </g>
   </g>
   <g id="text_15">
    <!-- dual_off_trust_on -->
    <g style="opacity: 0.8" transform="translate(205.75 141.212) scale(0.08 -0.08)">
     <use xlink:href="#DejaVuSans-64"/>
     <use xlink:href="#DejaVuSans-75" transform="translate(63.476562 0)"/>
     <use xlink:href="#DejaVuSans-61" transform="translate(126.855469 0)"/>
     <use xlink:href="#DejaVuSans-6c" transform="translate(188.134766 0)"/>
     <use xlink:href="#DejaVuSans-5f" transform="translate(215.917969 0)"/>
     <use xlink:href="#DejaVuSans-6f" transform="translate(265.917969 0)"/>
     <use xlink:href="#DejaVuSans-66" transform="translate(327.099609 0)"/>
     <use xlink:href="#DejaVuSans-66" transform="translate(362.304688 0)"/>
     <use xlink:href="#DejaVuSans-5f" transform="translate(397.509766 0)"/>
     <use xlink:href="#DejaVuSans-74" transform="translate(447.509766 0)"/>
     <use xlink:href="#DejaVuSans-72" transform="translate(486.71875 0)"/>
     <use xlink:href="#DejaVuSans-75" transform="translate(527.832031 0)"/>
     <use xlink:href="#DejaVuSans-73" transform="translate(591.210938 0)"/>
     <use xlink:href="#DejaVuSans-74" transform="translate(643.310547 0)"/>
     <use xlink:href="#DejaVuSans-5f" transform="translate(682.519531 0)"/>
     <use xlink:href="#DejaVuSans-6f" transform="translate(732.519531 0)"/>
     <use xlink:href="#DejaVuSans-6e" transform="translate(793.701172 0)"/>
    </g>
   </g>
   <g id="text_16">
    <!-- dual_off_trust_off -->
    <g style="opacity: 0.8" transform="translate(205.75 141.212) scale(0.08 -0.08)">
     <use xlink:href="#DejaVuSans-64"/>
     <use xlink:href="#DejaVuSans-75" transform="translate(63.476562 0)"/>
     <use xlink:href="#DejaVuSans-61" transform="translate(126.855469 0)"/>
     <use xlink:href="#DejaVuSans-6c" transform="translate(188.134766 0)"/>
     <use xlink:href="#DejaVuSans-5f" transform="translate(215.917969 0)"/>
     <use xlink:href="#DejaVuSans-6f" transform="translate(265.917969 0)"/>
     <use xlink:href="#DejaVuSans-66" transform="translate(327.099609 0)"/>
     <use xlink:href="#DejaVuSans-66" transform="translate(362.304688 0)"/>
     <use xlink:href="#DejaVuSans-5f" transform="translate(397.509766 0)"/>
     <use xlink:href="#DejaVuSans-74" transform="translate(447.509766 0)"/>
     <use xlink:href="#DejaVuSans-72" transform="translate(486.71875 0)"/>
     <use xlink:href="#DejaVuSans-75" transform="translate(527.832031 0)"/>
     <use xlink:href="#DejaVuSans-73" transform="translate(591.210938 0)"/>
     <use xlink:href="#DejaVuSans-74" transform="translate(643.310547 0)"/>
     <use xlink:href="#DejaVuSans-5f" transform="translate(682.519531 0)"/>
     <use xlink:href="#DejaVuSans-6f" transform="translate(732.519531 0)"/>
     <use xlink:href="#DejaVuSans-66" transform="translate(793.701172 0)"/>
     <use xlink:href="#DejaVuSans-66" transform="translate(828.90625 0)"/>
    </g>
   </g>
   <g id="text_17">
    <!-- Pareto: Throughput vs violations -->
    <g transform="translate(124.758594 19.186188) scale(0.1 -0.1)">
     <defs>
      <path id="DejaVuSans-50" d="M 1259 4147 
L 1259 2394 
L 2053 2394 
Q 2494 2394 2734 2622 
Q 2975 2850 2975 3272 
Q 2975 3691 2734 3919 
Q 2494 4147 2053 4147 
L 1259 4147 
z
M 628 4666 
L 2053 4666 
Q 2838 4666 3239 4311 
Q 3641 3956 3641 3272 
Q 3641 2581 3239 2228 
Q 2838 1875 2053 1875 
L 1259 1875 
L 1259 0 
L 628 0 
L 628 4666 
z
" transform="scale(0.015625)"/>
      <path id="DejaVuSans-3a" d="M 750 794 
L 1409 794 
L 1409 0 
L 750 0 
L 750 794 
z
M 750 3309 
L 1409 3309 
L 1409 2516 
L 750 2516 
L 750 3309 
z
" transform="scale(0.015625)"/>
      <path id="DejaVuSans-76" d="M 191 3500 
L 800 3500 
L 1894 563 
L 2988 3500 
L 3597 3500 
L 2284 0 
L 1503 0 
L 191 3500 
z
" transform="scale(0.015625)"/>
     </defs>
     <use xlink:href="#DejaVuSans-50"/>
     <use xlink:href="#DejaVuSans-61" transform="translate(55.802734 0)"/>
     <use xlink:href="#DejaVuSans-72" transform="translate(117.082031 0)"/>
     <use xlink:href="#DejaVuSans-65" transform="translate(155.945312 0)"/>
     <use xlink:href="#DejaVuSans-74" transform="translate(217.46875 0)"/>
     <use xlink:href="#DejaVuSans-6f" transform="translate(256.677734 0)"/>
     <use xlink:href="#DejaVuSans-3a" transform="translate(317.859375 0)"/>
     <use xlink:href="#DejaVuSans-20" transform="translate(351.550781 0)"/>
     <use xlink:href="#DejaVuSans-54" transform="translate(383.337891 0)"/>
     <use xlink:href="#DejaVuSans-68" transform="translate(444.421875 0)"/>
     <use xlink:href="#DejaVuSans-72" transform="translate(507.800781 0)"/>
     <use xlink:href="#DejaVuSans-6f" transform="translate(546.664062 0)"/>
     <use xlink:href="#DejaVuSans-75" transform="translate(607.845703 0)"/>
     <use xlink:href="#DejaVuSans-67" transform="translate(671.224609 0)"/>
     <use xlink:href="#DejaVuSans-68" transform="translate(734.701172 0)"/>
     <use xlink:href="#DejaVuSans-70" transform="translate(798.080078 0)"/>
     <use xlink:href="#DejaVuSans-75" transform="translate(861.556641 0)"/>
     <use xlink:href="#DejaVuSans-74" transform="translate(924.935547 0)"/>
     <use xlink:href="#DejaVuSans-20" transform="translate(964.144531 0)"/>
     <use xlink:href="#DejaVuSans-76" transform="translate(995.931641 0)"/>
     <use xlink:href="#DejaVuSans-73" transform="translate(1055.111328 0)"/>
     <use xlink:href="#DejaVuSans-20" transform="translate(1107.210938 0)"/>
     <use xlink:href="#DejaVuSans-76" transform="translate(1138.998047 0)"/>
     <use xlink:href="#DejaVuSans-69" transform="translate(1198.177734 0)"/>
     <use xlink:href="#DejaVuSans-6f" transform="translate(1225.960938 0)"/>
     <use xlink:href="#DejaVuSans-6c" transform="translate(1287.142578 0)"/>
     <use xlink:href="#DejaVuSans-61" transform="translate(1314.925781 0)"/>
     <use xlink:href="#DejaVuSans-74" transform="translate(1376.205078 0)"/>
     <use xlink:href="#DejaVuSans-69" transform="translate(1415.414062 0)"/>
     <use xlink:href="#DejaVuSans-6f" transform="translate(1443.197266 0)"/>
     <use xlink:href="#DejaVuSans-6e" transform="translate(1504.378906 0)"/>
     <use xlink:href="#DejaVuSans-73" transform="translate(1567.757812 0)"/>
    </g>
    <!-- TaskA: 4 conditions, 1 episode(s) per condition -->
    <g transform="translate(89.246094 30.384) scale(0.1 -0.1)">
     <defs>
      <path id="DejaVuSans-6b" d="M 581 4863 
L 1159 4863 
L 1159 1991 
L 2875 3500 
L 3609 3500 
L 1753 1863 
L 3688 0 
L 2938 0 
L 1159 1709 
L 1159 0 
L 581 0 
L 581 4863 
z
" transform="scale(0.015625)"/>
      <path id="DejaVuSans-41" d="M 2188 4044 
L 1331 1722 
L 3047 1722 
L 2188 4044 
z
M 1831 4666 
L 2547 4666 
L 4325 0 
L 3669 0 
L 3244 1197 
L 1141 1197 
L 716 0 
L 50 0 
L 1831 4666 
z
" transform="scale(0.015625)"/>
      <path id="DejaVuSans-63" d="M 3122 3366 
L 3122 2828 
Q 2878 2963 2633 3030 
Q 2388 3097 2138 3097 
Q 1578 3097 1268 2742 
Q 959 2388 959 1747 
Q 959 1106 1268 751 
Q 1578 397 2138 397 
Q 2388 397 2633 464 
Q 2878 531 3122 666 
L 3122 134 
Q 2881 22 2623 -34 
Q 2366 -91 2075 -91 
Q 1284 -91 818 406 
Q 353 903 353 1747 
Q 353 2603 823 3093 
Q 1294 3584 2113 3584 
Q 2378 3584 2631 3529 
Q 2884 3475 3122 3366 
z
" transform="scale(0.015625)"/>
      <path id="DejaVuSans-2c" d="M 750 794 
L 1409 794 
L 1409 256 
L 897 -744 
L 494 -744 
L 750 256 
L 750 794 
z
" transform="scale(0.015625)"/>
      <path id="DejaVuSans-31" d="M 794 531 
L 1825 531 
L 1825 4091 
L 703 3866 
L 703 4441 
L 1819 4666 
L 2450 4666 
L 2450 531 
L 3481 531 
L 3481 0 
L 794 0 
L 794 531 
z
" transform="scale(0.015625)"/>
     </defs>
     <use xlink:href="#DejaVuSans-54"/>
     <use xlink:href="#DejaVuSans-61" transform="translate(44.583984 0)"/>
     <use xlink:href="#DejaVuSans-73" transform="translate(105.863281 0)"/>
     <use xlink:href="#DejaVuSans-6b" transform="translate(157.962891 0)"/>
     <use xlink:href="#DejaVuSans-41" transform="translate(215.873047 0)"/>
     <use xlink:href="#DejaVuSans-3a" transform="translate(282.53125 0)"/>
     <use xlink:href="#DejaVuSans-20" transform="translate(316.222656 0)"/>
     <use xlink:href="#DejaVuSans-34" transform="translate(348.009766 0)"/>
     <use xlink:href="#DejaVuSans-20" transform="translate(411.632812 0)"/>
     <use xlink:href="#DejaVuSans-63" transform="translate(443.419922 0)"/>
     <use xlink:href="#DejaVuSans-6f" transform="translate(498.400391 0)"/>
     <use xlink:href="#DejaVuSans-6e" transform="translate(559.582031 0)"/>
     <use xlink:href="#DejaVuSans-64" transform="translate(622.960938 0)"/>
     <use xlink:href="#DejaVuSans-69" transform="translate(686.4375 0)"/>
     <use xlink:href="#DejaVuSans-74" transform="translate(714.220703 0)"/>
     <use xlink:href="#DejaVuSans-69" transform="translate(753.429688 0)"/>
     <use xlink:href="#DejaVuSans-6f" transform="translate(781.212891 0)"/>
     <use xlink:href="#DejaVuSans-6e" transform="translate(842.394531 0)"/>
     <use xlink:href="#DejaVuSans-73" transform="translate(905.773438 0)"/>
     <use xlink:href="#DejaVuSans-2c" transform="translate(957.873047 0)"/>
     <use xlink:href="#DejaVuSans-20" transform="translate(989.660156 0)"/>
     <use xlink:href="#DejaVuSans-31" transform="translate(1021.447266 0)"/>
     <use xlink:href="#DejaVuSans-20" transform="translate(1085.070312 0)"/>
     <use xlink:href="#DejaVuSans-65" transform="translate(1116.857422 0)"/>
     <use xlink:href="#DejaVuSans-70" transform="translate(1178.380859 0)"/>
     <use xlink:href="#DejaVuSans-69" transform="translate(1241.857422 0)"/>
     <use xlink:href="#DejaVuSans-73" transform="translate(1269.640625 0)"/>
     <use xlink:href="#DejaVuSans-6f" transform="translate(1321.740234 0)"/>
     <use xlink:href="#DejaVuSans-64" transform="translate(1382.921875 0)"/>
     <use xlink:href="#DejaVuSans-65" transform="translate(1446.398438 0)"/>
     <use xlink:href="#DejaVuSans-28" transform="translate(1507.921875 0)"/>
     <use xlink:href="#DejaVuSans-73" transform="translate(1546.935547 0)"/>
     <use xlink:href="#DejaVuSans-29" transform="translate(1599.035156 0)"/>
     <use xlink:href="#DejaVuSans-20" transform="translate(1638.048828 0)"/>
     <use xlink:href="#DejaVuSans-70" transform="translate(1669.835938 0)"/>
     <use xlink:href="#DejaVuSans-65" transform="translate(1733.3125 0)"/>
     <use xlink:href="#DejaVuSans-72" transform="translate(1794.835938 0)"/>
     <use xlink:href="#DejaVuSans-20" transform="translate(1835.949219 0)"/>
     <use xlink:href="#DejaVuSans-63" transform="translate(1867.736328 0)"/>
     <use xlink:href="#DejaVuSans-6f" transform="translate(1922.716797 0)"/>
     <use xlink:href="#DejaVuSans-6e" transform="translate(1983.898438 0)"/>
     <use xlink:href="#DejaVuSans-64" transform="translate(2047.277344 0)"/>
     <use xlink:href="#DejaVuSans-69" transform="translate(2110.753906 0)"/>
     <use xlink:href="#DejaVuSans-74" transform="translate(2138.537109 0)"/>
     <use xlink:href="#DejaVuSans-69" transform="translate(2177.746094 0)"/>
     <use xlink:href="#DejaVuSans-6f" transform="translate(2205.529297 0)"/>
     <use xlink:href="#DejaVuSans-6e" transform="translate(2266.710938 0)"/>
    </g>
   </g>
  </g>
  <g id="text_18">
   <!-- No variation: all points at (0,0). No releases recorded in this run. -->
   <g transform="translate(66.901328 282.24) scale(0.07 -0.07)">
    <defs>
     <path id="DejaVuSans-Oblique-4e" d="M 1081 4666 
L 1931 4666 
L 3219 666 
L 4000 4666 
L 4616 4666 
L 3706 0 
L 2853 0 
L 1569 4025 
L 788 0 
L 172 0 
L 1081 4666 
z
" transform="scale(0.015625)"/>
     <path id="DejaVuSans-Oblique-6f" d="M 1625 -91 
Q 1009 -91 651 289 
Q 294 669 294 1325 
Q 294 1706 417 2101 
Q 541 2497 738 2766 
Q 1047 3184 1428 3384 
Q 1809 3584 2291 3584 
Q 2888 3584 3255 3212 
Q 3622 2841 3622 2241 
Q 3622 1825 3500 1412 
Q 3378 1000 3181 728 
Q 2875 309 2494 109 
Q 2113 -91 1625 -91 
z
M 891 1344 
Q 891 869 1089 633 
Q 1288 397 1691 397 
Q 2269 397 2648 901 
Q 3028 1406 3028 2181 
Q 3028 2634 2825 2865 
Q 2622 3097 2228 3097 
Q 1903 3097 1650 2945 
Q 1397 2794 1197 2484 
Q 1050 2253 970 1956 
Q 891 1659 891 1344 
z
" transform="scale(0.015625)"/>
     <path id="DejaVuSans-Oblique-20" transform="scale(0.015625)"/>
     <path id="DejaVuSans-Oblique-76" d="M 459 3500 
L 1069 3500 
L 1581 525 
L 3256 3500 
L 3866 3500 
L 1875 0 
L 1100 0 
L 459 3500 
z
" transform="scale(0.015625)"/>
     <path id="DejaVuSans-Oblique-61" d="M 3438 1997 
L 3047 0 
L 2472 0 
L 2578 531 
Q 2325 219 2001 64 
Q 1678 -91 1281 -91 
Q 834 -91 548 182 
Q 263 456 263 884 
Q 263 1497 752 1853 
Q 1241 2209 2100 2209 
L 2900 2209 
L 2931 2363 
Q 2938 2388 2941 2417 
Q 2944 2447 2944 2509 
Q 2944 2788 2717 2942 
Q 2491 3097 2081 3097 
Q 1800 3097 1504 3025 
Q 1209 2953 897 2809 
L 997 3341 
Q 1322 3463 1633 3523 
Q 1944 3584 2234 3584 
Q 2853 3584 3176 3315 
Q 3500 3047 3500 2534 
Q 3500 2431 3484 2292 
Q 3469 2153 3438 1997 
z
M 2816 1759 
L 2241 1759 
Q 1534 1759 1195 1570 
Q 856 1381 856 984 
Q 856 709 1029 553 
Q 1203 397 1509 397 
Q 1978 397 2328 733 
Q 2678 1069 2791 1631 
L 2816 1759 
z
" transform="scale(0.015625)"/>
     <path id="DejaVuSans-Oblique-72" d="M 2853 2969 
Q 2766 3016 2653 3041 
Q 2541 3066 2413 3066 
Q 1953 3066 1609 2717 
Q 1266 2369 1153 1784 
L 800 0 
L 225 0 
L 909 3500 
L 1484 3500 
L 1375 2956 
Q 1603 3259 1920 3421 
Q 2238 3584 2597 3584 
Q 2691 3584 2781 3573 
Q 2872 3563 2963 3538 
L 2853 2969 
z
" transform="scale(0.015625)"/>
     <path id="DejaVuSans-Oblique-69" d="M 1172 4863 
L 1747 4863 
L 1606 4134 
L 1031 4134 
L 1172 4863 
z
M 909 3500 
L 1484 3500 
L 800 0 
L 225 0 
L 909 3500 
z
" transform="scale(0.015625)"/>
     <path id="DejaVuSans-Oblique-74" d="M 2706 3500 
L 2619 3053 
L 1472 3053 
L 1100 1153 
Q 1081 1047 1072 975 
Q 1063 903 1063 863 
Q 1063 663 1183 572 
Q 1303 481 1569 481 
L 2150 481 
L 2053 0 
L 1503 0 
Q 991 0 739 200 
Q 488 400 488 806 
Q 488 878 497 964 
Q 506 1050 525 1153 
L 897 3053 
L 409 3053 
L 500 3500 
L 978 3500 
L 1172 4494 
L 1747 4494 
L 1556 3500 
L 2706 3500 
z
" transform="scale(0.015625)"/>
     <path id="DejaVuSans-Oblique-6e" d="M 3566 2113 
L 3156 0 
L 2578 0 
L 2988 2091 
Q 3016 2238 3031 2350 
Q 3047 2463 3047 2528 
Q 3047 2791 2881 2937 
Q 2716 3084 2419 3084 
Q 1956 3084 1622 2776 
Q 1288 2469 1184 1941 
L 800 0 
L 225 0 
L 903 3500 
L 1478 3500 
L 1363 2950 
Q 1603 3253 1940 3418 
Q 2278 3584 2650 3584 
Q 3113 3584 3367 3334 
Q 3622 3084 3622 2631 
Q 3622 2519 3608 2391 
Q 3594 2263 3566 2113 
z
" transform="scale(0.015625)"/>
     <path id="DejaVuSans-Oblique-3a" d="M 978 3309 
L 1638 3309 
L 1484 2516 
L 825 2516 
L 978 3309 
z
M 488 794 
L 1147 794 
L 991 0 
L 331 0 
L 488 794 
z
" transform="scale(0.015625)"/>
     <path id="DejaVuSans-Oblique-6c" d="M 1172 4863 
L 1747 4863 
L 800 0 
L 225 0 
L 1172 4863 
z
" transform="scale(0.015625)"/>
     <path id="DejaVuSans-Oblique-70" d="M 3175 2156 
Q 3175 2616 2975 2859 
Q 2775 3103 2400 3103 
Q 2144 3103 1911 2972 
Q 1678 2841 1497 2591 
Q 1319 2344 1212 1994 
Q 1106 1644 1106 1300 
Q 1106 863 1306 627 
Q 1506 391 1875 391 
Q 2147 391 2380 519 
Q 2613 647 2778 891 
Q 2956 1147 3065 1494 
Q 3175 1841 3175 2156 
z
M 1394 2969 
Q 1625 3272 1939 3428 
Q 2253 3584 2638 3584 
Q 3175 3584 3472 3232 
Q 3769 2881 3769 2247 
Q 3769 1728 3584 1258 
Q 3400 788 3053 416 
Q 2822 169 2531 39 
Q 2241 -91 1919 -91 
Q 1547 -91 1294 64 
Q 1041 219 916 525 
L 556 -1331 
L -19 -1331 
L 922 3500 
L 1497 3500 
L 1394 2969 
z
" transform="scale(0.015625)"/>
     <path id="DejaVuSans-Oblique-73" d="M 3200 3397 
L 3091 2853 
Q 2863 2978 2609 3040 
Q 2356 3103 2088 3103 
Q 1634 3103 1373 2948 
Q 1113 2794 1113 2528 
Q 1113 2219 1719 2053 
Q 1766 2041 1788 2034 
L 1972 1978 
Q 2547 1819 2739 1644 
Q 2931 1469 2931 1166 
Q 2931 609 2489 259 
Q 2047 -91 1331 -91 
Q 1053 -91 747 -37 
Q 441 16 72 128 
L 184 722 
Q 500 559 806 475 
Q 1113 391 1394 391 
Q 1816 391 2080 572 
Q 2344 753 2344 1031 
Q 2344 1331 1650 1516 
L 1591 1531 
L 1394 1581 
Q 956 1697 753 1886 
Q 550 2075 550 2369 
Q 550 2928 970 3256 
Q 1391 3584 2113 3584 
Q 2397 3584 2667 3537 
Q 2938 3491 3200 3397 
z
" transform="scale(0.015625)"/>
     <path id="DejaVuSans-Oblique-28" d="M 2731 4856 
Q 1903 3822 1495 2892 
Q 1088 1963 1088 1100 
Q 1088 606 1206 120 
Q 1325 -366 1563 -844 
L 1063 -844 
Q 775 -306 634 201 
Q 494 709 494 1197 
Q 494 2125 923 3036 
Q 1353 3947 2222 4856 
L 2731 4856 
z
" transform="scale(0.015625)"/>
     <path id="DejaVuSans-Oblique-30" d="M 2444 4750 
Q 3078 4750 3414 4328 
Q 3750 3906 3750 3116 
Q 3750 2516 3592 1923 
Q 3434 1331 3150 863 
Q 2859 394 2467 151 
Q 2075 -91 1600 -91 
Q 988 -91 653 334 
Q 319 759 319 1544 
Q 319 2138 480 2733 
Q 641 3328 928 3794 
Q 1216 4263 1602 4506 
Q 1988 4750 2444 4750 
z
M 2406 4250 
Q 2169 4250 1955 4123 
Q 1741 3997 1569 3750 
Q 1281 3338 1111 2720 
Q 941 2103 941 1453 
Q 941 938 1123 673 
Q 1306 409 1663 409 
Q 1913 409 2125 536 
Q 2338 663 2509 909 
Q 2794 1319 2961 1936 
Q 3128 2553 3128 3206 
Q 3128 3722 2945 3986 
Q 2763 4250 2406 4250 
z
" transform="scale(0.015625)"/>
     <path id="DejaVuSans-Oblique-2c" d="M 575 794 
L 1234 794 
L 1131 256 
L 422 -744 
L 19 -744 
L 469 256 
L 575 794 
z
" transform="scale(0.015625)"/>
     <path id="DejaVuSans-Oblique-29" d="M -397 -844 
Q 434 191 840 1120 
Q 1247 2050 1247 2913 
Q 1247 3406 1130 3892 
Q 1013 4378 775 4856 
L 1275 4856 
Q 1563 4316 1703 3812 
Q 1844 3309 1844 2822 
Q 1844 1891 1411 973 
Q 978 56 116 -844 
L -397 -844 
z
" transform="scale(0.015625)"/>
     <path id="DejaVuSans-Oblique-2e" d="M 525 794 
L 1184 794 
L 1031 0 
L 372 0 
L 525 794 
z
" transform="scale(0.015625)"/>
     <path id="DejaVuSans-Oblique-65" d="M 3078 2063 
Q 3088 2113 3092 2166 
Q 3097 2219 3097 2272 
Q 3097 2653 2873 2875 
Q 2650 3097 2266 3097 
Q 1838 3097 1509 2826 
Q 1181 2556 1013 2059 
L 3078 2063 
z
M 3578 1613 
L 903 1613 
Q 884 1494 878 1425 
Q 872 1356 872 1306 
Q 872 872 1139 634 
Q 1406 397 1894 397 
Q 2269 397 2603 481 
Q 2938 566 3225 728 
L 3116 159 
Q 2806 34 2476 -28 
Q 2147 -91 1806 -91 
Q 1078 -91 686 257 
Q 294 606 294 1247 
Q 294 1794 489 2264 
Q 684 2734 1063 3103 
Q 1306 3334 1642 3459 
Q 1978 3584 2356 3584 
Q 2950 3584 3301 3228 
Q 3653 2872 3653 2272 
Q 3653 2128 3634 1964 
Q 3616 1800 3578 1613 
z
" transform="scale(0.015625)"/>
     <path id="DejaVuSans-Oblique-63" d="M 3431 3366 
L 3316 2797 
Q 3109 2947 2876 3022 
Q 2644 3097 2394 3097 
Q 2119 3097 1870 3000 
Q 1622 2903 1453 2725 
Q 1184 2453 1037 2087 
Q 891 1722 891 1331 
Q 891 859 1127 628 
Q 1363 397 1844 397 
Q 2081 397 2348 469 
Q 2616 541 2906 684 
L 2797 116 
Q 2547 13 2283 -39 
Q 2019 -91 1741 -91 
Q 1044 -91 669 257 
Q 294 606 294 1253 
Q 294 1797 489 2255 
Q 684 2713 1069 3078 
Q 1331 3328 1684 3456 
Q 2038 3584 2456 3584 
Q 2700 3584 2940 3529 
Q 3181 3475 3431 3366 
z
" transform="scale(0.015625)"/>
     <path id="DejaVuSans-Oblique-64" d="M 2675 525 
Q 2444 222 2128 65 
Q 1813 -91 1428 -91 
Q 903 -91 598 267 
Q 294 625 294 1247 
Q 294 1766 478 2236 
Q 663 2706 1013 3078 
Q 1244 3325 1534 3454 
Q 1825 3584 2144 3584 
Q 2481 3584 2739 3421 
Q 2997 3259 3138 2956 
L 3513 4863 
L 4091 4863 
L 3144 0 
L 2566 0 
L 2675 525 
z
M 891 1350 
Q 891 897 1095 644 
Q 1300 391 1663 391 
Q 1931 391 2161 520 
Q 2391 650 2566 903 
Q 2750 1166 2856 1509 
Q 2963 1853 2963 2188 
Q 2963 2622 2758 2865 
Q 2553 3109 2194 3109 
Q 1922 3109 1687 2981 
Q 1453 2853 1288 2613 
Q 1106 2353 998 2009 
Q 891 1666 891 1350 
z
" transform="scale(0.015625)"/>
     <path id="DejaVuSans-Oblique-68" d="M 3566 2113 
L 3156 0 
L 2578 0 
L 2988 2091 
Q 3016 2238 3031 2350 
Q 3047 2463 3047 2528 
Q 3047 2791 2881 2937 
Q 2716 3084 2419 3084 
Q 1956 3084 1617 2771 
Q 1278 2459 1178 1941 
L 800 0 
L 225 0 
L 1172 4863 
L 1747 4863 
L 1375 2950 
Q 1594 3244 1934 3414 
Q 2275 3584 2650 3584 
Q 3113 3584 3367 3334 
Q 3622 3084 3622 2631 
Q 3622 2519 3608 2391 
Q 3594 2263 3566 2113 
z
" transform="scale(0.015625)"/>
     <path id="DejaVuSans-Oblique-75" d="M 428 1388 
L 838 3500 
L 1416 3500 
L 1006 1409 
Q 975 1256 961 1147 
Q 947 1038 947 966 
Q 947 700 1109 554 
Q 1272 409 1569 409 
Q 2031 409 2368 721 
Q 2706 1034 2809 1563 
L 3194 3500 
L 3769 3500 
L 3091 0 
L 2516 0 
L 2631 550 
Q 2388 244 2052 76 
Q 1716 -91 1338 -91 
Q 878 -91 622 161 
Q 366 413 366 863 
Q 366 956 381 1097 
Q 397 1238 428 1388 
z
" transform="scale(0.015625)"/>
    </defs>
    <use xlink:href="#DejaVuSans-Oblique-4e"/>
    <use xlink:href="#DejaVuSans-Oblique-6f" transform="translate(74.804688 0)"/>
    <use xlink:href="#DejaVuSans-Oblique-20" transform="translate(135.986328 0)"/>
    <use xlink:href="#DejaVuSans-Oblique-76" transform="translate(167.773438 0)"/>
    <use xlink:href="#DejaVuSans-Oblique-61" transform="translate(226.953125 0)"/>
    <use xlink:href="#DejaVuSans-Oblique-72" transform="translate(288.232422 0)"/>
    <use xlink:href="#DejaVuSans-Oblique-69" transform="translate(329.345703 0)"/>
    <use xlink:href="#DejaVuSans-Oblique-61" transform="translate(357.128906 0)"/>
    <use xlink:href="#DejaVuSans-Oblique-74" transform="translate(418.408203 0)"/>
    <use xlink:href="#DejaVuSans-Oblique-69" transform="translate(457.617188 0)"/>
    <use xlink:href="#DejaVuSans-Oblique-6f" transform="translate(485.400391 0)"/>
    <use xlink:href="#DejaVuSans-Oblique-6e" transform="translate(546.582031 0)"/>
    <use xlink:href="#DejaVuSans-Oblique-3a" transform="translate(609.960938 0)"/>
    <use xlink:href="#DejaVuSans-Oblique-20" transform="translate(643.652344 0)"/>
    <use xlink:href="#DejaVuSans-Oblique-61" transform="translate(675.439453 0)"/>
    <use xlink:href="#DejaVuSans-Oblique-6c" transform="translate(736.71875 0)"/>
    <use xlink:href="#DejaVuSans-Oblique-6c" transform="translate(764.501953 0)"/>
    <use xlink:href="#DejaVuSans-Oblique-20" transform="translate(792.285156 0)"/>
    <use xlink:href="#DejaVuSans-Oblique-70" transform="translate(824.072266 0)"/>
    <use xlink:href="#DejaVuSans-Oblique-6f" transform="translate(887.548828 0)"/>
    <use xlink:href="#DejaVuSans-Oblique-69" transform="translate(948.730469 0)"/>
    <use xlink:href="#DejaVuSans-Oblique-6e" transform="translate(976.513672 0)"/>
    <use xlink:href="#DejaVuSans-Oblique-74" transform="translate(1039.892578 0)"/>
    <use xlink:href="#DejaVuSans-Oblique-73" transform="translate(1079.101562 0)"/>
    <use xlink:href="#DejaVuSans-Oblique-20" transform="translate(1131.201172 0)"/>
    <use xlink:href="#DejaVuSans-Oblique-61" transform="translate(1162.988281 0)"/>
    <use xlink:href="#DejaVuSans-Oblique-74" transform="translate(1224.267578 0)"/>
    <use xlink:href="#DejaVuSans-Oblique-20" transform="translate(1263.476562 0)"/>
    <use xlink:href="#DejaVuSans-Oblique-28" transform="translate(1295.263672 0)"/>
    <use xlink:href="#DejaVuSans-Oblique-30" transform="translate(1334.277344 0)"/>
    <use xlink:href="#DejaVuSans-Oblique-2c" transform="translate(1397.900391 0)"/>
    <use xlink:href="#DejaVuSans-Oblique-30" transform="translate(1429.6875 0)"/>
    <use xlink:href="#DejaVuSans-Oblique-29" transform="translate(1493.310547 0)"/>
    <use xlink:href="#DejaVuSans-Oblique-2e" transform="translate(1532.324219 0)"/>
    <use xlink:href="#DejaVuSans-Oblique-20" transform="translate(1564.111328 0)"/>
    <use xlink:href="#DejaVuSans-Oblique-4e" transform="translate(1595.898438 0)"/>
    <use xlink:href="#DejaVuSans-Oblique-6f" transform="translate(1670.703125 0)"/>
    <use xlink:href="#DejaVuSans-Oblique-20" transform="translate(1731.884766 0)"/>
    <use xlink:href="#DejaVuSans-Oblique-72" transform="translate(1763.671875 0)"/>
    <use xlink:href="#DejaVuSans-Oblique-65" transform="translate(1804.785156 0)"/>
    <use xlink:href="#DejaVuSans-Oblique-6c" transform="translate(1866.308594 0)"/>
    <use xlink:href="#DejaVuSans-Oblique-65" transform="translate(1894.091797 0)"/>
    <use xlink:href="#DejaVuSans-Oblique-61" transform="translate(1955.615234 0)"/>
    <use xlink:href="#DejaVuSans-Oblique-73" transform="translate(2016.894531 0)"/>
    <use xlink:href="#DejaVuSans-Oblique-65" transform="translate(2068.994141 0)"/>
    <use xlink:href="#DejaVuSans-Oblique-73" transform="translate(2130.517578 0)"/>
    <use xlink:href="#DejaVuSans-Oblique-20" transform="translate(2182.617188 0)"/>
    <use xlink:href="#DejaVuSans-Oblique-72" transform="translate(2214.404297 0)"/>
    <use xlink:href="#DejaVuSans-Oblique-65" transform="translate(2255.517578 0)"/>
    <use xlink:href="#DejaVuSans-Oblique-63" transform="translate(2317.041016 0)"/>
    <use xlink:href="#DejaVuSans-Oblique-6f" transform="translate(2372.021484 0)"/>
    <use xlink:href="#DejaVuSans-Oblique-72" transform="translate(2433.203125 0)"/>
    <use xlink:href="#DejaVuSans-Oblique-64" transform="translate(2474.316406 0)"/>
    <use xlink:href="#DejaVuSans-Oblique-65" transform="translate(2537.792969 0)"/>
    <use xlink:href="#DejaVuSans-Oblique-64" transform="translate(2599.316406 0)"/>
    <use xlink:href="#DejaVuSans-Oblique-20" transform="translate(2662.792969 0)"/>
    <use xlink:href="#DejaVuSans-Oblique-69" transform="translate(2694.580078 0)"/>
    <use xlink:href="#DejaVuSans-Oblique-6e" transform="translate(2722.363281 0)"/>
    <use xlink:href="#DejaVuSans-Oblique-20" transform="translate(2785.742188 0)"/>
    <use xlink:href="#DejaVuSans-Oblique-74" transform="translate(2817.529297 0)"/>
    <use xlink:href="#DejaVuSans-Oblique-68" transform="translate(2856.738281 0)"/>
    <use xlink:href="#DejaVuSans-Oblique-69" transform="translate(2920.117188 0)"/>
    <use xlink:href="#DejaVuSans-Oblique-73" transform="translate(2947.900391 0)"/>
    <use xlink:href="#DejaVuSans-Oblique-20" transform="translate(3000 0)"/>
    <use xlink:href="#DejaVuSans-Oblique-72" transform="translate(3031.787109 0)"/>
    <use xlink:href="#DejaVuSans-Oblique-75" transform="translate(3072.900391 0)"/>
    <use xlink:href="#DejaVuSans-Oblique-6e" transform="translate(3136.279297 0)"/>
    <use xlink:href="#DejaVuSans-Oblique-2e" transform="translate(3199.658203 0)"/>
   </g>
  </g>
 </g>
 <defs>
  <clipPath id="p1eb99b4dd4">
   <rect x="62.3" y="36.384" width="286.9" height="209.656"/>
  </clipPath>
 </defs>
</svg>
