<?xml version="1.0" encoding="utf-8" standalone="no"?>
<!DOCTYPE svg PUBLIC "-//W3C//DTD SVG 1.1//EN"
  "http://www.w3.org/Graphics/SVG/1.1/DTD/svg11.dtd">
<svg xmlns:xlink="http://www.w3.org/1999/xlink" width="396pt" height="302.4pt" viewBox="0 0 396 302.4" xmlns="http://www.w3.org/2000/svg" version="1.1">
 <metadata>
  <rdf:RDF xmlns:dc="http://purl.org/dc/elements/1.1/" xmlns:cc="http://creativecommons.org/ns#" xmlns:rdf="http://www.w3.org/1999/02/22-rdf-syntax-ns#">
   <cc:Work>
    <dc:type rdf:resource="http://purl.org/dc/dcmitype/StillImage"/>
    <dc:date>2026-03-04T15:33:45.503702</dc:date>
    <dc:format>image/svg+xml</dc:format>
    <dc:creator>
     <cc:Agent>
      <dc:title>Matplotlib v3.10.8, https://matplotlib.org/</dc:title>
     </cc:Agent>
    </dc:creator>
   </cc:Work>
  </rdf:RDF>
 </metadata>
 <defs>
  <style type="text/css">*{stroke-linejoin: round; stroke-linecap: butt}</style>
 </defs>
 <g id="figure_1">
  <g id="patch_1">
   <path d="M 0 302.4 
L 396 302.4 
L 396 0 
L 0 0 
z
" style="fill: #ffffff"/>
  </g>
  <g id="axes_1">
   <g id="patch_2">
    <path d="M 59.51 261.16 
L 385.2 261.16 
L 385.2 36.384 
L 59.51 36.384 
z
" style="fill: #fafafa"/>
   </g>
   <g id="matplotlib.axis_1">
    <g id="xtick_1">
     <g id="line2d_1">
      <path d="M 103.922273 261.16 
L 103.922273 36.384 
" clip-path="url(#p2ecfccad39)" style="fill: none; stroke: #cccccc; stroke-opacity: 0.28; stroke-width: 0.8; stroke-linecap: square"/>
     </g>
     <g id="line2d_2">
      <defs>
       <path id="mcf32197b97" d="M 0 0 
L 0 3.5 
" style="stroke: #333333; stroke-width: 0.8"/>
      </defs>
      <g>
       <use xlink:href="#mcf32197b97" x="103.922273" y="261.16" style="fill: #333333; stroke: #333333; stroke-width: 0.8"/>
      </g>
     </g>
     <g id="text_1">
      <!-- −0.04 -->
      <g style="fill: #333333" transform="translate(90.131882 274.998594) scale(0.09 -0.09)">
       <defs>
        <path id="DejaVuSans-2212" d="M 678 2272 
L 4684 2272 
L 4684 1741 
L 678 1741 
L 678 2272 
z
" transform="scale(0.015625)"/>
        <path id="DejaVuSans-30" d="M 2034 4250 
Q 1547 4250 1301 3770 
Q 1056 3291 1056 2328 
Q 1056 1369 1301 889 
Q 1547 409 2034 409 
Q 2525 409 2770 889 
Q 3016 1369 3016 2328 
Q 3016 3291 2770 3770 
Q 2525 4250 2034 4250 
z
M 2034 4750 
Q 2819 4750 3233 4129 
Q 3647 3509 3647 2328 
Q 3647 1150 3233 529 
Q 2819 -91 2034 -91 
Q 1250 -91 836 529 
Q 422 1150 422 2328 
Q 422 3509 836 4129 
Q 1250 4750 2034 4750 
z
" transform="scale(0.015625)"/>
        <path id="DejaVuSans-2e" d="M 684 794 
L 1344 794 
L 1344 0 
L 684 0 
L 684 794 
z
" transform="scale(0.015625)"/>
        <path id="DejaVuSans-34" d="M 2419 4116 
L 825 1625 
L 2419 1625 
L 2419 4116 
z
M 2253 4666 
L 3047 4666 
L 3047 1625 
L 3713 1625 
L 3713 1100 
L 3047 1100 
L 3047 0 
L 2419 0 
L 2419 1100 
L 313 1100 
L 313 1709 
L 2253 4666 
z
" transform="scale(0.015625)"/>
       </defs>
       <use xlink:href="#DejaVuSans-2212"/>
       <use xlink:href="#DejaVuSans-30" transform="translate(83.789062 0)"/>
       <use xlink:href="#DejaVuSans-2e" transform="translate(147.412109 0)"/>
       <use xlink:href="#DejaVuSans-30" transform="translate(179.199219 0)"/>
       <use xlink:href="#DejaVuSans-34" transform="translate(242.822266 0)"/>
      </g>
     </g>
    </g>
    <g id="xtick_2">
     <g id="line2d_3">
      <path d="M 163.138636 261.16 
L 163.138636 36.384 
" clip-path="url(#p2ecfccad39)" style="fill: none; stroke: #cccccc; stroke-opacity: 0.28; stroke-width: 0.8; stroke-linecap: square"/>
     </g>
     <g id="line2d_4">
      <g>
       <use xlink:href="#mcf32197b97" x="163.138636" y="261.16" style="fill: #333333; stroke: #333333; stroke-width: 0.8"/>
      </g>
     </g>
     <g id="text_2">
      <!-- −0.02 -->
      <g style="fill: #333333" transform="translate(149.348246 274.998594) scale(0.09 -0.09)">
       <defs>
        <path id="DejaVuSans-32" d="M 1228 531 
L 3431 531 
L 3431 0 
L 469 0 
L 469 531 
Q 828 903 1448 1529 
Q 2069 2156 2228 2338 
Q 2531 2678 2651 2914 
Q 2772 3150 2772 3378 
Q 2772 3750 2511 3984 
Q 2250 4219 1831 4219 
Q 1534 4219 1204 4116 
Q 875 4013 500 3803 
L 500 4441 
Q 881 4594 1212 4672 
Q 1544 4750 1819 4750 
Q 2544 4750 2975 4387 
Q 3406 4025 3406 3419 
Q 3406 3131 3298 2873 
Q 3191 2616 2906 2266 
Q 2828 2175 2409 1742 
Q 1991 1309 1228 531 
z
" transform="scale(0.015625)"/>
       </defs>
       <use xlink:href="#DejaVuSans-2212"/>
       <use xlink:href="#DejaVuSans-30" transform="translate(83.789062 0)"/>
       <use xlink:href="#DejaVuSans-2e" transform="translate(147.412109 0)"/>
       <use xlink:href="#DejaVuSans-30" transform="translate(179.199219 0)"/>
       <use xlink:href="#DejaVuSans-32" transform="translate(242.822266 0)"/>
      </g>
     </g>
    </g>
    <g id="xtick_3">
     <g id="line2d_5">
      <path d="M 222.355 261.16 
L 222.355 36.384 
" clip-path="url(#p2ecfccad39)" style="fill: none; stroke: #cccccc; stroke-opacity: 0.28; stroke-width: 0.8; stroke-linecap: square"/>
     </g>
     <g id="line2d_6">
      <g>
       <use xlink:href="#mcf32197b97" x="222.355" y="261.16" style="fill: #333333; stroke: #333333; stroke-width: 0.8"/>
      </g>
     </g>
     <g id="text_3">
      <!-- 0.00 -->
      <g style="fill: #333333" transform="translate(212.335469 274.998594) scale(0.09 -0.09)">
       <use xlink:href="#DejaVuSans-30"/>
       <use xlink:href="#DejaVuSans-2e" transform="translate(63.623047 0)"/>
       <use xlink:href="#DejaVuSans-30" transform="translate(95.410156 0)"/>
       <use xlink:href="#DejaVuSans-30" transform="translate(159.033203 0)"/>
      </g>
     </g>
    </g>
    <g id="xtick_4">
     <g id="line2d_7">
      <path d="M 281.571364 261.16 
L 281.571364 36.384 
" clip-path="url(#p2ecfccad39)" style="fill: none; stroke: #cccccc; stroke-opacity: 0.28; stroke-width: 0.8; stroke-linecap: square"/>
     </g>
     <g id="line2d_8">
      <g>
       <use xlink:href="#mcf32197b97" x="281.571364" y="261.16" style="fill: #333333; stroke: #333333; stroke-width: 0.8"/>
      </g>
     </g>
     <g id="text_4">
      <!-- 0.02 -->
      <g style="fill: #333333" transform="translate(271.551832 274.998594) scale(0.09 -0.09)">
       <use xlink:href="#DejaVuSans-30"/>
       <use xlink:href="#DejaVuSans-2e" transform="translate(63.623047 0)"/>
       <use xlink:href="#DejaVuSans-30" transform="translate(95.410156 0)"/>
       <use xlink:href="#DejaVuSans-32" transform="translate(159.033203 0)"/>
      </g>
     </g>
    </g>
    <g id="xtick_5">
     <g id="line2d_9">
      <path d="M 340.787727 261.16 
L 340.787727 36.384 
" clip-path="url(#p2ecfccad39)" style="fill: none; stroke: #cccccc; stroke-opacity: 0.28; stroke-width: 0.8; stroke-linecap: square"/>
     </g>
     <g id="line2d_10">
      <g>
       <use xlink:href="#mcf32197b97" x="340.787727" y="261.16" style="fill: #333333; stroke: #333333; stroke-width: 0.8"/>
      </g>
     </g>
     <g id="text_5">
      <!-- 0.04 -->
      <g style="fill: #333333" transform="translate(330.768196 274.998594) scale(0.09 -0.09)">
       <use xlink:href="#DejaVuSans-30"/>
       <use xlink:href="#DejaVuSans-2e" transform="translate(63.623047 0)"/>
       <use xlink:href="#DejaVuSans-30" transform="translate(95.410156 0)"/>
       <use xlink:href="#DejaVuSans-34" transform="translate(159.033203 0)"/>
      </g>
     </g>
    </g>
    <g id="text_6">
     <!-- p95 TAT (s) -->
     <g style="fill: #111111" transform="translate(194.380781 288.46875) scale(0.1 -0.1)">
      <defs>
       <path id="DejaVuSans-70" d="M 1159 525 
L 1159 -1331 
L 581 -1331 
L 581 3500 
L 1159 3500 
L 1159 2969 
Q 1341 3281 1617 3432 
Q 1894 3584 2278 3584 
Q 2916 3584 3314 3078 
Q 3713 2572 3713 1747 
Q 3713 922 3314 415 
Q 2916 -91 2278 -91 
Q 1894 -91 1617 61 
Q 1341 213 1159 525 
z
M 3116 1747 
Q 3116 2381 2855 2742 
Q 2594 3103 2138 3103 
Q 1681 3103 1420 2742 
Q 1159 2381 1159 1747 
Q 1159 1113 1420 752 
Q 1681 391 2138 391 
Q 2594 391 2855 752 
Q 3116 1113 3116 1747 
z
" transform="scale(0.015625)"/>
       <path id="DejaVuSans-39" d="M 703 97 
L 703 672 
Q 941 559 1184 500 
Q 1428 441 1663 441 
Q 2288 441 2617 861 
Q 2947 1281 2994 2138 
Q 2813 1869 2534 1725 
Q 2256 1581 1919 1581 
Q 1219 1581 811 2004 
Q 403 2428 403 3163 
Q 403 3881 828 4315 
Q 1253 4750 1959 4750 
Q 2769 4750 3195 4129 
Q 3622 3509 3622 2328 
Q 3622 1225 3098 567 
Q 2575 -91 1691 -91 
Q 1453 -91 1209 -44 
Q 966 3 703 97 
z
M 1959 2075 
Q 2384 2075 2632 2365 
Q 2881 2656 2881 3163 
Q 2881 3666 2632 3958 
Q 2384 4250 1959 4250 
Q 1534 4250 1286 3958 
Q 1038 3666 1038 3163 
Q 1038 2656 1286 2365 
Q 1534 2075 1959 2075 
z
" transform="scale(0.015625)"/>
       <path id="DejaVuSans-35" d="M 691 4666 
L 3169 4666 
L 3169 4134 
L 1269 4134 
L 1269 2991 
Q 1406 3038 1543 3061 
Q 1681 3084 1819 3084 
Q 2600 3084 3056 2656 
Q 3513 2228 3513 1497 
Q 3513 744 3044 326 
Q 2575 -91 1722 -91 
Q 1428 -91 1123 -41 
Q 819 9 494 109 
L 494 744 
Q 775 591 1075 516 
Q 1375 441 1709 441 
Q 2250 441 2565 725 
Q 2881 1009 2881 1497 
Q 2881 1984 2565 2268 
Q 2250 2553 1709 2553 
Q 1456 2553 1204 2497 
Q 953 2441 691 2322 
L 691 4666 
z
" transform="scale(0.015625)"/>
       <path id="DejaVuSans-20" transform="scale(0.015625)"/>
       <path id="DejaVuSans-54" d="M -19 4666 
L 3928 4666 
L 3928 4134 
L 2272 4134 
L 2272 0 
L 1638 0 
L 1638 4134 
L -19 4134 
L -19 4666 
z
" transform="scale(0.015625)"/>
       <path id="DejaVuSans-41" d="M 2188 4044 
L 1331 1722 
L 3047 1722 
L 2188 4044 
z
M 1831 4666 
L 2547 4666 
L 4325 0 
L 3669 0 
L 3244 1197 
L 1141 1197 
L 716 0 
L 50 0 
L 1831 4666 
z
" transform="scale(0.015625)"/>
       <path id="DejaVuSans-28" d="M 1984 4856 
Q 1566 4138 1362 3434 
Q 1159 2731 1159 2009 
Q 1159 1288 1364 580 
Q 1569 -128 1984 -844 
L 1484 -844 
Q 1016 -109 783 600 
Q 550 1309 550 2009 
Q 550 2706 781 3412 
Q 1013 4119 1484 4856 
L 1984 4856 
z
" transform="scale(0.015625)"/>
       <path id="DejaVuSans-73" d="M 2834 3397 
L 2834 2853 
Q 2591 2978 2328 3040 
Q 2066 3103 1784 3103 
Q 1356 3103 1142 2972 
Q 928 2841 928 2578 
Q 928 2378 1081 2264 
Q 1234 2150 1697 2047 
L 1894 2003 
Q 2506 1872 2764 1633 
Q 3022 1394 3022 966 
Q 3022 478 2636 193 
Q 2250 -91 1575 -91 
Q 1294 -91 989 -36 
Q 684 19 347 128 
L 347 722 
Q 666 556 975 473 
Q 1284 391 1588 391 
Q 1994 391 2212 530 
Q 2431 669 2431 922 
Q 2431 1156 2273 1281 
Q 2116 1406 1581 1522 
L 1381 1569 
Q 847 1681 609 1914 
Q 372 2147 372 2553 
Q 372 3047 722 3315 
Q 1072 3584 1716 3584 
Q 2034 3584 2315 3537 
Q 2597 3491 2834 3397 
z
" transform="scale(0.015625)"/>
       <path id="DejaVuSans-29" d="M 513 4856 
L 1013 4856 
Q 1481 4119 1714 3412 
Q 1947 2706 1947 2009 
Q 1947 1309 1714 600 
Q 1481 -109 1013 -844 
L 513 -844 
Q 928 -128 1133 580 
Q 1338 1288 1338 2009 
Q 1338 2731 1133 3434 
Q 928 4138 513 4856 
z
" transform="scale(0.015625)"/>
      </defs>
      <use xlink:href="#DejaVuSans-70"/>
      <use xlink:href="#DejaVuSans-39" transform="translate(63.476562 0)"/>
      <use xlink:href="#DejaVuSans-35" transform="translate(127.099609 0)"/>
      <use xlink:href="#DejaVuSans-20" transform="translate(190.722656 0)"/>
      <use xlink:href="#DejaVuSans-54" transform="translate(222.509766 0)"/>
      <use xlink:href="#DejaVuSans-41" transform="translate(275.84375 0)"/>
      <use xlink:href="#DejaVuSans-54" transform="translate(336.501953 0)"/>
      <use xlink:href="#DejaVuSans-20" transform="translate(397.585938 0)"/>
      <use xlink:href="#DejaVuSans-28" transform="translate(429.373047 0)"/>
      <use xlink:href="#DejaVuSans-73" transform="translate(468.386719 0)"/>
      <use xlink:href="#DejaVuSans-29" transform="translate(520.486328 0)"/>
     </g>
    </g>
   </g>
   <g id="matplotlib.axis_2">
    <g id="ytick_1">
     <g id="line2d_11">
      <path d="M 59.51 230.508727 
L 385.2 230.508727 
" clip-path="url(#p2ecfccad39)" style="fill: none; stroke: #cccccc; stroke-opacity: 0.28; stroke-width: 0.8; stroke-linecap: square"/>
     </g>
     <g id="line2d_12">
      <defs>
       <path id="m33c18bcafe" d="M 0 0 
L -3.5 0 
" style="stroke: #333333; stroke-width: 0.8"/>
      </defs>
      <g>
       <use xlink:href="#m33c18bcafe" x="59.51" y="230.508727" style="fill: #333333; stroke: #333333; stroke-width: 0.8"/>
      </g>
     </g>
     <g id="text_7">
      <!-- −0.04 -->
      <g style="fill: #333333" transform="translate(24.929219 233.928024) scale(0.09 -0.09)">
       <use xlink:href="#DejaVuSans-2212"/>
       <use xlink:href="#DejaVuSans-30" transform="translate(83.789062 0)"/>
       <use xlink:href="#DejaVuSans-2e" transform="translate(147.412109 0)"/>
       <use xlink:href="#DejaVuSans-30" transform="translate(179.199219 0)"/>
       <use xlink:href="#DejaVuSans-34" transform="translate(242.822266 0)"/>
      </g>
     </g>
    </g>
    <g id="ytick_2">
     <g id="line2d_13">
      <path d="M 59.51 189.640364 
L 385.2 189.640364 
" clip-path="url(#p2ecfccad39)" style="fill: none; stroke: #cccccc; stroke-opacity: 0.28; stroke-width: 0.8; stroke-linecap: square"/>
     </g>
     <g id="line2d_14">
      <g>
       <use xlink:href="#m33c18bcafe" x="59.51" y="189.640364" style="fill: #333333; stroke: #333333; stroke-width: 0.8"/>
      </g>
     </g>
     <g id="text_8">
      <!-- −0.02 -->
      <g style="fill: #333333" transform="translate(24.929219 193.059661) scale(0.09 -0.09)">
       <use xlink:href="#DejaVuSans-2212"/>
       <use xlink:href="#DejaVuSans-30" transform="translate(83.789062 0)"/>
       <use xlink:href="#DejaVuSans-2e" transform="translate(147.412109 0)"/>
       <use xlink:href="#DejaVuSans-30" transform="translate(179.199219 0)"/>
       <use xlink:href="#DejaVuSans-32" transform="translate(242.822266 0)"/>
      </g>
     </g>
    </g>
    <g id="ytick_3">
     <g id="line2d_15">
      <path d="M 59.51 148.772 
L 385.2 148.772 
" clip-path="url(#p2ecfccad39)" style="fill: none; stroke: #cccccc; stroke-opacity: 0.28; stroke-width: 0.8; stroke-linecap: square"/>
     </g>
     <g id="line2d_16">
      <g>
       <use xlink:href="#m33c18bcafe" x="59.51" y="148.772" style="fill: #333333; stroke: #333333; stroke-width: 0.8"/>
      </g>
     </g>
     <g id="text_9">
      <!-- 0.00 -->
      <g style="fill: #333333" transform="translate(32.470938 152.191297) scale(0.09 -0.09)">
       <use xlink:href="#DejaVuSans-30"/>
       <use xlink:href="#DejaVuSans-2e" transform="translate(63.623047 0)"/>
       <use xlink:href="#DejaVuSans-30" transform="translate(95.410156 0)"/>
       <use xlink:href="#DejaVuSans-30" transform="translate(159.033203 0)"/>
      </g>
     </g>
    </g>
    <g id="ytick_4">
     <g id="line2d_17">
      <path d="M 59.51 107.903636 
L 385.2 107.903636 
" clip-path="url(#p2ecfccad39)" style="fill: none; stroke: #cccccc; stroke-opacity: 0.28; stroke-width: 0.8; stroke-linecap: square"/>
     </g>
     <g id="line2d_18">
      <g>
       <use xlink:href="#m33c18bcafe" x="59.51" y="107.903636" style="fill: #333333; stroke: #333333; stroke-width: 0.8"/>
      </g>
     </g>
     <g id="text_10">
      <!-- 0.02 -->
      <g style="fill: #333333" transform="translate(32.470938 111.322933) scale(0.09 -0.09)">
       <use xlink:href="#DejaVuSans-30"/>
       <use xlink:href="#DejaVuSans-2e" transform="translate(63.623047 0)"/>
       <use xlink:href="#DejaVuSans-30" transform="translate(95.410156 0)"/>
       <use xlink:href="#DejaVuSans-32" transform="translate(159.033203 0)"/>
      </g>
     </g>
    </g>
    <g id="ytick_5">
     <g id="line2d_19">
      <path d="M 59.51 67.035273 
L 385.2 67.035273 
" clip-path="url(#p2ecfccad39)" style="fill: none; stroke: #cccccc; stroke-opacity: 0.28; stroke-width: 0.8; stroke-linecap: square"/>
     </g>
     <g id="line2d_20">
      <g>
       <use xlink:href="#m33c18bcafe" x="59.51" y="67.035273" style="fill: #333333; stroke: #333333; stroke-width: 0.8"/>
      </g>
     </g>
     <g id="text_11">
      <!-- 0.04 -->
      <g style="fill: #333333" transform="translate(32.470938 70.45457) scale(0.09 -0.09)">
       <use xlink:href="#DejaVuSans-30"/>
       <use xlink:href="#DejaVuSans-2e" transform="translate(63.623047 0)"/>
       <use xlink:href="#DejaVuSans-30" transform="translate(95.410156 0)"/>
       <use xlink:href="#DejaVuSans-34" transform="translate(159.033203 0)"/>
      </g>
     </g>
    </g>
    <g id="text_12">
     <!-- Trust cost (tokens consumed + minted, mean) -->
     <g style="fill: #111111" transform="translate(18.849531 264.739969) rotate(-90) scale(0.1 -0.1)">
      <defs>
       <path id="DejaVuSans-72" d="M 2631 2963 
Q 2534 3019 2420 3045 
Q 2306 3072 2169 3072 
Q 1681 3072 1420 2755 
Q 1159 2438 1159 1844 
L 1159 0 
L 581 0 
L 581 3500 
L 1159 3500 
L 1159 2956 
Q 1341 3275 1631 3429 
Q 1922 3584 2338 3584 
Q 2397 3584 2469 3576 
Q 2541 3569 2628 3553 
L 2631 2963 
z
" transform="scale(0.015625)"/>
       <path id="DejaVuSans-75" d="M 544 1381 
L 544 3500 
L 1119 3500 
L 1119 1403 
Q 1119 906 1312 657 
Q 1506 409 1894 409 
Q 2359 409 2629 706 
Q 2900 1003 2900 1516 
L 2900 3500 
L 3475 3500 
L 3475 0 
L 2900 0 
L 2900 538 
Q 2691 219 2414 64 
Q 2138 -91 1772 -91 
Q 1169 -91 856 284 
Q 544 659 544 1381 
z
M 1991 3584 
L 1991 3584 
z
" transform="scale(0.015625)"/>
       <path id="DejaVuSans-74" d="M 1172 4494 
L 1172 3500 
L 2356 3500 
L 2356 3053 
L 1172 3053 
L 1172 1153 
Q 1172 725 1289 603 
Q 1406 481 1766 481 
L 2356 481 
L 2356 0 
L 1766 0 
Q 1100 0 847 248 
Q 594 497 594 1153 
L 594 3053 
L 172 3053 
L 172 3500 
L 594 3500 
L 594 4494 
L 1172 4494 
z
" transform="scale(0.015625)"/>
       <path id="DejaVuSans-63" d="M 3122 3366 
L 3122 2828 
Q 2878 2963 2633 3030 
Q 2388 3097 2138 3097 
Q 1578 3097 1268 2742 
Q 959 2388 959 1747 
Q 959 1106 1268 751 
Q 1578 397 2138 397 
Q 2388 397 2633 464 
Q 2878 531 3122 666 
L 3122 134 
Q 2881 22 2623 -34 
Q 2366 -91 2075 -91 
Q 1284 -91 818 406 
Q 353 903 353 1747 
Q 353 2603 823 3093 
Q 1294 3584 2113 3584 
Q 2378 3584 2631 3529 
Q 2884 3475 3122 3366 
z
" transform="scale(0.015625)"/>
       <path id="DejaVuSans-6f" d="M 1959 3097 
Q 1497 3097 1228 2736 
Q 959 2375 959 1747 
Q 959 1119 1226 758 
Q 1494 397 1959 397 
Q 2419 397 2687 759 
Q 2956 1122 2956 1747 
Q 2956 2369 2687 2733 
Q 2419 3097 1959 3097 
z
M 1959 3584 
Q 2709 3584 3137 3096 
Q 3566 2609 3566 1747 
Q 3566 888 3137 398 
Q 2709 -91 1959 -91 
Q 1206 -91 779 398 
Q 353 888 353 1747 
Q 353 2609 779 3096 
Q 1206 3584 1959 3584 
z
" transform="scale(0.015625)"/>
       <path id="DejaVuSans-6b" d="M 581 4863 
L 1159 4863 
L 1159 1991 
L 2875 3500 
L 3609 3500 
L 1753 1863 
L 3688 0 
L 2938 0 
L 1159 1709 
L 1159 0 
L 581 0 
L 581 4863 
z
" transform="scale(0.015625)"/>
       <path id="DejaVuSans-65" d="M 3597 1894 
L 3597 1613 
L 953 1613 
Q 991 1019 1311 708 
Q 1631 397 2203 397 
Q 2534 397 2845 478 
Q 3156 559 3463 722 
L 3463 178 
Q 3153 47 2828 -22 
Q 2503 -91 2169 -91 
Q 1331 -91 842 396 
Q 353 884 353 1716 
Q 353 2575 817 3079 
Q 1281 3584 2069 3584 
Q 2775 3584 3186 3129 
Q 3597 2675 3597 1894 
z
M 3022 2063 
Q 3016 2534 2758 2815 
Q 2500 3097 2075 3097 
Q 1594 3097 1305 2825 
Q 1016 2553 972 2059 
L 3022 2063 
z
" transform="scale(0.015625)"/>
       <path id="DejaVuSans-6e" d="M 3513 2113 
L 3513 0 
L 2938 0 
L 2938 2094 
Q 2938 2591 2744 2837 
Q 2550 3084 2163 3084 
Q 1697 3084 1428 2787 
Q 1159 2491 1159 1978 
L 1159 0 
L 581 0 
L 581 3500 
L 1159 3500 
L 1159 2956 
Q 1366 3272 1645 3428 
Q 1925 3584 2291 3584 
Q 2894 3584 3203 3211 
Q 3513 2838 3513 2113 
z
" transform="scale(0.015625)"/>
       <path id="DejaVuSans-6d" d="M 3328 2828 
Q 3544 3216 3844 3400 
Q 4144 3584 4550 3584 
Q 5097 3584 5394 3201 
Q 5691 2819 5691 2113 
L 5691 0 
L 5113 0 
L 5113 2094 
Q 5113 2597 4934 2840 
Q 4756 3084 4391 3084 
Q 3944 3084 3684 2787 
Q 3425 2491 3425 1978 
L 3425 0 
L 2847 0 
L 2847 2094 
Q 2847 2600 2669 2842 
Q 2491 3084 2119 3084 
Q 1678 3084 1418 2786 
Q 1159 2488 1159 1978 
L 1159 0 
L 581 0 
L 581 3500 
L 1159 3500 
L 1159 2956 
Q 1356 3278 1631 3431 
Q 1906 3584 2284 3584 
Q 2666 3584 2933 3390 
Q 3200 3197 3328 2828 
z
" transform="scale(0.015625)"/>
       <path id="DejaVuSans-64" d="M 2906 2969 
L 2906 4863 
L 3481 4863 
L 3481 0 
L 2906 0 
L 2906 525 
Q 2725 213 2448 61 
Q 2172 -91 1784 -91 
Q 1150 -91 751 415 
Q 353 922 353 1747 
Q 353 2572 751 3078 
Q 1150 3584 1784 3584 
Q 2172 3584 2448 3432 
Q 2725 3281 2906 2969 
z
M 947 1747 
Q 947 1113 1208 752 
Q 1469 391 1925 391 
Q 2381 391 2643 752 
Q 2906 1113 2906 1747 
Q 2906 2381 2643 2742 
Q 2381 3103 1925 3103 
Q 1469 3103 1208 2742 
Q 947 2381 947 1747 
z
" transform="scale(0.015625)"/>
       <path id="DejaVuSans-2b" d="M 2944 4013 
L 2944 2272 
L 4684 2272 
L 4684 1741 
L 2944 1741 
L 2944 0 
L 2419 0 
L 2419 1741 
L 678 1741 
L 678 2272 
L 2419 2272 
L 2419 4013 
L 2944 4013 
z
" transform="scale(0.015625)"/>
       <path id="DejaVuSans-69" d="M 603 3500 
L 1178 3500 
L 1178 0 
L 603 0 
L 603 3500 
z
M 603 4863 
L 1178 4863 
L 1178 4134 
L 603 4134 
L 603 4863 
z
" transform="scale(0.015625)"/>
       <path id="DejaVuSans-2c" d="M 750 794 
L 1409 794 
L 1409 256 
L 897 -744 
L 494 -744 
L 750 256 
L 750 794 
z
" transform="scale(0.015625)"/>
       <path id="DejaVuSans-61" d="M 2194 1759 
Q 1497 1759 1228 1600 
Q 959 1441 959 1056 
Q 959 750 1161 570 
Q 1363 391 1709 391 
Q 2188 391 2477 730 
Q 2766 1069 2766 1631 
L 2766 1759 
L 2194 1759 
z
M 3341 1997 
L 3341 0 
L 2766 0 
L 2766 531 
Q 2569 213 2275 61 
Q 1981 -91 1556 -91 
Q 1019 -91 701 211 
Q 384 513 384 1019 
Q 384 1609 779 1909 
Q 1175 2209 1959 2209 
L 2766 2209 
L 2766 2266 
Q 2766 2663 2505 2880 
Q 2244 3097 1772 3097 
Q 1472 3097 1187 3025 
Q 903 2953 641 2809 
L 641 3341 
Q 956 3463 1253 3523 
Q 1550 3584 1831 3584 
Q 2591 3584 2966 3190 
Q 3341 2797 3341 1997 
z
" transform="scale(0.015625)"/>
      </defs>
      <use xlink:href="#DejaVuSans-54"/>
      <use xlink:href="#DejaVuSans-72" transform="translate(46.333984 0)"/>
      <use xlink:href="#DejaVuSans-75" transform="translate(87.447266 0)"/>
      <use xlink:href="#DejaVuSans-73" transform="translate(150.826172 0)"/>
      <use xlink:href="#DejaVuSans-74" transform="translate(202.925781 0)"/>
      <use xlink:href="#DejaVuSans-20" transform="translate(242.134766 0)"/>
      <use xlink:href="#DejaVuSans-63" transform="translate(273.921875 0)"/>
      <use xlink:href="#DejaVuSans-6f" transform="translate(328.902344 0)"/>
      <use xlink:href="#DejaVuSans-73" transform="translate(390.083984 0)"/>
      <use xlink:href="#DejaVuSans-74" transform="translate(442.183594 0)"/>
      <use xlink:href="#DejaVuSans-20" transform="translate(481.392578 0)"/>
      <use xlink:href="#DejaVuSans-28" transform="translate(513.179688 0)"/>
      <use xlink:href="#DejaVuSans-74" transform="translate(552.193359 0)"/>
      <use xlink:href="#DejaVuSans-6f" transform="translate(591.402344 0)"/>
      <use xlink:href="#DejaVuSans-6b" transform="translate(652.583984 0)"/>
      <use xlink:href="#DejaVuSans-65" transform="translate(706.869141 0)"/>
      <use xlink:href="#DejaVuSans-6e" transform="translate(768.392578 0)"/>
      <use xlink:href="#DejaVuSans-73" transform="translate(831.771484 0)"/>
      <use xlink:href="#DejaVuSans-20" transform="translate(883.871094 0)"/>
      <use xlink:href="#DejaVuSans-63" transform="translate(915.658203 0)"/>
      <use xlink:href="#DejaVuSans-6f" transform="translate(970.638672 0)"/>
      <use xlink:href="#DejaVuSans-6e" transform="translate(1031.820312 0)"/>
      <use xlink:href="#DejaVuSans-73" transform="translate(1095.199219 0)"/>
      <use xlink:href="#DejaVuSans-75" transform="translate(1147.298828 0)"/>
      <use xlink:href="#DejaVuSans-6d" transform="translate(1210.677734 0)"/>
      <use xlink:href="#DejaVuSans-65" transform="translate(1308.089844 0)"/>
      <use xlink:href="#DejaVuSans-64" transform="translate(1369.613281 0)"/>
      <use xlink:href="#DejaVuSans-20" transform="translate(1433.089844 0)"/>
      <use xlink:href="#DejaVuSans-2b" transform="translate(1464.876953 0)"/>
      <use xlink:href="#DejaVuSans-20" transform="translate(1548.666016 0)"/>
      <use xlink:href="#DejaVuSans-6d" transform="translate(1580.453125 0)"/>
      <use xlink:href="#DejaVuSans-69" transform="translate(1677.865234 0)"/>
      <use xlink:href="#DejaVuSans-6e" transform="translate(1705.648438 0)"/>
      <use xlink:href="#DejaVuSans-74" transform="translate(1769.027344 0)"/>
      <use xlink:href="#DejaVuSans-65" transform="translate(1808.236328 0)"/>
      <use xlink:href="#DejaVuSans-64" transform="translate(1869.759766 0)"/>
      <use xlink:href="#DejaVuSans-2c" transform="translate(1933.236328 0)"/>
      <use xlink:href="#DejaVuSans-20" transform="translate(1965.023438 0)"/>
      <use xlink:href="#DejaVuSans-6d" transform="translate(1996.810547 0)"/>
      <use xlink:href="#DejaVuSans-65" transform="translate(2094.222656 0)"/>
      <use xlink:href="#DejaVuSans-61" transform="translate(2155.746094 0)"/>
      <use xlink:href="#DejaVuSans-6e" transform="translate(2217.025391 0)"/>
      <use xlink:href="#DejaVuSans-29" transform="translate(2280.404297 0)"/>
     </g>
    </g>
   </g>
   <g id="PathCollection_1">
    <defs>
     <path id="m41f4128335" d="M 0 4.242641 
C 1.125161 4.242641 2.204391 3.795609 3 3 
C 3.795609 2.204391 4.242641 1.125161 4.242641 0 
C 4.242641 -1.125161 3.795609 -2.204391 3 -3 
C 2.204391 -3.795609 1.125161 -4.242641 0 -4.242641 
C -1.125161 -4.242641 -2.204391 -3.795609 -3 -3 
C -3.795609 -2.204391 -4.242641 -1.125161 -4.242641 0 
C -4.242641 1.125161 -3.795609 2.204391 -3 3 
C -2.204391 3.795609 -1.125161 4.242641 0 4.242641 
z
" style="stroke: #333333; stroke-opacity: 0.85; stroke-width: 0.8"/>
    </defs>
    <g clip-path="url(#p2ecfccad39)">
     <use xlink:href="#m41f4128335" x="222.355" y="148.772" style="fill: #1565c0; fill-opacity: 0.85; stroke: #333333; stroke-opacity: 0.85; stroke-width: 0.8"/>
     <use xlink:href="#m41f4128335" x="222.355" y="148.772" style="fill: #1565c0; fill-opacity: 0.85; stroke: #333333; stroke-opacity: 0.85; stroke-width: 0.8"/>
     <use xlink:href="#m41f4128335" x="222.355" y="148.772" style="fill: #1565c0; fill-opacity: 0.85; stroke: #333333; stroke-opacity: 0.85; stroke-width: 0.8"/>
     <use xlink:href="#m41f4128335" x="222.355" y="148.772" style="fill: #1565c0; fill-opacity: 0.85; stroke: #333333; stroke-opacity: 0.85; stroke-width: 0.8"/>
    </g>
   </g>
   <g id="patch_3">
    <path d="M 59.51 261.16 
L 59.51 36.384 
" style="fill: none; stroke: #333333; stroke-linejoin: miter; stroke-linecap: square"/>
   </g>
   <g id="patch_4">
    <path d="M 59.51 261.16 
L 385.2 261.16 
" style="fill: none; stroke: #333333; stroke-linejoin: miter; stroke-linecap: square"/>
   </g>
   <g id="text_13">
    <!-- dual_approval_on_trust_skeleton_on -->
    <g style="fill: #111111; opacity: 0.9" transform="translate(226.355 144.772) scale(0.08 -0.08)">
     <defs>
      <path id="DejaVuSans-6c" d="M 603 4863 
L 1178 4863 
L 1178 0 
L 603 0 
L 603 4863 
z
" transform="scale(0.015625)"/>
      <path id="DejaVuSans-5f" d="M 3263 -1063 
L 3263 -1509 
L -63 -1509 
L -63 -1063 
L 3263 -1063 
z
" transform="scale(0.015625)"/>
      <path id="DejaVuSans-76" d="M 191 3500 
L 800 3500 
L 1894 563 
L 2988 3500 
L 3597 3500 
L 2284 0 
L 1503 0 
L 191 3500 
z
" transform="scale(0.015625)"/>
     </defs>
     <use xlink:href="#DejaVuSans-64"/>
     <use xlink:href="#DejaVuSans-75" transform="translate(63.476562 0)"/>
     <use xlink:href="#DejaVuSans-61" transform="translate(126.855469 0)"/>
     <use xlink:href="#DejaVuSans-6c" transform="translate(188.134766 0)"/>
     <use xlink:href="#DejaVuSans-5f" transform="translate(215.917969 0)"/>
     <use xlink:href="#DejaVuSans-61" transform="translate(265.917969 0)"/>
     <use xlink:href="#DejaVuSans-70" transform="translate(327.197266 0)"/>
     <use xlink:href="#DejaVuSans-70" transform="translate(390.673828 0)"/>
     <use xlink:href="#DejaVuSans-72" transform="translate(454.150391 0)"/>
     <use xlink:href="#DejaVuSans-6f" transform="translate(493.013672 0)"/>
     <use xlink:href="#DejaVuSans-76" transform="translate(554.195312 0)"/>
     <use xlink:href="#DejaVuSans-61" transform="translate(613.375 0)"/>
     <use xlink:href="#DejaVuSans-6c" transform="translate(674.654297 0)"/>
     <use xlink:href="#DejaVuSans-5f" transform="translate(702.4375 0)"/>
     <use xlink:href="#DejaVuSans-6f" transform="translate(752.4375 0)"/>
     <use xlink:href="#DejaVuSans-6e" transform="translate(813.619141 0)"/>
     <use xlink:href="#DejaVuSans-5f" transform="translate(876.998047 0)"/>
     <use xlink:href="#DejaVuSans-74" transform="translate(926.998047 0)"/>
     <use xlink:href="#DejaVuSans-72" transform="translate(966.207031 0)"/>
     <use xlink:href="#DejaVuSans-75" transform="translate(1007.320312 0)"/>
     <use xlink:href="#DejaVuSans-73" transform="translate(1070.699219 0)"/>
     <use xlink:href="#DejaVuSans-74" transform="translate(1122.798828 0)"/>
     <use xlink:href="#DejaVuSans-5f" transform="translate(1162.007812 0)"/>
     <use xlink:href="#DejaVuSans-73" transform="translate(1212.007812 0)"/>
     <use xlink:href="#DejaVuSans-6b" transform="translate(1264.107422 0)"/>
     <use xlink:href="#DejaVuSans-65" transform="translate(1318.392578 0)"/>
     <use xlink:href="#DejaVuSans-6c" transform="translate(1379.916016 0)"/>
     <use xlink:href="#DejaVuSans-65" transform="translate(1407.699219 0)"/>
     <use xlink:href="#DejaVuSans-74" transform="translate(1469.222656 0)"/>
     <use xlink:href="#DejaVuSans-6f" transform="translate(1508.431641 0)"/>
     <use xlink:href="#DejaVuSans-6e" transform="translate(1569.613281 0)"/>
     <use xlink:href="#DejaVuSans-5f" transform="translate(1632.992188 0)"/>
     <use xlink:href="#DejaVuSans-6f" transform="translate(1682.992188 0)"/>
     <use xlink:href="#DejaVuSans-6e" transform="translate(1744.173828 0)"/>
    </g>
   </g>
   <g id="text_14">
    <!-- dual_approval_on_trust_skeleton_off -->
    <g style="fill: #111111; opacity: 0.9" transform="translate(226.355 144.772) scale(0.08 -0.08)">
     <defs>
      <path id="DejaVuSans-66" d="M 2375 4863 
L 2375 4384 
L 1825 4384 
Q 1516 4384 1395 4259 
Q 1275 4134 1275 3809 
L 1275 3500 
L 2222 3500 
L 2222 3053 
L 1275 3053 
L 1275 0 
L 697 0 
L 697 3053 
L 147 3053 
L 147 3500 
L 697 3500 
L 697 3744 
Q 697 4328 969 4595 
Q 1241 4863 1831 4863 
L 2375 4863 
z
" transform="scale(0.015625)"/>
     </defs>
     <use xlink:href="#DejaVuSans-64"/>
     <use xlink:href="#DejaVuSans-75" transform="translate(63.476562 0)"/>
     <use xlink:href="#DejaVuSans-61" transform="translate(126.855469 0)"/>
     <use xlink:href="#DejaVuSans-6c" transform="translate(188.134766 0)"/>
     <use xlink:href="#DejaVuSans-5f" transform="translate(215.917969 0)"/>
     <use xlink:href="#DejaVuSans-61" transform="translate(265.917969 0)"/>
     <use xlink:href="#DejaVuSans-70" transform="translate(327.197266 0)"/>
     <use xlink:href="#DejaVuSans-70" transform="translate(390.673828 0)"/>
     <use xlink:href="#DejaVuSans-72" transform="translate(454.150391 0)"/>
     <use xlink:href="#DejaVuSans-6f" transform="translate(493.013672 0)"/>
     <use xlink:href="#DejaVuSans-76" transform="translate(554.195312 0)"/>
     <use xlink:href="#DejaVuSans-61" transform="translate(613.375 0)"/>
     <use xlink:href="#DejaVuSans-6c" transform="translate(674.654297 0)"/>
     <use xlink:href="#DejaVuSans-5f" transform="translate(702.4375 0)"/>
     <use xlink:href="#DejaVuSans-6f" transform="translate(752.4375 0)"/>
     <use xlink:href="#DejaVuSans-6e" transform="translate(813.619141 0)"/>
     <use xlink:href="#DejaVuSans-5f" transform="translate(876.998047 0)"/>
     <use xlink:href="#DejaVuSans-74" transform="translate(926.998047 0)"/>
     <use xlink:href="#DejaVuSans-72" transform="translate(966.207031 0)"/>
     <use xlink:href="#DejaVuSans-75" transform="translate(1007.320312 0)"/>
     <use xlink:href="#DejaVuSans-73" transform="translate(1070.699219 0)"/>
     <use xlink:href="#DejaVuSans-74" transform="translate(1122.798828 0)"/>
     <use xlink:href="#DejaVuSans-5f" transform="translate(1162.007812 0)"/>
     <use xlink:href="#DejaVuSans-73" transform="translate(1212.007812 0)"/>
     <use xlink:href="#DejaVuSans-6b" transform="translate(1264.107422 0)"/>
     <use xlink:href="#DejaVuSans-65" transform="translate(1318.392578 0)"/>
     <use xlink:href="#DejaVuSans-6c" transform="translate(1379.916016 0)"/>
     <use xlink:href="#DejaVuSans-65" transform="translate(1407.699219 0)"/>
     <use xlink:href="#DejaVuSans-74" transform="translate(1469.222656 0)"/>
     <use xlink:href="#DejaVuSans-6f" transform="translate(1508.431641 0)"/>
     <use xlink:href="#DejaVuSans-6e" transform="translate(1569.613281 0)"/>
     <use xlink:href="#DejaVuSans-5f" transform="translate(1632.992188 0)"/>
     <use xlink:href="#DejaVuSans-6f" transform="translate(1682.992188 0)"/>
     <use xlink:href="#DejaVuSans-66" transform="translate(1744.173828 0)"/>
     <use xlink:href="#DejaVuSans-66" transform="translate(1779.378906 0)"/>
    </g>
   </g>
   <g id="text_15">
    <!-- dual_approval_off_trust_skeleton_on -->
    <g style="fill: #111111; opacity: 0.9" transform="translate(226.355 144.772) scale(0.08 -0.08)">
     <use xlink:href="#DejaVuSans-64"/>
     <use xlink:href="#DejaVuSans-75" transform="translate(63.476562 0)"/>
     <use xlink:href="#DejaVuSans-61" transform="translate(126.855469 0)"/>
     <use xlink:href="#DejaVuSans-6c" transform="translate(188.134766 0)"/>
     <use xlink:href="#DejaVuSans-5f" transform="translate(215.917969 0)"/>
     <use xlink:href="#DejaVuSans-61" transform="translate(265.917969 0)"/>
     <use xlink:href="#DejaVuSans-70" transform="translate(327.197266 0)"/>
     <use xlink:href="#DejaVuSans-70" transform="translate(390.673828 0)"/>
     <use xlink:href="#DejaVuSans-72" transform="translate(454.150391 0)"/>
     <use xlink:href="#DejaVuSans-6f" transform="translate(493.013672 0)"/>
     <use xlink:href="#DejaVuSans-76" transform="translate(554.195312 0)"/>
     <use xlink:href="#DejaVuSans-61" transform="translate(613.375 0)"/>
     <use xlink:href="#DejaVuSans-6c" transform="translate(674.654297 0)"/>
     <use xlink:href="#DejaVuSans-5f" transform="translate(702.4375 0)"/>
     <use xlink:href="#DejaVuSans-6f" transform="translate(752.4375 0)"/>
     <use xlink:href="#DejaVuSans-66" transform="translate(813.619141 0)"/>
     <use xlink:href="#DejaVuSans-66" transform="translate(848.824219 0)"/>
     <use xlink:href="#DejaVuSans-5f" transform="translate(884.029297 0)"/>
     <use xlink:href="#DejaVuSans-74" transform="translate(934.029297 0)"/>
     <use xlink:href="#DejaVuSans-72" transform="translate(973.238281 0)"/>
     <use xlink:href="#DejaVuSans-75" transform="translate(1014.351562 0)"/>
     <use xlink:href="#DejaVuSans-73" transform="translate(1077.730469 0)"/>
     <use xlink:href="#DejaVuSans-74" transform="translate(1129.830078 0)"/>
     <use xlink:href="#DejaVuSans-5f" transform="translate(1169.039062 0)"/>
     <use xlink:href="#DejaVuSans-73" transform="translate(1219.039062 0)"/>
     <use xlink:href="#DejaVuSans-6b" transform="translate(1271.138672 0)"/>
     <use xlink:href="#DejaVuSans-65" transform="translate(1325.423828 0)"/>
     <use xlink:href="#DejaVuSans-6c" transform="translate(1386.947266 0)"/>
     <use xlink:href="#DejaVuSans-65" transform="translate(1414.730469 0)"/>
     <use xlink:href="#DejaVuSans-74" transform="translate(1476.253906 0)"/>
     <use xlink:href="#DejaVuSans-6f" transform="translate(1515.462891 0)"/>
     <use xlink:href="#DejaVuSans-6e" transform="translate(1576.644531 0)"/>
     <use xlink:href="#DejaVuSans-5f" transform="translate(1640.023438 0)"/>
     <use xlink:href="#DejaVuSans-6f" transform="translate(1690.023438 0)"/>
     <use xlink:href="#DejaVuSans-6e" transform="translate(1751.205078 0)"/>
    </g>
   </g>
   <g id="text_16">
    <!-- dual_approval_off_trust_skeleton_off -->
    <g style="fill: #111111; opacity: 0.9" transform="translate(226.355 144.772) scale(0.08 -0.08)">
     <use xlink:href="#DejaVuSans-64"/>
     <use xlink:href="#DejaVuSans-75" transform="translate(63.476562 0)"/>
     <use xlink:href="#DejaVuSans-61" transform="translate(126.855469 0)"/>
     <use xlink:href="#DejaVuSans-6c" transform="translate(188.134766 0)"/>
     <use xlink:href="#DejaVuSans-5f" transform="translate(215.917969 0)"/>
     <use xlink:href="#DejaVuSans-61" transform="translate(265.917969 0)"/>
     <use xlink:href="#DejaVuSans-70" transform="translate(327.197266 0)"/>
     <use xlink:href="#DejaVuSans-70" transform="translate(390.673828 0)"/>
     <use xlink:href="#DejaVuSans-72" transform="translate(454.150391 0)"/>
     <use xlink:href="#DejaVuSans-6f" transform="translate(493.013672 0)"/>
     <use xlink:href="#DejaVuSans-76" transform="translate(554.195312 0)"/>
     <use xlink:href="#DejaVuSans-61" transform="translate(613.375 0)"/>
     <use xlink:href="#DejaVuSans-6c" transform="translate(674.654297 0)"/>
     <use xlink:href="#DejaVuSans-5f" transform="translate(702.4375 0)"/>
     <use xlink:href="#DejaVuSans-6f" transform="translate(752.4375 0)"/>
     <use xlink:href="#DejaVuSans-66" transform="translate(813.619141 0)"/>
     <use xlink:href="#DejaVuSans-66" transform="translate(848.824219 0)"/>
     <use xlink:href="#DejaVuSans-5f" transform="translate(884.029297 0)"/>
     <use xlink:href="#DejaVuSans-74" transform="translate(934.029297 0)"/>
     <use xlink:href="#DejaVuSans-72" transform="translate(973.238281 0)"/>
     <use xlink:href="#DejaVuSans-75" transform="translate(1014.351562 0)"/>
     <use xlink:href="#DejaVuSans-73" transform="translate(1077.730469 0)"/>
     <use xlink:href="#DejaVuSans-74" transform="translate(1129.830078 0)"/>
     <use xlink:href="#DejaVuSans-5f" transform="translate(1169.039062 0)"/>
     <use xlink:href="#DejaVuSans-73" transform="translate(1219.039062 0)"/>
     <use xlink:href="#DejaVuSans-6b" transform="translate(1271.138672 0)"/>
     <use xlink:href="#DejaVuSans-65" transform="translate(1325.423828 0)"/>
     <use xlink:href="#DejaVuSans-6c" transform="translate(1386.947266 0)"/>
     <use xlink:href="#DejaVuSans-65" transform="translate(1414.730469 0)"/>
     <use xlink:href="#DejaVuSans-74" transform="translate(1476.253906 0)"/>
     <use xlink:href="#DejaVuSans-6f" transform="translate(1515.462891 0)"/>
     <use xlink:href="#DejaVuSans-6e" transform="translate(1576.644531 0)"/>
     <use xlink:href="#DejaVuSans-5f" transform="translate(1640.023438 0)"/>
     <use xlink:href="#DejaVuSans-6f" transform="translate(1690.023438 0)"/>
     <use xlink:href="#DejaVuSans-66" transform="translate(1751.205078 0)"/>
     <use xlink:href="#DejaVuSans-66" transform="translate(1786.410156 0)"/>
    </g>
   </g>
   <g id="text_17">
    <!-- Pareto: Trust cost vs p95 TAT -->
    <g style="fill: #111111" transform="translate(150.499531 19.186188) scale(0.1 -0.1)">
     <defs>
      <path id="DejaVuSans-50" d="M 1259 4147 
L 1259 2394 
L 2053 2394 
Q 2494 2394 2734 2622 
Q 2975 2850 2975 3272 
Q 2975 3691 2734 3919 
Q 2494 4147 2053 4147 
L 1259 4147 
z
M 628 4666 
L 2053 4666 
Q 2838 4666 3239 4311 
Q 3641 3956 3641 3272 
Q 3641 2581 3239 2228 
Q 2838 1875 2053 1875 
L 1259 1875 
L 1259 0 
L 628 0 
L 628 4666 
z
" transform="scale(0.015625)"/>
      <path id="DejaVuSans-3a" d="M 750 794 
L 1409 794 
L 1409 0 
L 750 0 
L 750 794 
z
M 750 3309 
L 1409 3309 
L 1409 2516 
L 750 2516 
L 750 3309 
z
" transform="scale(0.015625)"/>
     </defs>
     <use xlink:href="#DejaVuSans-50"/>
     <use xlink:href="#DejaVuSans-61" transform="translate(55.802734 0)"/>
     <use xlink:href="#DejaVuSans-72" transform="translate(117.082031 0)"/>
     <use xlink:href="#DejaVuSans-65" transform="translate(155.945312 0)"/>
     <use xlink:href="#DejaVuSans-74" transform="translate(217.46875 0)"/>
     <use xlink:href="#DejaVuSans-6f" transform="translate(256.677734 0)"/>
     <use xlink:href="#DejaVuSans-3a" transform="translate(317.859375 0)"/>
     <use xlink:href="#DejaVuSans-20" transform="translate(351.550781 0)"/>
     <use xlink:href="#DejaVuSans-54" transform="translate(383.337891 0)"/>
     <use xlink:href="#DejaVuSans-72" transform="translate(429.671875 0)"/>
     <use xlink:href="#DejaVuSans-75" transform="translate(470.785156 0)"/>
     <use xlink:href="#DejaVuSans-73" transform="translate(534.164062 0)"/>
     <use xlink:href="#DejaVuSans-74" transform="translate(586.263672 0)"/>
     <use xlink:href="#DejaVuSans-20" transform="translate(625.472656 0)"/>
     <use xlink:href="#DejaVuSans-63" transform="translate(657.259766 0)"/>
     <use xlink:href="#DejaVuSans-6f" transform="translate(712.240234 0)"/>
     <use xlink:href="#DejaVuSans-73" transform="translate(773.421875 0)"/>
     <use xlink:href="#DejaVuSans-74" transform="translate(825.521484 0)"/>
     <use xlink:href="#DejaVuSans-20" transform="translate(864.730469 0)"/>
     <use xlink:href="#DejaVuSans-76" transform="translate(896.517578 0)"/>
     <use xlink:href="#DejaVuSans-73" transform="translate(955.697266 0)"/>
     <use xlink:href="#DejaVuSans-20" transform="translate(1007.796875 0)"/>
     <use xlink:href="#DejaVuSans-70" transform="translate(1039.583984 0)"/>
     <use xlink:href="#DejaVuSans-39" transform="translate(1103.060547 0)"/>
     <use xlink:href="#DejaVuSans-35" transform="translate(1166.683594 0)"/>
     <use xlink:href="#DejaVuSans-20" transform="translate(1230.306641 0)"/>
     <use xlink:href="#DejaVuSans-54" transform="translate(1262.09375 0)"/>
     <use xlink:href="#DejaVuSans-41" transform="translate(1315.427734 0)"/>
     <use xlink:href="#DejaVuSans-54" transform="translate(1376.085938 0)"/>
    </g>
    <!-- qc_cascade: 4 conditions, 2 episode(s) per condition -->
    <g style="fill: #111111" transform="translate(91.071406 30.384) scale(0.1 -0.1)">
     <defs>
      <path id="DejaVuSans-71" d="M 947 1747 
Q 947 1113 1208 752 
Q 1469 391 1925 391 
Q 2381 391 2643 752 
Q 2906 1113 2906 1747 
Q 2906 2381 2643 2742 
Q 2381 3103 1925 3103 
Q 1469 3103 1208 2742 
Q 947 2381 947 1747 
z
M 2906 525 
Q 2725 213 2448 61 
Q 2172 -91 1784 -91 
Q 1150 -91 751 415 
Q 353 922 353 1747 
Q 353 2572 751 3078 
Q 1150 3584 1784 3584 
Q 2172 3584 2448 3432 
Q 2725 3281 2906 2969 
L 2906 3500 
L 3481 3500 
L 3481 -1331 
L 2906 -1331 
L 2906 525 
z
" transform="scale(0.015625)"/>
     </defs>
     <use xlink:href="#DejaVuSans-71"/>
     <use xlink:href="#DejaVuSans-63" transform="translate(63.476562 0)"/>
     <use xlink:href="#DejaVuSans-5f" transform="translate(118.457031 0)"/>
     <use xlink:href="#DejaVuSans-63" transform="translate(168.457031 0)"/>
     <use xlink:href="#DejaVuSans-61" transform="translate(223.4375 0)"/>
     <use xlink:href="#DejaVuSans-73" transform="translate(284.716797 0)"/>
     <use xlink:href="#DejaVuSans-63" transform="translate(336.816406 0)"/>
     <use xlink:href="#DejaVuSans-61" transform="translate(391.796875 0)"/>
     <use xlink:href="#DejaVuSans-64" transform="translate(453.076172 0)"/>
     <use xlink:href="#DejaVuSans-65" transform="translate(516.552734 0)"/>
     <use xlink:href="#DejaVuSans-3a" transform="translate(578.076172 0)"/>
     <use xlink:href="#DejaVuSans-20" transform="translate(611.767578 0)"/>
     <use xlink:href="#DejaVuSans-34" transform="translate(643.554688 0)"/>
     <use xlink:href="#DejaVuSans-20" transform="translate(707.177734 0)"/>
     <use xlink:href="#DejaVuSans-63" transform="translate(738.964844 0)"/>
     <use xlink:href="#DejaVuSans-6f" transform="translate(793.945312 0)"/>
     <use xlink:href="#DejaVuSans-6e" transform="translate(855.126953 0)"/>
     <use xlink:href="#DejaVuSans-64" transform="translate(918.505859 0)"/>
     <use xlink:href="#DejaVuSans-69" transform="translate(981.982422 0)"/>
     <use xlink:href="#DejaVuSans-74" transform="translate(1009.765625 0)"/>
     <use xlink:href="#DejaVuSans-69" transform="translate(1048.974609 0)"/>
     <use xlink:href="#DejaVuSans-6f" transform="translate(1076.757812 0)"/>
     <use xlink:href="#DejaVuSans-6e" transform="translate(1137.939453 0)"/>
     <use xlink:href="#DejaVuSans-73" transform="translate(1201.318359 0)"/>
     <use xlink:href="#DejaVuSans-2c" transform="translate(1253.417969 0)"/>
     <use xlink:href="#DejaVuSans-20" transform="translate(1285.205078 0)"/>
     <use xlink:href="#DejaVuSans-32" transform="translate(1316.992188 0)"/>
     <use xlink:href="#DejaVuSans-20" transform="translate(1380.615234 0)"/>
     <use xlink:href="#DejaVuSans-65" transform="translate(1412.402344 0)"/>
     <use xlink:href="#DejaVuSans-70" transform="translate(1473.925781 0)"/>
     <use xlink:href="#DejaVuSans-69" transform="translate(1537.402344 0)"/>
     <use xlink:href="#DejaVuSans-73" transform="translate(1565.185547 0)"/>
     <use xlink:href="#DejaVuSans-6f" transform="translate(1617.285156 0)"/>
     <use xlink:href="#DejaVuSans-64" transform="translate(1678.466797 0)"/>
     <use xlink:href="#DejaVuSans-65" transform="translate(1741.943359 0)"/>
     <use xlink:href="#DejaVuSans-28" transform="translate(1803.466797 0)"/>
     <use xlink:href="#DejaVuSans-73" transform="translate(1842.480469 0)"/>
     <use xlink:href="#DejaVuSans-29" transform="translate(1894.580078 0)"/>
     <use xlink:href="#DejaVuSans-20" transform="translate(1933.59375 0)"/>
     <use xlink:href="#DejaVuSans-70" transform="translate(1965.380859 0)"/>
     <use xlink:href="#DejaVuSans-65" transform="translate(2028.857422 0)"/>
     <use xlink:href="#DejaVuSans-72" transform="translate(2090.380859 0)"/>
     <use xlink:href="#DejaVuSans-20" transform="translate(2131.494141 0)"/>
     <use xlink:href="#DejaVuSans-63" transform="translate(2163.28125 0)"/>
     <use xlink:href="#DejaVuSans-6f" transform="translate(2218.261719 0)"/>
     <use xlink:href="#DejaVuSans-6e" transform="translate(2279.443359 0)"/>
     <use xlink:href="#DejaVuSans-64" transform="translate(2342.822266 0)"/>
     <use xlink:href="#DejaVuSans-69" transform="translate(2406.298828 0)"/>
     <use xlink:href="#DejaVuSans-74" transform="translate(2434.082031 0)"/>
     <use xlink:href="#DejaVuSans-69" transform="translate(2473.291016 0)"/>
     <use xlink:href="#DejaVuSans-6f" transform="translate(2501.074219 0)"/>
     <use xlink:href="#DejaVuSans-6e" transform="translate(2562.255859 0)"/>
    </g>
   </g>
  </g>
  <g id="text_18">
   <!-- No trust cost or p95 TAT recorded (no completed runs). -->
   <g style="fill: #111111" transform="translate(101.223359 296.352) scale(0.07 -0.07)">
    <defs>
     <path id="DejaVuSans-Oblique-4e" d="M 1081 4666 
L 1931 4666 
L 3219 666 
L 4000 4666 
L 4616 4666 
L 3706 0 
L 2853 0 
L 1569 4025 
L 788 0 
L 172 0 
L 1081 4666 
z
" transform="scale(0.015625)"/>
     <path id="DejaVuSans-Oblique-6f" d="M 1625 -91 
Q 1009 -91 651 289 
Q 294 669 294 1325 
Q 294 1706 417 2101 
Q 541 2497 738 2766 
Q 1047 3184 1428 3384 
Q 1809 3584 2291 3584 
Q 2888 3584 3255 3212 
Q 3622 2841 3622 2241 
Q 3622 1825 3500 1412 
Q 3378 1000 3181 728 
Q 2875 309 2494 109 
Q 2113 -91 1625 -91 
z
M 891 1344 
Q 891 869 1089 633 
Q 1288 397 1691 397 
Q 2269 397 2648 901 
Q 3028 1406 3028 2181 
Q 3028 2634 2825 2865 
Q 2622 3097 2228 3097 
Q 1903 3097 1650 2945 
Q 1397 2794 1197 2484 
Q 1050 2253 970 1956 
Q 891 1659 891 1344 
z
" transform="scale(0.015625)"/>
     <path id="DejaVuSans-Oblique-20" transform="scale(0.015625)"/>
     <path id="DejaVuSans-Oblique-74" d="M 2706 3500 
L 2619 3053 
L 1472 3053 
L 1100 1153 
Q 1081 1047 1072 975 
Q 1063 903 1063 863 
Q 1063 663 1183 572 
Q 1303 481 1569 481 
L 2150 481 
L 2053 0 
L 1503 0 
Q 991 0 739 200 
Q 488 400 488 806 
Q 488 878 497 964 
Q 506 1050 525 1153 
L 897 3053 
L 409 3053 
L 500 3500 
L 978 3500 
L 1172 4494 
L 1747 4494 
L 1556 3500 
L 2706 3500 
z
" transform="scale(0.015625)"/>
     <path id="DejaVuSans-Oblique-72" d="M 2853 2969 
Q 2766 3016 2653 3041 
Q 2541 3066 2413 3066 
Q 1953 3066 1609 2717 
Q 1266 2369 1153 1784 
L 800 0 
L 225 0 
L 909 3500 
L 1484 3500 
L 1375 2956 
Q 1603 3259 1920 3421 
Q 2238 3584 2597 3584 
Q 2691 3584 2781 3573 
Q 2872 3563 2963 3538 
L 2853 2969 
z
" transform="scale(0.015625)"/>
     <path id="DejaVuSans-Oblique-75" d="M 428 1388 
L 838 3500 
L 1416 3500 
L 1006 1409 
Q 975 1256 961 1147 
Q 947 1038 947 966 
Q 947 700 1109 554 
Q 1272 409 1569 409 
Q 2031 409 2368 721 
Q 2706 1034 2809 1563 
L 3194 3500 
L 3769 3500 
L 3091 0 
L 2516 0 
L 2631 550 
Q 2388 244 2052 76 
Q 1716 -91 1338 -91 
Q 878 -91 622 161 
Q 366 413 366 863 
Q 366 956 381 1097 
Q 397 1238 428 1388 
z
" transform="scale(0.015625)"/>
     <path id="DejaVuSans-Oblique-73" d="M 3200 3397 
L 3091 2853 
Q 2863 2978 2609 3040 
Q 2356 3103 2088 3103 
Q 1634 3103 1373 2948 
Q 1113 2794 1113 2528 
Q 1113 2219 1719 2053 
Q 1766 2041 1788 2034 
L 1972 1978 
Q 2547 1819 2739 1644 
Q 2931 1469 2931 1166 
Q 2931 609 2489 259 
Q 2047 -91 1331 -91 
Q 1053 -91 747 -37 
Q 441 16 72 128 
L 184 722 
Q 500 559 806 475 
Q 1113 391 1394 391 
Q 1816 391 2080 572 
Q 2344 753 2344 1031 
Q 2344 1331 1650 1516 
L 1591 1531 
L 1394 1581 
Q 956 1697 753 1886 
Q 550 2075 550 2369 
Q 550 2928 970 3256 
Q 1391 3584 2113 3584 
Q 2397 3584 2667 3537 
Q 2938 3491 3200 3397 
z
" transform="scale(0.015625)"/>
     <path id="DejaVuSans-Oblique-63" d="M 3431 3366 
L 3316 2797 
Q 3109 2947 2876 3022 
Q 2644 3097 2394 3097 
Q 2119 3097 1870 3000 
Q 1622 2903 1453 2725 
Q 1184 2453 1037 2087 
Q 891 1722 891 1331 
Q 891 859 1127 628 
Q 1363 397 1844 397 
Q 2081 397 2348 469 
Q 2616 541 2906 684 
L 2797 116 
Q 2547 13 2283 -39 
Q 2019 -91 1741 -91 
Q 1044 -91 669 257 
Q 294 606 294 1253 
Q 294 1797 489 2255 
Q 684 2713 1069 3078 
Q 1331 3328 1684 3456 
Q 2038 3584 2456 3584 
Q 2700 3584 2940 3529 
Q 3181 3475 3431 3366 
z
" transform="scale(0.015625)"/>
     <path id="DejaVuSans-Oblique-70" d="M 3175 2156 
Q 3175 2616 2975 2859 
Q 2775 3103 2400 3103 
Q 2144 3103 1911 2972 
Q 1678 2841 1497 2591 
Q 1319 2344 1212 1994 
Q 1106 1644 1106 1300 
Q 1106 863 1306 627 
Q 1506 391 1875 391 
Q 2147 391 2380 519 
Q 2613 647 2778 891 
Q 2956 1147 3065 1494 
Q 3175 1841 3175 2156 
z
M 1394 2969 
Q 1625 3272 1939 3428 
Q 2253 3584 2638 3584 
Q 3175 3584 3472 3232 
Q 3769 2881 3769 2247 
Q 3769 1728 3584 1258 
Q 3400 788 3053 416 
Q 2822 169 2531 39 
Q 2241 -91 1919 -91 
Q 1547 -91 1294 64 
Q 1041 219 916 525 
L 556 -1331 
L -19 -1331 
L 922 3500 
L 1497 3500 
L 1394 2969 
z
" transform="scale(0.015625)"/>
     <path id="DejaVuSans-Oblique-39" d="M 281 103 
L 397 678 
Q 578 559 809 496 
Q 1041 434 1306 434 
Q 1953 434 2348 843 
Q 2744 1253 2938 2119 
Q 2706 1853 2401 1714 
Q 2097 1575 1747 1575 
Q 1178 1575 842 1904 
Q 506 2234 506 2791 
Q 506 3247 672 3639 
Q 838 4031 1159 4325 
Q 1378 4531 1665 4640 
Q 1953 4750 2278 4750 
Q 2925 4750 3300 4339 
Q 3675 3928 3675 3219 
Q 3675 2559 3501 1943 
Q 3328 1328 3022 878 
Q 2697 403 2240 156 
Q 1784 -91 1228 -91 
Q 988 -91 748 -42 
Q 509 6 281 103 
z
M 1131 2938 
Q 1131 2541 1337 2308 
Q 1544 2075 1894 2075 
Q 2378 2075 2706 2447 
Q 3034 2819 3034 3372 
Q 3034 3784 2831 4017 
Q 2628 4250 2272 4250 
Q 1788 4250 1459 3870 
Q 1131 3491 1131 2938 
z
" transform="scale(0.015625)"/>
     <path id="DejaVuSans-Oblique-35" d="M 3719 4666 
L 3622 4141 
L 1691 4141 
L 1466 2988 
Q 1609 3034 1757 3056 
Q 1906 3078 2059 3078 
Q 2706 3078 3081 2731 
Q 3456 2384 3456 1791 
Q 3456 1375 3264 994 
Q 3072 613 2719 325 
Q 2469 125 2108 17 
Q 1747 -91 1319 -91 
Q 1038 -91 744 -41 
Q 450 9 128 109 
L 244 697 
Q 531 556 820 486 
Q 1109 416 1403 416 
Q 2013 416 2411 781 
Q 2809 1147 2809 1697 
Q 2809 2103 2548 2328 
Q 2288 2553 1819 2553 
Q 1572 2553 1305 2495 
Q 1038 2438 756 2322 
L 1209 4666 
L 3719 4666 
z
" transform="scale(0.015625)"/>
     <path id="DejaVuSans-Oblique-54" d="M 378 4666 
L 4325 4666 
L 4225 4134 
L 2559 4134 
L 1759 0 
L 1125 0 
L 1925 4134 
L 275 4134 
L 378 4666 
z
" transform="scale(0.015625)"/>
     <path id="DejaVuSans-Oblique-41" d="M 2356 4666 
L 3072 4666 
L 3938 0 
L 3278 0 
L 3084 1197 
L 984 1197 
L 325 0 
L -341 0 
L 2356 4666 
z
M 2584 4044 
L 1275 1722 
L 2988 1722 
L 2584 4044 
z
" transform="scale(0.015625)"/>
     <path id="DejaVuSans-Oblique-65" d="M 3078 2063 
Q 3088 2113 3092 2166 
Q 3097 2219 3097 2272 
Q 3097 2653 2873 2875 
Q 2650 3097 2266 3097 
Q 1838 3097 1509 2826 
Q 1181 2556 1013 2059 
L 3078 2063 
z
M 3578 1613 
L 903 1613 
Q 884 1494 878 1425 
Q 872 1356 872 1306 
Q 872 872 1139 634 
Q 1406 397 1894 397 
Q 2269 397 2603 481 
Q 2938 566 3225 728 
L 3116 159 
Q 2806 34 2476 -28 
Q 2147 -91 1806 -91 
Q 1078 -91 686 257 
Q 294 606 294 1247 
Q 294 1794 489 2264 
Q 684 2734 1063 3103 
Q 1306 3334 1642 3459 
Q 1978 3584 2356 3584 
Q 2950 3584 3301 3228 
Q 3653 2872 3653 2272 
Q 3653 2128 3634 1964 
Q 3616 1800 3578 1613 
z
" transform="scale(0.015625)"/>
     <path id="DejaVuSans-Oblique-64" d="M 2675 525 
Q 2444 222 2128 65 
Q 1813 -91 1428 -91 
Q 903 -91 598 267 
Q 294 625 294 1247 
Q 294 1766 478 2236 
Q 663 2706 1013 3078 
Q 1244 3325 1534 3454 
Q 1825 3584 2144 3584 
Q 2481 3584 2739 3421 
Q 2997 3259 3138 2956 
L 3513 4863 
L 4091 4863 
L 3144 0 
L 2566 0 
L 2675 525 
z
M 891 1350 
Q 891 897 1095 644 
Q 1300 391 1663 391 
Q 1931 391 2161 520 
Q 2391 650 2566 903 
Q 2750 1166 2856 1509 
Q 2963 1853 2963 2188 
Q 2963 2622 2758 2865 
Q 2553 3109 2194 3109 
Q 1922 3109 1687 2981 
Q 1453 2853 1288 2613 
Q 1106 2353 998 2009 
Q 891 1666 891 1350 
z
" transform="scale(0.015625)"/>
     <path id="DejaVuSans-Oblique-28" d="M 2731 4856 
Q 1903 3822 1495 2892 
Q 1088 1963 1088 1100 
Q 1088 606 1206 120 
Q 1325 -366 1563 -844 
L 1063 -844 
Q 775 -306 634 201 
Q 494 709 494 1197 
Q 494 2125 923 3036 
Q 1353 3947 2222 4856 
L 2731 4856 
z
" transform="scale(0.015625)"/>
     <path id="DejaVuSans-Oblique-6e" d="M 3566 2113 
L 3156 0 
L 2578 0 
L 2988 2091 
Q 3016 2238 3031 2350 
Q 3047 2463 3047 2528 
Q 3047 2791 2881 2937 
Q 2716 3084 2419 3084 
Q 1956 3084 1622 2776 
Q 1288 2469 1184 1941 
L 800 0 
L 225 0 
L 903 3500 
L 1478 3500 
L 1363 2950 
Q 1603 3253 1940 3418 
Q 2278 3584 2650 3584 
Q 3113 3584 3367 3334 
Q 3622 3084 3622 2631 
Q 3622 2519 3608 2391 
Q 3594 2263 3566 2113 
z
" transform="scale(0.015625)"/>
     <path id="DejaVuSans-Oblique-6d" d="M 5747 2113 
L 5338 0 
L 4763 0 
L 5166 2094 
Q 5191 2228 5203 2325 
Q 5216 2422 5216 2491 
Q 5216 2772 5059 2928 
Q 4903 3084 4622 3084 
Q 4203 3084 3875 2770 
Q 3547 2456 3450 1953 
L 3066 0 
L 2491 0 
L 2900 2094 
Q 2925 2209 2937 2307 
Q 2950 2406 2950 2484 
Q 2950 2769 2794 2926 
Q 2638 3084 2363 3084 
Q 1938 3084 1609 2770 
Q 1281 2456 1184 1953 
L 800 0 
L 225 0 
L 909 3500 
L 1484 3500 
L 1375 2956 
Q 1609 3263 1923 3423 
Q 2238 3584 2597 3584 
Q 2978 3584 3223 3384 
Q 3469 3184 3519 2828 
Q 3781 3197 4126 3390 
Q 4472 3584 4856 3584 
Q 5306 3584 5551 3325 
Q 5797 3066 5797 2591 
Q 5797 2488 5784 2364 
Q 5772 2241 5747 2113 
z
" transform="scale(0.015625)"/>
     <path id="DejaVuSans-Oblique-6c" d="M 1172 4863 
L 1747 4863 
L 800 0 
L 225 0 
L 1172 4863 
z
" transform="scale(0.015625)"/>
     <path id="DejaVuSans-Oblique-29" d="M -397 -844 
Q 434 191 840 1120 
Q 1247 2050 1247 2913 
Q 1247 3406 1130 3892 
Q 1013 4378 775 4856 
L 1275 4856 
Q 1563 4316 1703 3812 
Q 1844 3309 1844 2822 
Q 1844 1891 1411 973 
Q 978 56 116 -844 
L -397 -844 
z
" transform="scale(0.015625)"/>
     <path id="DejaVuSans-Oblique-2e" d="M 525 794 
L 1184 794 
L 1031 0 
L 372 0 
L 525 794 
z
" transform="scale(0.015625)"/>
    </defs>
    <use xlink:href="#DejaVuSans-Oblique-4e"/>
    <use xlink:href="#DejaVuSans-Oblique-6f" transform="translate(74.804688 0)"/>
    <use xlink:href="#DejaVuSans-Oblique-20" transform="translate(135.986328 0)"/>
    <use xlink:href="#DejaVuSans-Oblique-74" transform="translate(167.773438 0)"/>
    <use xlink:href="#DejaVuSans-Oblique-72" transform="translate(206.982422 0)"/>
    <use xlink:href="#DejaVuSans-Oblique-75" transform="translate(248.095703 0)"/>
    <use xlink:href="#DejaVuSans-Oblique-73" transform="translate(311.474609 0)"/>
    <use xlink:href="#DejaVuSans-Oblique-74" transform="translate(363.574219 0)"/>
    <use xlink:href="#DejaVuSans-Oblique-20" transform="translate(402.783203 0)"/>
    <use xlink:href="#DejaVuSans-Oblique-63" transform="translate(434.570312 0)"/>
    <use xlink:href="#DejaVuSans-Oblique-6f" transform="translate(489.550781 0)"/>
    <use xlink:href="#DejaVuSans-Oblique-73" transform="translate(550.732422 0)"/>
    <use xlink:href="#DejaVuSans-Oblique-74" transform="translate(602.832031 0)"/>
    <use xlink:href="#DejaVuSans-Oblique-20" transform="translate(642.041016 0)"/>
    <use xlink:href="#DejaVuSans-Oblique-6f" transform="translate(673.828125 0)"/>
    <use xlink:href="#DejaVuSans-Oblique-72" transform="translate(735.009766 0)"/>
    <use xlink:href="#DejaVuSans-Oblique-20" transform="translate(776.123047 0)"/>
    <use xlink:href="#DejaVuSans-Oblique-70" transform="translate(807.910156 0)"/>
    <use xlink:href="#DejaVuSans-Oblique-39" transform="translate(871.386719 0)"/>
    <use xlink:href="#DejaVuSans-Oblique-35" transform="translate(935.009766 0)"/>
    <use xlink:href="#DejaVuSans-Oblique-20" transform="translate(998.632812 0)"/>
    <use xlink:href="#DejaVuSans-Oblique-54" transform="translate(1030.419922 0)"/>
    <use xlink:href="#DejaVuSans-Oblique-41" transform="translate(1082.378906 0)"/>
    <use xlink:href="#DejaVuSans-Oblique-54" transform="translate(1143.537109 0)"/>
    <use xlink:href="#DejaVuSans-Oblique-20" transform="translate(1204.621094 0)"/>
    <use xlink:href="#DejaVuSans-Oblique-72" transform="translate(1236.408203 0)"/>
    <use xlink:href="#DejaVuSans-Oblique-65" transform="translate(1277.521484 0)"/>
    <use xlink:href="#DejaVuSans-Oblique-63" transform="translate(1339.044922 0)"/>
    <use xlink:href="#DejaVuSans-Oblique-6f" transform="translate(1394.025391 0)"/>
    <use xlink:href="#DejaVuSans-Oblique-72" transform="translate(1455.207031 0)"/>
    <use xlink:href="#DejaVuSans-Oblique-64" transform="translate(1496.320312 0)"/>
    <use xlink:href="#DejaVuSans-Oblique-65" transform="translate(1559.796875 0)"/>
    <use xlink:href="#DejaVuSans-Oblique-64" transform="translate(1621.320312 0)"/>
    <use xlink:href="#DejaVuSans-Oblique-20" transform="translate(1684.796875 0)"/>
    <use xlink:href="#DejaVuSans-Oblique-28" transform="translate(1716.583984 0)"/>
    <use xlink:href="#DejaVuSans-Oblique-6e" transform="translate(1755.597656 0)"/>
    <use xlink:href="#DejaVuSans-Oblique-6f" transform="translate(1818.976562 0)"/>
    <use xlink:href="#DejaVuSans-Oblique-20" transform="translate(1880.158203 0)"/>
    <use xlink:href="#DejaVuSans-Oblique-63" transform="translate(1911.945312 0)"/>
    <use xlink:href="#DejaVuSans-Oblique-6f" transform="translate(1966.925781 0)"/>
    <use xlink:href="#DejaVuSans-Oblique-6d" transform="translate(2028.107422 0)"/>
    <use xlink:href="#DejaVuSans-Oblique-70" transform="translate(2125.519531 0)"/>
    <use xlink:href="#DejaVuSans-Oblique-6c" transform="translate(2188.996094 0)"/>
    <use xlink:href="#DejaVuSans-Oblique-65" transform="translate(2216.779297 0)"/>
    <use xlink:href="#DejaVuSans-Oblique-74" transform="translate(2278.302734 0)"/>
    <use xlink:href="#DejaVuSans-Oblique-65" transform="translate(2317.511719 0)"/>
    <use xlink:href="#DejaVuSans-Oblique-64" transform="translate(2379.035156 0)"/>
    <use xlink:href="#DejaVuSans-Oblique-20" transform="translate(2442.511719 0)"/>
    <use xlink:href="#DejaVuSans-Oblique-72" transform="translate(2474.298828 0)"/>
    <use xlink:href="#DejaVuSans-Oblique-75" transform="translate(2515.412109 0)"/>
    <use xlink:href="#DejaVuSans-Oblique-6e" transform="translate(2578.791016 0)"/>
    <use xlink:href="#DejaVuSans-Oblique-73" transform="translate(2642.169922 0)"/>
    <use xlink:href="#DejaVuSans-Oblique-29" transform="translate(2694.269531 0)"/>
    <use xlink:href="#DejaVuSans-Oblique-2e" transform="translate(2733.283203 0)"/>
   </g>
  </g>
 </g>
 <defs>
  <clipPath id="p2ecfccad39">
   <rect x="59.51" y="36.384" width="325.69" height="224.776"/>
  </clipPath>
 </defs>
</svg>
