<?xml version="1.0" encoding="utf-8" standalone="no"?>
<!DOCTYPE svg PUBLIC "-//W3C//DTD SVG 1.1//EN"
  "http://www.w3.org/Graphics/SVG/1.1/DTD/svg11.dtd">
<svg xmlns:xlink="http://www.w3.org/1999/xlink" width="432pt" height="302.4pt" viewBox="0 0 432 302.4" xmlns="http://www.w3.org/2000/svg" version="1.1">
 <metadata>
  <rdf:RDF xmlns:dc="http://purl.org/dc/elements/1.1/" xmlns:cc="http://creativecommons.org/ns#" xmlns:rdf="http://www.w3.org/1999/02/22-rdf-syntax-ns#">
   <cc:Work>
    <dc:type rdf:resource="http://purl.org/dc/dcmitype/StillImage"/>
    <dc:date>2026-03-04T13:53:13.688559</dc:date>
    <dc:format>image/svg+xml</dc:format>
    <dc:creator>
     <cc:Agent>
      <dc:title>Matplotlib v3.10.8, https://matplotlib.org/</dc:title>
     </cc:Agent>
    </dc:creator>
   </cc:Work>
  </rdf:RDF>
 </metadata>
 <defs>
  <style type="text/css">*{stroke-linejoin: round; stroke-linecap: butt}</style>
 </defs>
 <g id="figure_1">
  <g id="patch_1">
   <path d="M 0 302.4 
L 432 302.4 
L 432 0 
L 0 0 
z
" style="fill: #ffffff"/>
  </g>
  <g id="axes_1">
   <g id="patch_2">
    <path d="M 59.51 255.1985 
L 421.2 255.1985 
L 421.2 36.384 
L 59.51 36.384 
z
" style="fill: #fafafa"/>
   </g>
   <g id="matplotlib.axis_1">
    <g id="xtick_1">
     <g id="line2d_1">
      <path d="M 110.561938 255.1985 
L 110.561938 36.384 
" clip-path="url(#paf36a2f2cd)" style="fill: none; stroke: #cccccc; stroke-opacity: 0.28; stroke-width: 0.8; stroke-linecap: square"/>
     </g>
     <g id="line2d_2">
      <defs>
       <path id="m27a5f28f0f" d="M 0 0 
L 0 3.5 
" style="stroke: #333333; stroke-width: 0.8"/>
      </defs>
      <g>
       <use xlink:href="#m27a5f28f0f" x="110.561938" y="255.1985" style="fill: #333333; stroke: #333333; stroke-width: 0.8"/>
      </g>
     </g>
     <g id="text_1">
      <!-- cond_0 -->
      <g style="fill: #333333" transform="translate(86.36397 289.731581) rotate(-45) scale(0.09 -0.09)">
       <defs>
        <path id="DejaVuSans-63" d="M 3122 3366 
L 3122 2828 
Q 2878 2963 2633 3030 
Q 2388 3097 2138 3097 
Q 1578 3097 1268 2742 
Q 959 2388 959 1747 
Q 959 1106 1268 751 
Q 1578 397 2138 397 
Q 2388 397 2633 464 
Q 2878 531 3122 666 
L 3122 134 
Q 2881 22 2623 -34 
Q 2366 -91 2075 -91 
Q 1284 -91 818 406 
Q 353 903 353 1747 
Q 353 2603 823 3093 
Q 1294 3584 2113 3584 
Q 2378 3584 2631 3529 
Q 2884 3475 3122 3366 
z
" transform="scale(0.015625)"/>
        <path id="DejaVuSans-6f" d="M 1959 3097 
Q 1497 3097 1228 2736 
Q 959 2375 959 1747 
Q 959 1119 1226 758 
Q 1494 397 1959 397 
Q 2419 397 2687 759 
Q 2956 1122 2956 1747 
Q 2956 2369 2687 2733 
Q 2419 3097 1959 3097 
z
M 1959 3584 
Q 2709 3584 3137 3096 
Q 3566 2609 3566 1747 
Q 3566 888 3137 398 
Q 2709 -91 1959 -91 
Q 1206 -91 779 398 
Q 353 888 353 1747 
Q 353 2609 779 3096 
Q 1206 3584 1959 3584 
z
" transform="scale(0.015625)"/>
        <path id="DejaVuSans-6e" d="M 3513 2113 
L 3513 0 
L 2938 0 
L 2938 2094 
Q 2938 2591 2744 2837 
Q 2550 3084 2163 3084 
Q 1697 3084 1428 2787 
Q 1159 2491 1159 1978 
L 1159 0 
L 581 0 
L 581 3500 
L 1159 3500 
L 1159 2956 
Q 1366 3272 1645 3428 
Q 1925 3584 2291 3584 
Q 2894 3584 3203 3211 
Q 3513 2838 3513 2113 
z
" transform="scale(0.015625)"/>
        <path id="DejaVuSans-64" d="M 2906 2969 
L 2906 4863 
L 3481 4863 
L 3481 0 
L 2906 0 
L 2906 525 
Q 2725 213 2448 61 
Q 2172 -91 1784 -91 
Q 1150 -91 751 415 
Q 353 922 353 1747 
Q 353 2572 751 3078 
Q 1150 3584 1784 3584 
Q 2172 3584 2448 3432 
Q 2725 3281 2906 2969 
z
M 947 1747 
Q 947 1113 1208 752 
Q 1469 391 1925 391 
Q 2381 391 2643 752 
Q 2906 1113 2906 1747 
Q 2906 2381 2643 2742 
Q 2381 3103 1925 3103 
Q 1469 3103 1208 2742 
Q 947 2381 947 1747 
z
" transform="scale(0.015625)"/>
        <path id="DejaVuSans-5f" d="M 3263 -1063 
L 3263 -1509 
L -63 -1509 
L -63 -1063 
L 3263 -1063 
z
" transform="scale(0.015625)"/>
        <path id="DejaVuSans-30" d="M 2034 4250 
Q 1547 4250 1301 3770 
Q 1056 3291 1056 2328 
Q 1056 1369 1301 889 
Q 1547 409 2034 409 
Q 2525 409 2770 889 
Q 3016 1369 3016 2328 
Q 3016 3291 2770 3770 
Q 2525 4250 2034 4250 
z
M 2034 4750 
Q 2819 4750 3233 4129 
Q 3647 3509 3647 2328 
Q 3647 1150 3233 529 
Q 2819 -91 2034 -91 
Q 1250 -91 836 529 
Q 422 1150 422 2328 
Q 422 3509 836 4129 
Q 1250 4750 2034 4750 
z
" transform="scale(0.015625)"/>
       </defs>
       <use xlink:href="#DejaVuSans-63"/>
       <use xlink:href="#DejaVuSans-6f" transform="translate(54.980469 0)"/>
       <use xlink:href="#DejaVuSans-6e" transform="translate(116.162109 0)"/>
       <use xlink:href="#DejaVuSans-64" transform="translate(179.541016 0)"/>
       <use xlink:href="#DejaVuSans-5f" transform="translate(243.017578 0)"/>
       <use xlink:href="#DejaVuSans-30" transform="translate(293.017578 0)"/>
      </g>
     </g>
    </g>
    <g id="xtick_2">
     <g id="line2d_3">
      <path d="M 197.090646 255.1985 
L 197.090646 36.384 
" clip-path="url(#paf36a2f2cd)" style="fill: none; stroke: #cccccc; stroke-opacity: 0.28; stroke-width: 0.8; stroke-linecap: square"/>
     </g>
     <g id="line2d_4">
      <g>
       <use xlink:href="#m27a5f28f0f" x="197.090646" y="255.1985" style="fill: #333333; stroke: #333333; stroke-width: 0.8"/>
      </g>
     </g>
     <g id="text_2">
      <!-- cond_1 -->
      <g style="fill: #333333" transform="translate(172.892678 289.731581) rotate(-45) scale(0.09 -0.09)">
       <defs>
        <path id="DejaVuSans-31" d="M 794 531 
L 1825 531 
L 1825 4091 
L 703 3866 
L 703 4441 
L 1819 4666 
L 2450 4666 
L 2450 531 
L 3481 531 
L 3481 0 
L 794 0 
L 794 531 
z
" transform="scale(0.015625)"/>
       </defs>
       <use xlink:href="#DejaVuSans-63"/>
       <use xlink:href="#DejaVuSans-6f" transform="translate(54.980469 0)"/>
       <use xlink:href="#DejaVuSans-6e" transform="translate(116.162109 0)"/>
       <use xlink:href="#DejaVuSans-64" transform="translate(179.541016 0)"/>
       <use xlink:href="#DejaVuSans-5f" transform="translate(243.017578 0)"/>
       <use xlink:href="#DejaVuSans-31" transform="translate(293.017578 0)"/>
      </g>
     </g>
    </g>
    <g id="xtick_3">
     <g id="line2d_5">
      <path d="M 283.619354 255.1985 
L 283.619354 36.384 
" clip-path="url(#paf36a2f2cd)" style="fill: none; stroke: #cccccc; stroke-opacity: 0.28; stroke-width: 0.8; stroke-linecap: square"/>
     </g>
     <g id="line2d_6">
      <g>
       <use xlink:href="#m27a5f28f0f" x="283.619354" y="255.1985" style="fill: #333333; stroke: #333333; stroke-width: 0.8"/>
      </g>
     </g>
     <g id="text_3">
      <!-- cond_2 -->
      <g style="fill: #333333" transform="translate(259.421387 289.731581) rotate(-45) scale(0.09 -0.09)">
       <defs>
        <path id="DejaVuSans-32" d="M 1228 531 
L 3431 531 
L 3431 0 
L 469 0 
L 469 531 
Q 828 903 1448 1529 
Q 2069 2156 2228 2338 
Q 2531 2678 2651 2914 
Q 2772 3150 2772 3378 
Q 2772 3750 2511 3984 
Q 2250 4219 1831 4219 
Q 1534 4219 1204 4116 
Q 875 4013 500 3803 
L 500 4441 
Q 881 4594 1212 4672 
Q 1544 4750 1819 4750 
Q 2544 4750 2975 4387 
Q 3406 4025 3406 3419 
Q 3406 3131 3298 2873 
Q 3191 2616 2906 2266 
Q 2828 2175 2409 1742 
Q 1991 1309 1228 531 
z
" transform="scale(0.015625)"/>
       </defs>
       <use xlink:href="#DejaVuSans-63"/>
       <use xlink:href="#DejaVuSans-6f" transform="translate(54.980469 0)"/>
       <use xlink:href="#DejaVuSans-6e" transform="translate(116.162109 0)"/>
       <use xlink:href="#DejaVuSans-64" transform="translate(179.541016 0)"/>
       <use xlink:href="#DejaVuSans-5f" transform="translate(243.017578 0)"/>
       <use xlink:href="#DejaVuSans-32" transform="translate(293.017578 0)"/>
      </g>
     </g>
    </g>
    <g id="xtick_4">
     <g id="line2d_7">
      <path d="M 370.148062 255.1985 
L 370.148062 36.384 
" clip-path="url(#paf36a2f2cd)" style="fill: none; stroke: #cccccc; stroke-opacity: 0.28; stroke-width: 0.8; stroke-linecap: square"/>
     </g>
     <g id="line2d_8">
      <g>
       <use xlink:href="#m27a5f28f0f" x="370.148062" y="255.1985" style="fill: #333333; stroke: #333333; stroke-width: 0.8"/>
      </g>
     </g>
     <g id="text_4">
      <!-- cond_3 -->
      <g style="fill: #333333" transform="translate(345.950095 289.731581) rotate(-45) scale(0.09 -0.09)">
       <defs>
        <path id="DejaVuSans-33" d="M 2597 2516 
Q 3050 2419 3304 2112 
Q 3559 1806 3559 1356 
Q 3559 666 3084 287 
Q 2609 -91 1734 -91 
Q 1441 -91 1130 -33 
Q 819 25 488 141 
L 488 750 
Q 750 597 1062 519 
Q 1375 441 1716 441 
Q 2309 441 2620 675 
Q 2931 909 2931 1356 
Q 2931 1769 2642 2001 
Q 2353 2234 1838 2234 
L 1294 2234 
L 1294 2753 
L 1863 2753 
Q 2328 2753 2575 2939 
Q 2822 3125 2822 3475 
Q 2822 3834 2567 4026 
Q 2313 4219 1838 4219 
Q 1578 4219 1281 4162 
Q 984 4106 628 3988 
L 628 4550 
Q 988 4650 1302 4700 
Q 1616 4750 1894 4750 
Q 2613 4750 3031 4423 
Q 3450 4097 3450 3541 
Q 3450 3153 3228 2886 
Q 3006 2619 2597 2516 
z
" transform="scale(0.015625)"/>
       </defs>
       <use xlink:href="#DejaVuSans-63"/>
       <use xlink:href="#DejaVuSans-6f" transform="translate(54.980469 0)"/>
       <use xlink:href="#DejaVuSans-6e" transform="translate(116.162109 0)"/>
       <use xlink:href="#DejaVuSans-64" transform="translate(179.541016 0)"/>
       <use xlink:href="#DejaVuSans-5f" transform="translate(243.017578 0)"/>
       <use xlink:href="#DejaVuSans-33" transform="translate(293.017578 0)"/>
      </g>
     </g>
    </g>
   </g>
   <g id="matplotlib.axis_2">
    <g id="ytick_1">
     <g id="line2d_9">
      <path d="M 59.51 225.360159 
L 421.2 225.360159 
" clip-path="url(#paf36a2f2cd)" style="fill: none; stroke: #cccccc; stroke-opacity: 0.28; stroke-width: 0.8; stroke-linecap: square"/>
     </g>
     <g id="line2d_10">
      <defs>
       <path id="m1dc7f97452" d="M 0 0 
L -3.5 0 
" style="stroke: #333333; stroke-width: 0.8"/>
      </defs>
      <g>
       <use xlink:href="#m1dc7f97452" x="59.51" y="225.360159" style="fill: #333333; stroke: #333333; stroke-width: 0.8"/>
      </g>
     </g>
     <g id="text_5">
      <!-- −0.04 -->
      <g style="fill: #333333" transform="translate(24.929219 228.779456) scale(0.09 -0.09)">
       <defs>
        <path id="DejaVuSans-2212" d="M 678 2272 
L 4684 2272 
L 4684 1741 
L 678 1741 
L 678 2272 
z
" transform="scale(0.015625)"/>
        <path id="DejaVuSans-2e" d="M 684 794 
L 1344 794 
L 1344 0 
L 684 0 
L 684 794 
z
" transform="scale(0.015625)"/>
        <path id="DejaVuSans-34" d="M 2419 4116 
L 825 1625 
L 2419 1625 
L 2419 4116 
z
M 2253 4666 
L 3047 4666 
L 3047 1625 
L 3713 1625 
L 3713 1100 
L 3047 1100 
L 3047 0 
L 2419 0 
L 2419 1100 
L 313 1100 
L 313 1709 
L 2253 4666 
z
" transform="scale(0.015625)"/>
       </defs>
       <use xlink:href="#DejaVuSans-2212"/>
       <use xlink:href="#DejaVuSans-30" transform="translate(83.789062 0)"/>
       <use xlink:href="#DejaVuSans-2e" transform="translate(147.412109 0)"/>
       <use xlink:href="#DejaVuSans-30" transform="translate(179.199219 0)"/>
       <use xlink:href="#DejaVuSans-34" transform="translate(242.822266 0)"/>
      </g>
     </g>
    </g>
    <g id="ytick_2">
     <g id="line2d_11">
      <path d="M 59.51 185.575705 
L 421.2 185.575705 
" clip-path="url(#paf36a2f2cd)" style="fill: none; stroke: #cccccc; stroke-opacity: 0.28; stroke-width: 0.8; stroke-linecap: square"/>
     </g>
     <g id="line2d_12">
      <g>
       <use xlink:href="#m1dc7f97452" x="59.51" y="185.575705" style="fill: #333333; stroke: #333333; stroke-width: 0.8"/>
      </g>
     </g>
     <g id="text_6">
      <!-- −0.02 -->
      <g style="fill: #333333" transform="translate(24.929219 188.995001) scale(0.09 -0.09)">
       <use xlink:href="#DejaVuSans-2212"/>
       <use xlink:href="#DejaVuSans-30" transform="translate(83.789062 0)"/>
       <use xlink:href="#DejaVuSans-2e" transform="translate(147.412109 0)"/>
       <use xlink:href="#DejaVuSans-30" transform="translate(179.199219 0)"/>
       <use xlink:href="#DejaVuSans-32" transform="translate(242.822266 0)"/>
      </g>
     </g>
    </g>
    <g id="ytick_3">
     <g id="line2d_13">
      <path d="M 59.51 145.79125 
L 421.2 145.79125 
" clip-path="url(#paf36a2f2cd)" style="fill: none; stroke: #cccccc; stroke-opacity: 0.28; stroke-width: 0.8; stroke-linecap: square"/>
     </g>
     <g id="line2d_14">
      <g>
       <use xlink:href="#m1dc7f97452" x="59.51" y="145.79125" style="fill: #333333; stroke: #333333; stroke-width: 0.8"/>
      </g>
     </g>
     <g id="text_7">
      <!-- 0.00 -->
      <g style="fill: #333333" transform="translate(32.470938 149.210547) scale(0.09 -0.09)">
       <use xlink:href="#DejaVuSans-30"/>
       <use xlink:href="#DejaVuSans-2e" transform="translate(63.623047 0)"/>
       <use xlink:href="#DejaVuSans-30" transform="translate(95.410156 0)"/>
       <use xlink:href="#DejaVuSans-30" transform="translate(159.033203 0)"/>
      </g>
     </g>
    </g>
    <g id="ytick_4">
     <g id="line2d_15">
      <path d="M 59.51 106.006795 
L 421.2 106.006795 
" clip-path="url(#paf36a2f2cd)" style="fill: none; stroke: #cccccc; stroke-opacity: 0.28; stroke-width: 0.8; stroke-linecap: square"/>
     </g>
     <g id="line2d_16">
      <g>
       <use xlink:href="#m1dc7f97452" x="59.51" y="106.006795" style="fill: #333333; stroke: #333333; stroke-width: 0.8"/>
      </g>
     </g>
     <g id="text_8">
      <!-- 0.02 -->
      <g style="fill: #333333" transform="translate(32.470938 109.426092) scale(0.09 -0.09)">
       <use xlink:href="#DejaVuSans-30"/>
       <use xlink:href="#DejaVuSans-2e" transform="translate(63.623047 0)"/>
       <use xlink:href="#DejaVuSans-30" transform="translate(95.410156 0)"/>
       <use xlink:href="#DejaVuSans-32" transform="translate(159.033203 0)"/>
      </g>
     </g>
    </g>
    <g id="ytick_5">
     <g id="line2d_17">
      <path d="M 59.51 66.222341 
L 421.2 66.222341 
" clip-path="url(#paf36a2f2cd)" style="fill: none; stroke: #cccccc; stroke-opacity: 0.28; stroke-width: 0.8; stroke-linecap: square"/>
     </g>
     <g id="line2d_18">
      <g>
       <use xlink:href="#m1dc7f97452" x="59.51" y="66.222341" style="fill: #333333; stroke: #333333; stroke-width: 0.8"/>
      </g>
     </g>
     <g id="text_9">
      <!-- 0.04 -->
      <g style="fill: #333333" transform="translate(32.470938 69.641638) scale(0.09 -0.09)">
       <use xlink:href="#DejaVuSans-30"/>
       <use xlink:href="#DejaVuSans-2e" transform="translate(63.623047 0)"/>
       <use xlink:href="#DejaVuSans-30" transform="translate(95.410156 0)"/>
       <use xlink:href="#DejaVuSans-34" transform="translate(159.033203 0)"/>
      </g>
     </g>
    </g>
    <g id="text_10">
     <!-- Critical compliance rate -->
     <g style="fill: #111111" transform="translate(18.849531 205.302969) rotate(-90) scale(0.1 -0.1)">
      <defs>
       <path id="DejaVuSans-43" d="M 4122 4306 
L 4122 3641 
Q 3803 3938 3442 4084 
Q 3081 4231 2675 4231 
Q 1875 4231 1450 3742 
Q 1025 3253 1025 2328 
Q 1025 1406 1450 917 
Q 1875 428 2675 428 
Q 3081 428 3442 575 
Q 3803 722 4122 1019 
L 4122 359 
Q 3791 134 3420 21 
Q 3050 -91 2638 -91 
Q 1578 -91 968 557 
Q 359 1206 359 2328 
Q 359 3453 968 4101 
Q 1578 4750 2638 4750 
Q 3056 4750 3426 4639 
Q 3797 4528 4122 4306 
z
" transform="scale(0.015625)"/>
       <path id="DejaVuSans-72" d="M 2631 2963 
Q 2534 3019 2420 3045 
Q 2306 3072 2169 3072 
Q 1681 3072 1420 2755 
Q 1159 2438 1159 1844 
L 1159 0 
L 581 0 
L 581 3500 
L 1159 3500 
L 1159 2956 
Q 1341 3275 1631 3429 
Q 1922 3584 2338 3584 
Q 2397 3584 2469 3576 
Q 2541 3569 2628 3553 
L 2631 2963 
z
" transform="scale(0.015625)"/>
       <path id="DejaVuSans-69" d="M 603 3500 
L 1178 3500 
L 1178 0 
L 603 0 
L 603 3500 
z
M 603 4863 
L 1178 4863 
L 1178 4134 
L 603 4134 
L 603 4863 
z
" transform="scale(0.015625)"/>
       <path id="DejaVuSans-74" d="M 1172 4494 
L 1172 3500 
L 2356 3500 
L 2356 3053 
L 1172 3053 
L 1172 1153 
Q 1172 725 1289 603 
Q 1406 481 1766 481 
L 2356 481 
L 2356 0 
L 1766 0 
Q 1100 0 847 248 
Q 594 497 594 1153 
L 594 3053 
L 172 3053 
L 172 3500 
L 594 3500 
L 594 4494 
L 1172 4494 
z
" transform="scale(0.015625)"/>
       <path id="DejaVuSans-61" d="M 2194 1759 
Q 1497 1759 1228 1600 
Q 959 1441 959 1056 
Q 959 750 1161 570 
Q 1363 391 1709 391 
Q 2188 391 2477 730 
Q 2766 1069 2766 1631 
L 2766 1759 
L 2194 1759 
z
M 3341 1997 
L 3341 0 
L 2766 0 
L 2766 531 
Q 2569 213 2275 61 
Q 1981 -91 1556 -91 
Q 1019 -91 701 211 
Q 384 513 384 1019 
Q 384 1609 779 1909 
Q 1175 2209 1959 2209 
L 2766 2209 
L 2766 2266 
Q 2766 2663 2505 2880 
Q 2244 3097 1772 3097 
Q 1472 3097 1187 3025 
Q 903 2953 641 2809 
L 641 3341 
Q 956 3463 1253 3523 
Q 1550 3584 1831 3584 
Q 2591 3584 2966 3190 
Q 3341 2797 3341 1997 
z
" transform="scale(0.015625)"/>
       <path id="DejaVuSans-6c" d="M 603 4863 
L 1178 4863 
L 1178 0 
L 603 0 
L 603 4863 
z
" transform="scale(0.015625)"/>
       <path id="DejaVuSans-20" transform="scale(0.015625)"/>
       <path id="DejaVuSans-6d" d="M 3328 2828 
Q 3544 3216 3844 3400 
Q 4144 3584 4550 3584 
Q 5097 3584 5394 3201 
Q 5691 2819 5691 2113 
L 5691 0 
L 5113 0 
L 5113 2094 
Q 5113 2597 4934 2840 
Q 4756 3084 4391 3084 
Q 3944 3084 3684 2787 
Q 3425 2491 3425 1978 
L 3425 0 
L 2847 0 
L 2847 2094 
Q 2847 2600 2669 2842 
Q 2491 3084 2119 3084 
Q 1678 3084 1418 2786 
Q 1159 2488 1159 1978 
L 1159 0 
L 581 0 
L 581 3500 
L 1159 3500 
L 1159 2956 
Q 1356 3278 1631 3431 
Q 1906 3584 2284 3584 
Q 2666 3584 2933 3390 
Q 3200 3197 3328 2828 
z
" transform="scale(0.015625)"/>
       <path id="DejaVuSans-70" d="M 1159 525 
L 1159 -1331 
L 581 -1331 
L 581 3500 
L 1159 3500 
L 1159 2969 
Q 1341 3281 1617 3432 
Q 1894 3584 2278 3584 
Q 2916 3584 3314 3078 
Q 3713 2572 3713 1747 
Q 3713 922 3314 415 
Q 2916 -91 2278 -91 
Q 1894 -91 1617 61 
Q 1341 213 1159 525 
z
M 3116 1747 
Q 3116 2381 2855 2742 
Q 2594 3103 2138 3103 
Q 1681 3103 1420 2742 
Q 1159 2381 1159 1747 
Q 1159 1113 1420 752 
Q 1681 391 2138 391 
Q 2594 391 2855 752 
Q 3116 1113 3116 1747 
z
" transform="scale(0.015625)"/>
       <path id="DejaVuSans-65" d="M 3597 1894 
L 3597 1613 
L 953 1613 
Q 991 1019 1311 708 
Q 1631 397 2203 397 
Q 2534 397 2845 478 
Q 3156 559 3463 722 
L 3463 178 
Q 3153 47 2828 -22 
Q 2503 -91 2169 -91 
Q 1331 -91 842 396 
Q 353 884 353 1716 
Q 353 2575 817 3079 
Q 1281 3584 2069 3584 
Q 2775 3584 3186 3129 
Q 3597 2675 3597 1894 
z
M 3022 2063 
Q 3016 2534 2758 2815 
Q 2500 3097 2075 3097 
Q 1594 3097 1305 2825 
Q 1016 2553 972 2059 
L 3022 2063 
z
" transform="scale(0.015625)"/>
      </defs>
      <use xlink:href="#DejaVuSans-43"/>
      <use xlink:href="#DejaVuSans-72" transform="translate(69.824219 0)"/>
      <use xlink:href="#DejaVuSans-69" transform="translate(110.9375 0)"/>
      <use xlink:href="#DejaVuSans-74" transform="translate(138.720703 0)"/>
      <use xlink:href="#DejaVuSans-69" transform="translate(177.929688 0)"/>
      <use xlink:href="#DejaVuSans-63" transform="translate(205.712891 0)"/>
      <use xlink:href="#DejaVuSans-61" transform="translate(260.693359 0)"/>
      <use xlink:href="#DejaVuSans-6c" transform="translate(321.972656 0)"/>
      <use xlink:href="#DejaVuSans-20" transform="translate(349.755859 0)"/>
      <use xlink:href="#DejaVuSans-63" transform="translate(381.542969 0)"/>
      <use xlink:href="#DejaVuSans-6f" transform="translate(436.523438 0)"/>
      <use xlink:href="#DejaVuSans-6d" transform="translate(497.705078 0)"/>
      <use xlink:href="#DejaVuSans-70" transform="translate(595.117188 0)"/>
      <use xlink:href="#DejaVuSans-6c" transform="translate(658.59375 0)"/>
      <use xlink:href="#DejaVuSans-69" transform="translate(686.376953 0)"/>
      <use xlink:href="#DejaVuSans-61" transform="translate(714.160156 0)"/>
      <use xlink:href="#DejaVuSans-6e" transform="translate(775.439453 0)"/>
      <use xlink:href="#DejaVuSans-63" transform="translate(838.818359 0)"/>
      <use xlink:href="#DejaVuSans-65" transform="translate(893.798828 0)"/>
      <use xlink:href="#DejaVuSans-20" transform="translate(955.322266 0)"/>
      <use xlink:href="#DejaVuSans-72" transform="translate(987.109375 0)"/>
      <use xlink:href="#DejaVuSans-61" transform="translate(1028.222656 0)"/>
      <use xlink:href="#DejaVuSans-74" transform="translate(1089.501953 0)"/>
      <use xlink:href="#DejaVuSans-65" transform="translate(1128.710938 0)"/>
     </g>
    </g>
   </g>
   <g id="patch_3">
    <path d="M 75.950455 145.79125 
L 145.173421 145.79125 
L 145.173421 145.79125 
L 75.950455 145.79125 
z
" clip-path="url(#paf36a2f2cd)" style="fill: #ef6c00; stroke: #333333; stroke-width: 0.6; stroke-linejoin: miter"/>
   </g>
   <g id="patch_4">
    <path d="M 162.479163 145.79125 
L 231.702129 145.79125 
L 231.702129 145.79125 
L 162.479163 145.79125 
z
" clip-path="url(#paf36a2f2cd)" style="fill: #ef6c00; stroke: #333333; stroke-width: 0.6; stroke-linejoin: miter"/>
   </g>
   <g id="patch_5">
    <path d="M 249.007871 145.79125 
L 318.230837 145.79125 
L 318.230837 145.79125 
L 249.007871 145.79125 
z
" clip-path="url(#paf36a2f2cd)" style="fill: #ef6c00; stroke: #333333; stroke-width: 0.6; stroke-linejoin: miter"/>
   </g>
   <g id="patch_6">
    <path d="M 335.536579 145.79125 
L 404.759545 145.79125 
L 404.759545 145.79125 
L 335.536579 145.79125 
z
" clip-path="url(#paf36a2f2cd)" style="fill: #ef6c00; stroke: #333333; stroke-width: 0.6; stroke-linejoin: miter"/>
   </g>
   <g id="patch_7">
    <path d="M 59.51 255.1985 
L 59.51 36.384 
" style="fill: none; stroke: #333333; stroke-linejoin: miter; stroke-linecap: square"/>
   </g>
   <g id="patch_8">
    <path d="M 59.51 255.1985 
L 421.2 255.1985 
" style="fill: none; stroke: #333333; stroke-linejoin: miter; stroke-linecap: square"/>
   </g>
   <g id="text_11">
    <!-- Critical compliance rate by condition -->
    <g style="fill: #111111" transform="translate(148.413594 19.186188) scale(0.1 -0.1)">
     <defs>
      <path id="DejaVuSans-62" d="M 3116 1747 
Q 3116 2381 2855 2742 
Q 2594 3103 2138 3103 
Q 1681 3103 1420 2742 
Q 1159 2381 1159 1747 
Q 1159 1113 1420 752 
Q 1681 391 2138 391 
Q 2594 391 2855 752 
Q 3116 1113 3116 1747 
z
M 1159 2969 
Q 1341 3281 1617 3432 
Q 1894 3584 2278 3584 
Q 2916 3584 3314 3078 
Q 3713 2572 3713 1747 
Q 3713 922 3314 415 
Q 2916 -91 2278 -91 
Q 1894 -91 1617 61 
Q 1341 213 1159 525 
L 1159 0 
L 581 0 
L 581 4863 
L 1159 4863 
L 1159 2969 
z
" transform="scale(0.015625)"/>
      <path id="DejaVuSans-79" d="M 2059 -325 
Q 1816 -950 1584 -1140 
Q 1353 -1331 966 -1331 
L 506 -1331 
L 506 -850 
L 844 -850 
Q 1081 -850 1212 -737 
Q 1344 -625 1503 -206 
L 1606 56 
L 191 3500 
L 800 3500 
L 1894 763 
L 2988 3500 
L 3597 3500 
L 2059 -325 
z
" transform="scale(0.015625)"/>
     </defs>
     <use xlink:href="#DejaVuSans-43"/>
     <use xlink:href="#DejaVuSans-72" transform="translate(69.824219 0)"/>
     <use xlink:href="#DejaVuSans-69" transform="translate(110.9375 0)"/>
     <use xlink:href="#DejaVuSans-74" transform="translate(138.720703 0)"/>
     <use xlink:href="#DejaVuSans-69" transform="translate(177.929688 0)"/>
     <use xlink:href="#DejaVuSans-63" transform="translate(205.712891 0)"/>
     <use xlink:href="#DejaVuSans-61" transform="translate(260.693359 0)"/>
     <use xlink:href="#DejaVuSans-6c" transform="translate(321.972656 0)"/>
     <use xlink:href="#DejaVuSans-20" transform="translate(349.755859 0)"/>
     <use xlink:href="#DejaVuSans-63" transform="translate(381.542969 0)"/>
     <use xlink:href="#DejaVuSans-6f" transform="translate(436.523438 0)"/>
     <use xlink:href="#DejaVuSans-6d" transform="translate(497.705078 0)"/>
     <use xlink:href="#DejaVuSans-70" transform="translate(595.117188 0)"/>
     <use xlink:href="#DejaVuSans-6c" transform="translate(658.59375 0)"/>
     <use xlink:href="#DejaVuSans-69" transform="translate(686.376953 0)"/>
     <use xlink:href="#DejaVuSans-61" transform="translate(714.160156 0)"/>
     <use xlink:href="#DejaVuSans-6e" transform="translate(775.439453 0)"/>
     <use xlink:href="#DejaVuSans-63" transform="translate(838.818359 0)"/>
     <use xlink:href="#DejaVuSans-65" transform="translate(893.798828 0)"/>
     <use xlink:href="#DejaVuSans-20" transform="translate(955.322266 0)"/>
     <use xlink:href="#DejaVuSans-72" transform="translate(987.109375 0)"/>
     <use xlink:href="#DejaVuSans-61" transform="translate(1028.222656 0)"/>
     <use xlink:href="#DejaVuSans-74" transform="translate(1089.501953 0)"/>
     <use xlink:href="#DejaVuSans-65" transform="translate(1128.710938 0)"/>
     <use xlink:href="#DejaVuSans-20" transform="translate(1190.234375 0)"/>
     <use xlink:href="#DejaVuSans-62" transform="translate(1222.021484 0)"/>
     <use xlink:href="#DejaVuSans-79" transform="translate(1285.498047 0)"/>
     <use xlink:href="#DejaVuSans-20" transform="translate(1344.677734 0)"/>
     <use xlink:href="#DejaVuSans-63" transform="translate(1376.464844 0)"/>
     <use xlink:href="#DejaVuSans-6f" transform="translate(1431.445312 0)"/>
     <use xlink:href="#DejaVuSans-6e" transform="translate(1492.626953 0)"/>
     <use xlink:href="#DejaVuSans-64" transform="translate(1556.005859 0)"/>
     <use xlink:href="#DejaVuSans-69" transform="translate(1619.482422 0)"/>
     <use xlink:href="#DejaVuSans-74" transform="translate(1647.265625 0)"/>
     <use xlink:href="#DejaVuSans-69" transform="translate(1686.474609 0)"/>
     <use xlink:href="#DejaVuSans-6f" transform="translate(1714.257812 0)"/>
     <use xlink:href="#DejaVuSans-6e" transform="translate(1775.439453 0)"/>
    </g>
    <!-- throughput_sla: 4 conditions, 2 episode(s) per condition -->
    <g style="fill: #111111" transform="translate(100.472969 30.384) scale(0.1 -0.1)">
     <defs>
      <path id="DejaVuSans-68" d="M 3513 2113 
L 3513 0 
L 2938 0 
L 2938 2094 
Q 2938 2591 2744 2837 
Q 2550 3084 2163 3084 
Q 1697 3084 1428 2787 
Q 1159 2491 1159 1978 
L 1159 0 
L 581 0 
L 581 4863 
L 1159 4863 
L 1159 2956 
Q 1366 3272 1645 3428 
Q 1925 3584 2291 3584 
Q 2894 3584 3203 3211 
Q 3513 2838 3513 2113 
z
" transform="scale(0.015625)"/>
      <path id="DejaVuSans-75" d="M 544 1381 
L 544 3500 
L 1119 3500 
L 1119 1403 
Q 1119 906 1312 657 
Q 1506 409 1894 409 
Q 2359 409 2629 706 
Q 2900 1003 2900 1516 
L 2900 3500 
L 3475 3500 
L 3475 0 
L 2900 0 
L 2900 538 
Q 2691 219 2414 64 
Q 2138 -91 1772 -91 
Q 1169 -91 856 284 
Q 544 659 544 1381 
z
M 1991 3584 
L 1991 3584 
z
" transform="scale(0.015625)"/>
      <path id="DejaVuSans-67" d="M 2906 1791 
Q 2906 2416 2648 2759 
Q 2391 3103 1925 3103 
Q 1463 3103 1205 2759 
Q 947 2416 947 1791 
Q 947 1169 1205 825 
Q 1463 481 1925 481 
Q 2391 481 2648 825 
Q 2906 1169 2906 1791 
z
M 3481 434 
Q 3481 -459 3084 -895 
Q 2688 -1331 1869 -1331 
Q 1566 -1331 1297 -1286 
Q 1028 -1241 775 -1147 
L 775 -588 
Q 1028 -725 1275 -790 
Q 1522 -856 1778 -856 
Q 2344 -856 2625 -561 
Q 2906 -266 2906 331 
L 2906 616 
Q 2728 306 2450 153 
Q 2172 0 1784 0 
Q 1141 0 747 490 
Q 353 981 353 1791 
Q 353 2603 747 3093 
Q 1141 3584 1784 3584 
Q 2172 3584 2450 3431 
Q 2728 3278 2906 2969 
L 2906 3500 
L 3481 3500 
L 3481 434 
z
" transform="scale(0.015625)"/>
      <path id="DejaVuSans-73" d="M 2834 3397 
L 2834 2853 
Q 2591 2978 2328 3040 
Q 2066 3103 1784 3103 
Q 1356 3103 1142 2972 
Q 928 2841 928 2578 
Q 928 2378 1081 2264 
Q 1234 2150 1697 2047 
L 1894 2003 
Q 2506 1872 2764 1633 
Q 3022 1394 3022 966 
Q 3022 478 2636 193 
Q 2250 -91 1575 -91 
Q 1294 -91 989 -36 
Q 684 19 347 128 
L 347 722 
Q 666 556 975 473 
Q 1284 391 1588 391 
Q 1994 391 2212 530 
Q 2431 669 2431 922 
Q 2431 1156 2273 1281 
Q 2116 1406 1581 1522 
L 1381 1569 
Q 847 1681 609 1914 
Q 372 2147 372 2553 
Q 372 3047 722 3315 
Q 1072 3584 1716 3584 
Q 2034 3584 2315 3537 
Q 2597 3491 2834 3397 
z
" transform="scale(0.015625)"/>
      <path id="DejaVuSans-3a" d="M 750 794 
L 1409 794 
L 1409 0 
L 750 0 
L 750 794 
z
M 750 3309 
L 1409 3309 
L 1409 2516 
L 750 2516 
L 750 3309 
z
" transform="scale(0.015625)"/>
      <path id="DejaVuSans-2c" d="M 750 794 
L 1409 794 
L 1409 256 
L 897 -744 
L 494 -744 
L 750 256 
L 750 794 
z
" transform="scale(0.015625)"/>
      <path id="DejaVuSans-28" d="M 1984 4856 
Q 1566 4138 1362 3434 
Q 1159 2731 1159 2009 
Q 1159 1288 1364 580 
Q 1569 -128 1984 -844 
L 1484 -844 
Q 1016 -109 783 600 
Q 550 1309 550 2009 
Q 550 2706 781 3412 
Q 1013 4119 1484 4856 
L 1984 4856 
z
" transform="scale(0.015625)"/>
      <path id="DejaVuSans-29" d="M 513 4856 
L 1013 4856 
Q 1481 4119 1714 3412 
Q 1947 2706 1947 2009 
Q 1947 1309 1714 600 
Q 1481 -109 1013 -844 
L 513 -844 
Q 928 -128 1133 580 
Q 1338 1288 1338 2009 
Q 1338 2731 1133 3434 
Q 928 4138 513 4856 
z
" transform="scale(0.015625)"/>
     </defs>
     <use xlink:href="#DejaVuSans-74"/>
     <use xlink:href="#DejaVuSans-68" transform="translate(39.208984 0)"/>
     <use xlink:href="#DejaVuSans-72" transform="translate(102.587891 0)"/>
     <use xlink:href="#DejaVuSans-6f" transform="translate(141.451172 0)"/>
     <use xlink:href="#DejaVuSans-75" transform="translate(202.632812 0)"/>
     <use xlink:href="#DejaVuSans-67" transform="translate(266.011719 0)"/>
     <use xlink:href="#DejaVuSans-68" transform="translate(329.488281 0)"/>
     <use xlink:href="#DejaVuSans-70" transform="translate(392.867188 0)"/>
     <use xlink:href="#DejaVuSans-75" transform="translate(456.34375 0)"/>
     <use xlink:href="#DejaVuSans-74" transform="translate(519.722656 0)"/>
     <use xlink:href="#DejaVuSans-5f" transform="translate(558.931641 0)"/>
     <use xlink:href="#DejaVuSans-73" transform="translate(608.931641 0)"/>
     <use xlink:href="#DejaVuSans-6c" transform="translate(661.03125 0)"/>
     <use xlink:href="#DejaVuSans-61" transform="translate(688.814453 0)"/>
     <use xlink:href="#DejaVuSans-3a" transform="translate(750.09375 0)"/>
     <use xlink:href="#DejaVuSans-20" transform="translate(783.785156 0)"/>
     <use xlink:href="#DejaVuSans-34" transform="translate(815.572266 0)"/>
     <use xlink:href="#DejaVuSans-20" transform="translate(879.195312 0)"/>
     <use xlink:href="#DejaVuSans-63" transform="translate(910.982422 0)"/>
     <use xlink:href="#DejaVuSans-6f" transform="translate(965.962891 0)"/>
     <use xlink:href="#DejaVuSans-6e" transform="translate(1027.144531 0)"/>
     <use xlink:href="#DejaVuSans-64" transform="translate(1090.523438 0)"/>
     <use xlink:href="#DejaVuSans-69" transform="translate(1154 0)"/>
     <use xlink:href="#DejaVuSans-74" transform="translate(1181.783203 0)"/>
     <use xlink:href="#DejaVuSans-69" transform="translate(1220.992188 0)"/>
     <use xlink:href="#DejaVuSans-6f" transform="translate(1248.775391 0)"/>
     <use xlink:href="#DejaVuSans-6e" transform="translate(1309.957031 0)"/>
     <use xlink:href="#DejaVuSans-73" transform="translate(1373.335938 0)"/>
     <use xlink:href="#DejaVuSans-2c" transform="translate(1425.435547 0)"/>
     <use xlink:href="#DejaVuSans-20" transform="translate(1457.222656 0)"/>
     <use xlink:href="#DejaVuSans-32" transform="translate(1489.009766 0)"/>
     <use xlink:href="#DejaVuSans-20" transform="translate(1552.632812 0)"/>
     <use xlink:href="#DejaVuSans-65" transform="translate(1584.419922 0)"/>
     <use xlink:href="#DejaVuSans-70" transform="translate(1645.943359 0)"/>
     <use xlink:href="#DejaVuSans-69" transform="translate(1709.419922 0)"/>
     <use xlink:href="#DejaVuSans-73" transform="translate(1737.203125 0)"/>
     <use xlink:href="#DejaVuSans-6f" transform="translate(1789.302734 0)"/>
     <use xlink:href="#DejaVuSans-64" transform="translate(1850.484375 0)"/>
     <use xlink:href="#DejaVuSans-65" transform="translate(1913.960938 0)"/>
     <use xlink:href="#DejaVuSans-28" transform="translate(1975.484375 0)"/>
     <use xlink:href="#DejaVuSans-73" transform="translate(2014.498047 0)"/>
     <use xlink:href="#DejaVuSans-29" transform="translate(2066.597656 0)"/>
     <use xlink:href="#DejaVuSans-20" transform="translate(2105.611328 0)"/>
     <use xlink:href="#DejaVuSans-70" transform="translate(2137.398438 0)"/>
     <use xlink:href="#DejaVuSans-65" transform="translate(2200.875 0)"/>
     <use xlink:href="#DejaVuSans-72" transform="translate(2262.398438 0)"/>
     <use xlink:href="#DejaVuSans-20" transform="translate(2303.511719 0)"/>
     <use xlink:href="#DejaVuSans-63" transform="translate(2335.298828 0)"/>
     <use xlink:href="#DejaVuSans-6f" transform="translate(2390.279297 0)"/>
     <use xlink:href="#DejaVuSans-6e" transform="translate(2451.460938 0)"/>
     <use xlink:href="#DejaVuSans-64" transform="translate(2514.839844 0)"/>
     <use xlink:href="#DejaVuSans-69" transform="translate(2578.316406 0)"/>
     <use xlink:href="#DejaVuSans-74" transform="translate(2606.099609 0)"/>
     <use xlink:href="#DejaVuSans-69" transform="translate(2645.308594 0)"/>
     <use xlink:href="#DejaVuSans-6f" transform="translate(2673.091797 0)"/>
     <use xlink:href="#DejaVuSans-6e" transform="translate(2734.273438 0)"/>
    </g>
   </g>
  </g>
  <g id="text_12">
   <!-- No critical communication in this run or rate not computed. -->
   <g style="fill: #111111" transform="translate(111.792422 296.352) scale(0.07 -0.07)">
    <defs>
     <path id="DejaVuSans-Oblique-4e" d="M 1081 4666 
L 1931 4666 
L 3219 666 
L 4000 4666 
L 4616 4666 
L 3706 0 
L 2853 0 
L 1569 4025 
L 788 0 
L 172 0 
L 1081 4666 
z
" transform="scale(0.015625)"/>
     <path id="DejaVuSans-Oblique-6f" d="M 1625 -91 
Q 1009 -91 651 289 
Q 294 669 294 1325 
Q 294 1706 417 2101 
Q 541 2497 738 2766 
Q 1047 3184 1428 3384 
Q 1809 3584 2291 3584 
Q 2888 3584 3255 3212 
Q 3622 2841 3622 2241 
Q 3622 1825 3500 1412 
Q 3378 1000 3181 728 
Q 2875 309 2494 109 
Q 2113 -91 1625 -91 
z
M 891 1344 
Q 891 869 1089 633 
Q 1288 397 1691 397 
Q 2269 397 2648 901 
Q 3028 1406 3028 2181 
Q 3028 2634 2825 2865 
Q 2622 3097 2228 3097 
Q 1903 3097 1650 2945 
Q 1397 2794 1197 2484 
Q 1050 2253 970 1956 
Q 891 1659 891 1344 
z
" transform="scale(0.015625)"/>
     <path id="DejaVuSans-Oblique-20" transform="scale(0.015625)"/>
     <path id="DejaVuSans-Oblique-63" d="M 3431 3366 
L 3316 2797 
Q 3109 2947 2876 3022 
Q 2644 3097 2394 3097 
Q 2119 3097 1870 3000 
Q 1622 2903 1453 2725 
Q 1184 2453 1037 2087 
Q 891 1722 891 1331 
Q 891 859 1127 628 
Q 1363 397 1844 397 
Q 2081 397 2348 469 
Q 2616 541 2906 684 
L 2797 116 
Q 2547 13 2283 -39 
Q 2019 -91 1741 -91 
Q 1044 -91 669 257 
Q 294 606 294 1253 
Q 294 1797 489 2255 
Q 684 2713 1069 3078 
Q 1331 3328 1684 3456 
Q 2038 3584 2456 3584 
Q 2700 3584 2940 3529 
Q 3181 3475 3431 3366 
z
" transform="scale(0.015625)"/>
     <path id="DejaVuSans-Oblique-72" d="M 2853 2969 
Q 2766 3016 2653 3041 
Q 2541 3066 2413 3066 
Q 1953 3066 1609 2717 
Q 1266 2369 1153 1784 
L 800 0 
L 225 0 
L 909 3500 
L 1484 3500 
L 1375 2956 
Q 1603 3259 1920 3421 
Q 2238 3584 2597 3584 
Q 2691 3584 2781 3573 
Q 2872 3563 2963 3538 
L 2853 2969 
z
" transform="scale(0.015625)"/>
     <path id="DejaVuSans-Oblique-69" d="M 1172 4863 
L 1747 4863 
L 1606 4134 
L 1031 4134 
L 1172 4863 
z
M 909 3500 
L 1484 3500 
L 800 0 
L 225 0 
L 909 3500 
z
" transform="scale(0.015625)"/>
     <path id="DejaVuSans-Oblique-74" d="M 2706 3500 
L 2619 3053 
L 1472 3053 
L 1100 1153 
Q 1081 1047 1072 975 
Q 1063 903 1063 863 
Q 1063 663 1183 572 
Q 1303 481 1569 481 
L 2150 481 
L 2053 0 
L 1503 0 
Q 991 0 739 200 
Q 488 400 488 806 
Q 488 878 497 964 
Q 506 1050 525 1153 
L 897 3053 
L 409 3053 
L 500 3500 
L 978 3500 
L 1172 4494 
L 1747 4494 
L 1556 3500 
L 2706 3500 
z
" transform="scale(0.015625)"/>
     <path id="DejaVuSans-Oblique-61" d="M 3438 1997 
L 3047 0 
L 2472 0 
L 2578 531 
Q 2325 219 2001 64 
Q 1678 -91 1281 -91 
Q 834 -91 548 182 
Q 263 456 263 884 
Q 263 1497 752 1853 
Q 1241 2209 2100 2209 
L 2900 2209 
L 2931 2363 
Q 2938 2388 2941 2417 
Q 2944 2447 2944 2509 
Q 2944 2788 2717 2942 
Q 2491 3097 2081 3097 
Q 1800 3097 1504 3025 
Q 1209 2953 897 2809 
L 997 3341 
Q 1322 3463 1633 3523 
Q 1944 3584 2234 3584 
Q 2853 3584 3176 3315 
Q 3500 3047 3500 2534 
Q 3500 2431 3484 2292 
Q 3469 2153 3438 1997 
z
M 2816 1759 
L 2241 1759 
Q 1534 1759 1195 1570 
Q 856 1381 856 984 
Q 856 709 1029 553 
Q 1203 397 1509 397 
Q 1978 397 2328 733 
Q 2678 1069 2791 1631 
L 2816 1759 
z
" transform="scale(0.015625)"/>
     <path id="DejaVuSans-Oblique-6c" d="M 1172 4863 
L 1747 4863 
L 800 0 
L 225 0 
L 1172 4863 
z
" transform="scale(0.015625)"/>
     <path id="DejaVuSans-Oblique-6d" d="M 5747 2113 
L 5338 0 
L 4763 0 
L 5166 2094 
Q 5191 2228 5203 2325 
Q 5216 2422 5216 2491 
Q 5216 2772 5059 2928 
Q 4903 3084 4622 3084 
Q 4203 3084 3875 2770 
Q 3547 2456 3450 1953 
L 3066 0 
L 2491 0 
L 2900 2094 
Q 2925 2209 2937 2307 
Q 2950 2406 2950 2484 
Q 2950 2769 2794 2926 
Q 2638 3084 2363 3084 
Q 1938 3084 1609 2770 
Q 1281 2456 1184 1953 
L 800 0 
L 225 0 
L 909 3500 
L 1484 3500 
L 1375 2956 
Q 1609 3263 1923 3423 
Q 2238 3584 2597 3584 
Q 2978 3584 3223 3384 
Q 3469 3184 3519 2828 
Q 3781 3197 4126 3390 
Q 4472 3584 4856 3584 
Q 5306 3584 5551 3325 
Q 5797 3066 5797 2591 
Q 5797 2488 5784 2364 
Q 5772 2241 5747 2113 
z
" transform="scale(0.015625)"/>
     <path id="DejaVuSans-Oblique-75" d="M 428 1388 
L 838 3500 
L 1416 3500 
L 1006 1409 
Q 975 1256 961 1147 
Q 947 1038 947 966 
Q 947 700 1109 554 
Q 1272 409 1569 409 
Q 2031 409 2368 721 
Q 2706 1034 2809 1563 
L 3194 3500 
L 3769 3500 
L 3091 0 
L 2516 0 
L 2631 550 
Q 2388 244 2052 76 
Q 1716 -91 1338 -91 
Q 878 -91 622 161 
Q 366 413 366 863 
Q 366 956 381 1097 
Q 397 1238 428 1388 
z
" transform="scale(0.015625)"/>
     <path id="DejaVuSans-Oblique-6e" d="M 3566 2113 
L 3156 0 
L 2578 0 
L 2988 2091 
Q 3016 2238 3031 2350 
Q 3047 2463 3047 2528 
Q 3047 2791 2881 2937 
Q 2716 3084 2419 3084 
Q 1956 3084 1622 2776 
Q 1288 2469 1184 1941 
L 800 0 
L 225 0 
L 903 3500 
L 1478 3500 
L 1363 2950 
Q 1603 3253 1940 3418 
Q 2278 3584 2650 3584 
Q 3113 3584 3367 3334 
Q 3622 3084 3622 2631 
Q 3622 2519 3608 2391 
Q 3594 2263 3566 2113 
z
" transform="scale(0.015625)"/>
     <path id="DejaVuSans-Oblique-68" d="M 3566 2113 
L 3156 0 
L 2578 0 
L 2988 2091 
Q 3016 2238 3031 2350 
Q 3047 2463 3047 2528 
Q 3047 2791 2881 2937 
Q 2716 3084 2419 3084 
Q 1956 3084 1617 2771 
Q 1278 2459 1178 1941 
L 800 0 
L 225 0 
L 1172 4863 
L 1747 4863 
L 1375 2950 
Q 1594 3244 1934 3414 
Q 2275 3584 2650 3584 
Q 3113 3584 3367 3334 
Q 3622 3084 3622 2631 
Q 3622 2519 3608 2391 
Q 3594 2263 3566 2113 
z
" transform="scale(0.015625)"/>
     <path id="DejaVuSans-Oblique-73" d="M 3200 3397 
L 3091 2853 
Q 2863 2978 2609 3040 
Q 2356 3103 2088 3103 
Q 1634 3103 1373 2948 
Q 1113 2794 1113 2528 
Q 1113 2219 1719 2053 
Q 1766 2041 1788 2034 
L 1972 1978 
Q 2547 1819 2739 1644 
Q 2931 1469 2931 1166 
Q 2931 609 2489 259 
Q 2047 -91 1331 -91 
Q 1053 -91 747 -37 
Q 441 16 72 128 
L 184 722 
Q 500 559 806 475 
Q 1113 391 1394 391 
Q 1816 391 2080 572 
Q 2344 753 2344 1031 
Q 2344 1331 1650 1516 
L 1591 1531 
L 1394 1581 
Q 956 1697 753 1886 
Q 550 2075 550 2369 
Q 550 2928 970 3256 
Q 1391 3584 2113 3584 
Q 2397 3584 2667 3537 
Q 2938 3491 3200 3397 
z
" transform="scale(0.015625)"/>
     <path id="DejaVuSans-Oblique-65" d="M 3078 2063 
Q 3088 2113 3092 2166 
Q 3097 2219 3097 2272 
Q 3097 2653 2873 2875 
Q 2650 3097 2266 3097 
Q 1838 3097 1509 2826 
Q 1181 2556 1013 2059 
L 3078 2063 
z
M 3578 1613 
L 903 1613 
Q 884 1494 878 1425 
Q 872 1356 872 1306 
Q 872 872 1139 634 
Q 1406 397 1894 397 
Q 2269 397 2603 481 
Q 2938 566 3225 728 
L 3116 159 
Q 2806 34 2476 -28 
Q 2147 -91 1806 -91 
Q 1078 -91 686 257 
Q 294 606 294 1247 
Q 294 1794 489 2264 
Q 684 2734 1063 3103 
Q 1306 3334 1642 3459 
Q 1978 3584 2356 3584 
Q 2950 3584 3301 3228 
Q 3653 2872 3653 2272 
Q 3653 2128 3634 1964 
Q 3616 1800 3578 1613 
z
" transform="scale(0.015625)"/>
     <path id="DejaVuSans-Oblique-70" d="M 3175 2156 
Q 3175 2616 2975 2859 
Q 2775 3103 2400 3103 
Q 2144 3103 1911 2972 
Q 1678 2841 1497 2591 
Q 1319 2344 1212 1994 
Q 1106 1644 1106 1300 
Q 1106 863 1306 627 
Q 1506 391 1875 391 
Q 2147 391 2380 519 
Q 2613 647 2778 891 
Q 2956 1147 3065 1494 
Q 3175 1841 3175 2156 
z
M 1394 2969 
Q 1625 3272 1939 3428 
Q 2253 3584 2638 3584 
Q 3175 3584 3472 3232 
Q 3769 2881 3769 2247 
Q 3769 1728 3584 1258 
Q 3400 788 3053 416 
Q 2822 169 2531 39 
Q 2241 -91 1919 -91 
Q 1547 -91 1294 64 
Q 1041 219 916 525 
L 556 -1331 
L -19 -1331 
L 922 3500 
L 1497 3500 
L 1394 2969 
z
" transform="scale(0.015625)"/>
     <path id="DejaVuSans-Oblique-64" d="M 2675 525 
Q 2444 222 2128 65 
Q 1813 -91 1428 -91 
Q 903 -91 598 267 
Q 294 625 294 1247 
Q 294 1766 478 2236 
Q 663 2706 1013 3078 
Q 1244 3325 1534 3454 
Q 1825 3584 2144 3584 
Q 2481 3584 2739 3421 
Q 2997 3259 3138 2956 
L 3513 4863 
L 4091 4863 
L 3144 0 
L 2566 0 
L 2675 525 
z
M 891 1350 
Q 891 897 1095 644 
Q 1300 391 1663 391 
Q 1931 391 2161 520 
Q 2391 650 2566 903 
Q 2750 1166 2856 1509 
Q 2963 1853 2963 2188 
Q 2963 2622 2758 2865 
Q 2553 3109 2194 3109 
Q 1922 3109 1687 2981 
Q 1453 2853 1288 2613 
Q 1106 2353 998 2009 
Q 891 1666 891 1350 
z
" transform="scale(0.015625)"/>
     <path id="DejaVuSans-Oblique-2e" d="M 525 794 
L 1184 794 
L 1031 0 
L 372 0 
L 525 794 
z
" transform="scale(0.015625)"/>
    </defs>
    <use xlink:href="#DejaVuSans-Oblique-4e"/>
    <use xlink:href="#DejaVuSans-Oblique-6f" transform="translate(74.804688 0)"/>
    <use xlink:href="#DejaVuSans-Oblique-20" transform="translate(135.986328 0)"/>
    <use xlink:href="#DejaVuSans-Oblique-63" transform="translate(167.773438 0)"/>
    <use xlink:href="#DejaVuSans-Oblique-72" transform="translate(222.753906 0)"/>
    <use xlink:href="#DejaVuSans-Oblique-69" transform="translate(263.867188 0)"/>
    <use xlink:href="#DejaVuSans-Oblique-74" transform="translate(291.650391 0)"/>
    <use xlink:href="#DejaVuSans-Oblique-69" transform="translate(330.859375 0)"/>
    <use xlink:href="#DejaVuSans-Oblique-63" transform="translate(358.642578 0)"/>
    <use xlink:href="#DejaVuSans-Oblique-61" transform="translate(413.623047 0)"/>
    <use xlink:href="#DejaVuSans-Oblique-6c" transform="translate(474.902344 0)"/>
    <use xlink:href="#DejaVuSans-Oblique-20" transform="translate(502.685547 0)"/>
    <use xlink:href="#DejaVuSans-Oblique-63" transform="translate(534.472656 0)"/>
    <use xlink:href="#DejaVuSans-Oblique-6f" transform="translate(589.453125 0)"/>
    <use xlink:href="#DejaVuSans-Oblique-6d" transform="translate(650.634766 0)"/>
    <use xlink:href="#DejaVuSans-Oblique-6d" transform="translate(748.046875 0)"/>
    <use xlink:href="#DejaVuSans-Oblique-75" transform="translate(845.458984 0)"/>
    <use xlink:href="#DejaVuSans-Oblique-6e" transform="translate(908.837891 0)"/>
    <use xlink:href="#DejaVuSans-Oblique-69" transform="translate(972.216797 0)"/>
    <use xlink:href="#DejaVuSans-Oblique-63" transform="translate(1000 0)"/>
    <use xlink:href="#DejaVuSans-Oblique-61" transform="translate(1054.980469 0)"/>
    <use xlink:href="#DejaVuSans-Oblique-74" transform="translate(1116.259766 0)"/>
    <use xlink:href="#DejaVuSans-Oblique-69" transform="translate(1155.46875 0)"/>
    <use xlink:href="#DejaVuSans-Oblique-6f" transform="translate(1183.251953 0)"/>
    <use xlink:href="#DejaVuSans-Oblique-6e" transform="translate(1244.433594 0)"/>
    <use xlink:href="#DejaVuSans-Oblique-20" transform="translate(1307.8125 0)"/>
    <use xlink:href="#DejaVuSans-Oblique-69" transform="translate(1339.599609 0)"/>
    <use xlink:href="#DejaVuSans-Oblique-6e" transform="translate(1367.382812 0)"/>
    <use xlink:href="#DejaVuSans-Oblique-20" transform="translate(1430.761719 0)"/>
    <use xlink:href="#DejaVuSans-Oblique-74" transform="translate(1462.548828 0)"/>
    <use xlink:href="#DejaVuSans-Oblique-68" transform="translate(1501.757812 0)"/>
    <use xlink:href="#DejaVuSans-Oblique-69" transform="translate(1565.136719 0)"/>
    <use xlink:href="#DejaVuSans-Oblique-73" transform="translate(1592.919922 0)"/>
    <use xlink:href="#DejaVuSans-Oblique-20" transform="translate(1645.019531 0)"/>
    <use xlink:href="#DejaVuSans-Oblique-72" transform="translate(1676.806641 0)"/>
    <use xlink:href="#DejaVuSans-Oblique-75" transform="translate(1717.919922 0)"/>
    <use xlink:href="#DejaVuSans-Oblique-6e" transform="translate(1781.298828 0)"/>
    <use xlink:href="#DejaVuSans-Oblique-20" transform="translate(1844.677734 0)"/>
    <use xlink:href="#DejaVuSans-Oblique-6f" transform="translate(1876.464844 0)"/>
    <use xlink:href="#DejaVuSans-Oblique-72" transform="translate(1937.646484 0)"/>
    <use xlink:href="#DejaVuSans-Oblique-20" transform="translate(1978.759766 0)"/>
    <use xlink:href="#DejaVuSans-Oblique-72" transform="translate(2010.546875 0)"/>
    <use xlink:href="#DejaVuSans-Oblique-61" transform="translate(2051.660156 0)"/>
    <use xlink:href="#DejaVuSans-Oblique-74" transform="translate(2112.939453 0)"/>
    <use xlink:href="#DejaVuSans-Oblique-65" transform="translate(2152.148438 0)"/>
    <use xlink:href="#DejaVuSans-Oblique-20" transform="translate(2213.671875 0)"/>
    <use xlink:href="#DejaVuSans-Oblique-6e" transform="translate(2245.458984 0)"/>
    <use xlink:href="#DejaVuSans-Oblique-6f" transform="translate(2308.837891 0)"/>
    <use xlink:href="#DejaVuSans-Oblique-74" transform="translate(2370.019531 0)"/>
    <use xlink:href="#DejaVuSans-Oblique-20" transform="translate(2409.228516 0)"/>
    <use xlink:href="#DejaVuSans-Oblique-63" transform="translate(2441.015625 0)"/>
    <use xlink:href="#DejaVuSans-Oblique-6f" transform="translate(2495.996094 0)"/>
    <use xlink:href="#DejaVuSans-Oblique-6d" transform="translate(2557.177734 0)"/>
    <use xlink:href="#DejaVuSans-Oblique-70" transform="translate(2654.589844 0)"/>
    <use xlink:href="#DejaVuSans-Oblique-75" transform="translate(2718.066406 0)"/>
    <use xlink:href="#DejaVuSans-Oblique-74" transform="translate(2781.445312 0)"/>
    <use xlink:href="#DejaVuSans-Oblique-65" transform="translate(2820.654297 0)"/>
    <use xlink:href="#DejaVuSans-Oblique-64" transform="translate(2882.177734 0)"/>
    <use xlink:href="#DejaVuSans-Oblique-2e" transform="translate(2945.654297 0)"/>
   </g>
  </g>
 </g>
 <defs>
  <clipPath id="paf36a2f2cd">
   <rect x="59.51" y="36.384" width="361.69" height="218.8145"/>
  </clipPath>
 </defs>
</svg>
